<svg width="13" height="22" viewBox="0 0 13 22" fill="none" xmlns="http://www.w3.org/2000/svg">
<path d="M11.9898 0.595946C10.981 0.48897 9.96722 0.436894 8.9528 0.439946C5.5898 0.439946 3.4998 2.58195 3.4998 6.02995V8.37095H0.674805C0.542196 8.37095 0.415019 8.42362 0.321251 8.51739C0.227483 8.61116 0.174805 8.73834 0.174805 8.87094V12.7209C0.174805 12.8536 0.227483 12.9807 0.321251 13.0745C0.415019 13.1683 0.542196 13.2209 0.674805 13.2209H3.4998V20.9409C3.4998 21.0736 3.55248 21.2007 3.64625 21.2945C3.74002 21.3883 3.8672 21.4409 3.9998 21.4409H7.9778C8.11041 21.4409 8.23759 21.3883 8.33136 21.2945C8.42513 21.2007 8.4778 21.0736 8.4778 20.9409V13.2209H11.2938C11.4152 13.221 11.5325 13.1769 11.6237 13.0969C11.715 13.0168 11.774 12.9063 11.7898 12.7859L12.2868 8.93594C12.2961 8.86538 12.2901 8.79365 12.2694 8.72555C12.2487 8.65746 12.2138 8.59457 12.1668 8.54108C12.1198 8.4876 12.062 8.44475 11.9972 8.41541C11.9323 8.38607 11.862 8.37091 11.7908 8.37095H8.4778V6.41195C8.4778 5.44195 8.6728 5.03695 9.8858 5.03695H11.9248C12.0574 5.03695 12.1846 4.98427 12.2784 4.8905C12.3721 4.79673 12.4248 4.66955 12.4248 4.53695V1.09195C12.4249 0.970554 12.3808 0.853287 12.3007 0.762022C12.2207 0.670756 12.1102 0.611727 11.9898 0.595946ZM11.4248 4.03595L9.8848 4.03695C7.7278 4.03695 7.4778 5.39295 7.4778 6.41195V8.87194C7.4778 9.00438 7.53035 9.13141 7.6239 9.22515C7.71745 9.31888 7.84437 9.37168 7.9768 9.37194H11.2228L10.8538 12.2219H7.9778C7.8452 12.2219 7.71802 12.2746 7.62425 12.3684C7.53048 12.4622 7.4778 12.5893 7.4778 12.7219V20.4399H4.4998V12.7219C4.4998 12.5893 4.44713 12.4622 4.35336 12.3684C4.25959 12.2746 4.13241 12.2219 3.9998 12.2219H1.1758V9.37194H3.9998C4.13241 9.37194 4.25959 9.31927 4.35336 9.2255C4.44713 9.13173 4.4998 9.00455 4.4998 8.87194V6.02995C4.4998 3.15595 6.1648 1.43995 8.9528 1.43995C9.9618 1.43995 10.8728 1.49495 11.4248 1.54295V4.03595Z" fill="white"/>
</svg>
