<svg width="24" height="24" viewBox="0 0 24 24" fill="none" xmlns="http://www.w3.org/2000/svg">
<path d="M18.437 20.937H5.56299C4.89995 20.937 4.26406 20.6736 3.79522 20.2048C3.32638 19.7359 3.06299 19.1 3.06299 18.437V5.56299C3.06299 4.89995 3.26685 4.3236 3.79522 3.79522C4.3236 3.26685 4.89995 3.06299 5.56299 3.06299H18.437C19.1 3.06299 19.7359 3.32638 20.2048 3.79522C20.6736 4.26406 20.937 4.89995 20.937 5.56299V18.437C20.937 19.1 20.6736 19.7359 20.2048 20.2048C19.7359 20.6736 19.1 20.937 18.437 20.937ZM5.56299 4.06299C5.16516 4.06299 4.78363 4.22102 4.50233 4.50233C4.22102 4.78363 4.06299 5.16516 4.06299 5.56299V18.437C4.06299 18.8348 4.22102 19.2163 4.50233 19.4976C4.78363 19.779 5.16516 19.937 5.56299 19.937H18.437C18.8348 19.937 19.2163 19.779 19.4976 19.4976C19.779 19.2163 19.937 18.8348 19.937 18.437V5.56299C19.937 5.16516 19.779 4.78363 19.4976 4.50233C19.2163 4.22102 18.8348 4.06299 18.437 4.06299H5.56299Z" fill="white"/>
<path d="M12.0002 16.5941C11.0915 16.5931 10.2036 16.3227 9.44857 15.8172C8.69357 15.3116 8.10539 14.5936 7.7584 13.7538C7.41141 12.914 7.32119 11.9902 7.49913 11.0992C7.67708 10.2081 8.1152 9.38986 8.75812 8.74778C9.40104 8.1057 10.2199 7.66864 11.1112 7.49186C12.0024 7.31508 12.9261 7.40651 13.7654 7.75459C14.6048 8.10268 15.322 8.69179 15.8266 9.44746C16.3312 10.2031 16.6004 11.0914 16.6002 12.0001C16.5986 13.219 16.1132 14.3875 15.2507 15.2489C14.3882 16.1102 13.2191 16.5941 12.0002 16.5941ZM12.0002 8.40005C11.2896 8.40104 10.5952 8.6126 10.0048 9.008C9.41434 9.40341 8.95434 9.96492 8.68286 10.6216C8.41138 11.2783 8.34061 12.0007 8.47948 12.6976C8.61836 13.3945 8.96064 14.0346 9.46311 14.5371C9.96558 15.0396 10.6057 15.3819 11.3026 15.5207C11.9995 15.6596 12.7219 15.5888 13.3786 15.3174C14.0353 15.0459 14.5968 14.5859 14.9922 13.9954C15.3876 13.405 15.5992 12.7106 15.6002 12.0001C15.6002 11.0453 15.2209 10.1296 14.5457 9.45447C13.8706 8.77934 12.9549 8.40005 12.0002 8.40005Z" fill="white"/>
<path d="M17.2 7.905C17.7937 7.905 18.275 7.42371 18.275 6.83C18.275 6.2363 17.7937 5.755 17.2 5.755C16.6063 5.755 16.125 6.2363 16.125 6.83C16.125 7.42371 16.6063 7.905 17.2 7.905Z" fill="white"/>
</svg>
