<svg width="256" height="126" viewBox="0 0 256 126" fill="none" xmlns="http://www.w3.org/2000/svg">
<path opacity="0.4" d="M224.074 65.3498L224.026 65.4111C223.994 65.451 223.959 65.4883 223.925 65.531C223.887 65.5816 223.85 65.6349 223.81 65.6855L223.751 65.7601L223.69 65.8533L223.559 66.0372C223.202 66.5753 222.783 67.316 222.359 68.1792C221.934 69.0424 221.5 70.0468 221.059 71.1258C220.622 72.2048 220.176 73.3663 219.717 74.5892C218.797 77.0349 217.831 79.7071 216.601 82.5897C215.985 84.0311 215.297 85.5257 214.483 87.0762C213.669 88.6268 212.73 90.2386 211.543 91.8957L211.092 92.5138C210.938 92.7216 210.77 92.9321 210.607 93.1373C210.289 93.5502 209.929 93.9711 209.572 94.3841C209.398 94.5919 209.201 94.7997 209.009 95.0075C208.817 95.21 208.617 95.4285 208.395 95.6522C207.915 96.1211 207.435 96.5954 206.923 97.027C204.895 98.7907 202.606 100.245 200.141 101.255C197.678 102.275 195.061 102.883 192.431 103.064C191.775 103.101 191.116 103.141 190.459 103.131C190.131 103.128 189.806 103.125 189.478 103.117C189.149 103.112 188.824 103.072 188.498 103.045C187.199 102.909 185.908 102.654 184.662 102.254C182.165 101.471 179.844 100.176 177.792 98.5082C175.736 96.8431 173.948 94.8104 172.419 92.5991L172.145 92.1968L171.942 91.8904C171.808 91.6879 171.672 91.4801 171.55 91.2803L171.174 90.6782L170.819 90.0788C170.357 89.2875 169.928 88.5016 169.535 87.7343C168.748 86.1917 168.068 84.6891 167.46 83.2158C166.241 80.2639 165.267 77.4106 164.392 74.5972C162.66 68.9811 161.335 63.5222 160.102 58.1405C158.875 52.7642 157.768 47.4651 156.634 42.2939L155.93 39.1316L155.663 41.3295C155.07 46.4101 154.625 51.6506 154.198 56.9603C153.771 62.2727 153.368 67.6596 152.886 73.1212C152.4 78.5855 151.848 84.119 151.021 89.8044C150.605 92.6497 150.119 95.5324 149.487 98.4976C148.846 101.465 148.083 104.505 146.934 107.75C146.795 108.153 146.632 108.568 146.48 108.979L146.171 109.759L145.973 110.239L145.776 110.7C145.642 111.009 145.504 111.315 145.365 111.619C145.224 111.922 145.071 112.221 144.925 112.522C144.642 113.129 144.306 113.702 143.996 114.294C143.329 115.439 142.62 116.555 141.827 117.589C141.035 118.62 140.179 119.585 139.258 120.461C137.417 122.217 135.299 123.605 132.992 124.559C131.836 125.03 130.633 125.39 129.409 125.635C128.181 125.869 126.933 125.992 125.682 126C123.179 126.003 120.661 125.598 118.265 124.774C115.864 123.954 113.591 122.704 111.531 121.103C109.467 119.507 107.634 117.544 106.046 115.386C105.649 114.845 105.267 114.294 104.899 113.731C104.806 113.59 104.715 113.449 104.627 113.31L104.406 112.953C104.278 112.748 104.158 112.549 104.038 112.346C103.557 111.539 103.117 110.74 102.714 109.951C101.1 106.791 99.9451 103.767 98.966 100.823C97.9895 97.8768 97.2052 95.0075 96.5062 92.1808C95.1216 86.5354 94.0892 81.0552 93.1021 75.7161L91.8082 68.696L90.8104 72.8735C90.1834 75.4817 89.5325 78.0899 88.7962 80.5996C88.0572 83.1066 87.2302 85.515 86.2697 87.6464C85.3066 89.7777 84.2262 91.632 83.0497 93.1319C81.8758 94.6478 80.6273 95.8068 79.3094 96.7632C78.6424 97.2294 77.9701 97.6637 77.2418 98.0234C76.5161 98.3964 75.7531 98.7107 74.9154 98.9825C74.6993 99.0464 74.4939 99.121 74.2725 99.177C74.0457 99.2302 73.8296 99.2889 73.5975 99.3368C73.136 99.4327 72.6611 99.5393 72.1702 99.5846L71.4259 99.6352L71.0551 99.6618C70.9911 99.6432 70.9324 99.6991 70.8683 99.6938L70.6843 99.6991C70.188 99.7338 69.6918 99.6752 69.2143 99.6565C68.2512 99.6166 67.3468 99.4647 66.5144 99.2675C65.6847 99.0651 64.9164 98.82 64.1827 98.5162C63.4464 98.2205 62.7474 97.8715 62.0591 97.4639C61.7123 97.2721 61.3735 97.035 61.0347 96.8165C60.6959 96.5661 60.3571 96.3396 60.0209 96.0599C59.346 95.543 58.6817 94.8956 58.0174 94.2162L57.5238 93.6648L57.2784 93.3904L57.0356 93.0866L56.5474 92.4819C56.3873 92.2714 56.2299 92.0423 56.0699 91.8238C54.792 90.0574 53.6021 87.8782 52.5163 85.4857C51.4278 83.0986 50.4327 80.5516 49.4136 78.0473C48.9067 76.7951 48.3892 75.5483 47.8476 74.3175L47.6448 73.8565L47.4314 73.3823L47.2527 72.9907L46.8925 72.2261C45.9321 70.2199 44.929 68.4669 43.9285 67.0948C42.9254 65.7175 41.9544 64.753 41.106 64.1856C40.6765 63.8925 40.2709 63.6794 39.8468 63.5062C39.4199 63.3357 38.9664 63.2078 38.4328 63.1199C38.1687 63.0773 37.8859 63.0426 37.5764 63.024C37.4324 63.0053 37.2643 63.0133 37.1042 63.0053L36.9815 63.0027L36.9228 63C36.9095 62.9973 36.8748 62.9973 36.8268 62.9973H0V60.8633H36.8268C36.8721 60.8606 36.9095 60.8633 36.9255 60.8633L36.9975 60.866L37.1442 60.8713C37.3363 60.8793 37.5364 60.8713 37.7152 60.8953C38.0887 60.9166 38.4408 60.9592 38.7796 61.0125C40.1349 61.2416 41.2074 61.6759 42.3145 62.4245C43.4163 63.1678 44.5475 64.3188 45.6546 65.84C46.7618 67.3559 47.8209 69.2209 48.8187 71.3043L49.1922 72.0955L49.3763 72.4978L49.571 72.9268L49.7551 73.3477C50.2486 74.4666 50.7209 75.5963 51.1824 76.7365C52.1108 79.0091 53.0205 81.3189 54.0023 83.4982C54.9787 85.6829 56.0458 87.6917 57.1823 89.3648C57.3264 89.5699 57.4678 89.7857 57.6092 89.9855L58.0441 90.5663L58.2628 90.8567L58.4816 91.1231L58.9218 91.656C59.5167 92.3247 60.109 92.9641 60.7172 93.4969C61.0187 93.782 61.3255 94.0218 61.6296 94.2802C61.9391 94.512 62.2432 94.7597 62.5607 94.9702C63.185 95.4071 63.8226 95.7961 64.5002 96.1345C65.1752 96.4781 65.8875 96.7685 66.6612 97.0136C67.4375 97.2508 68.2859 97.4346 69.1903 97.5039C69.4144 97.5225 69.6438 97.5411 69.8759 97.5571C70.108 97.5811 70.3401 97.5731 70.5749 97.5678C71.0391 97.5198 71.5086 97.5039 71.9728 97.4559C72.4343 97.4026 72.8799 97.2934 73.3094 97.1868C73.5282 97.1335 73.7282 97.0669 73.939 97.0057C74.1471 96.9444 74.3365 96.8618 74.5366 96.7899C75.3156 96.4888 76.0173 96.1345 76.6789 95.7268C77.3458 95.3352 77.9541 94.8716 78.5544 94.3814C79.7415 93.3797 80.854 92.2021 81.8918 90.7315C82.9349 89.2742 83.89 87.5211 84.7411 85.5443C85.5921 83.5648 86.3311 81.3562 86.9927 79.0677C87.6543 76.7765 88.2439 74.408 88.8148 72.0342L89.7993 67.9048L89.978 67.1934C90.1007 66.7219 90.2368 66.253 90.4075 65.7947C90.581 65.3391 90.7837 64.8836 91.0985 64.5079C91.2559 64.3241 91.4507 64.1589 91.6801 64.0763C91.9069 63.9964 92.1763 63.9751 92.3924 64.103C92.6058 64.2228 92.7579 64.428 92.8806 64.6358C93.0033 64.8463 93.0994 65.0727 93.1848 65.3018C93.3502 65.7627 93.4729 66.2343 93.5823 66.7112C93.6943 67.1881 93.7877 67.6676 93.8784 68.1472L95.2043 75.3325C96.1914 80.6609 97.2185 86.1038 98.5845 91.6746C99.2701 94.4587 100.044 97.2801 100.994 100.152C101.951 103.027 103.074 105.957 104.616 108.976C105.003 109.73 105.419 110.492 105.876 111.256C105.99 111.448 106.102 111.64 106.225 111.832L106.431 112.162C106.511 112.29 106.593 112.418 106.679 112.546C107.012 113.057 107.359 113.561 107.716 114.054C109.16 116.017 110.814 117.816 112.684 119.284C114.549 120.76 116.614 121.924 118.799 122.694C120.986 123.469 123.286 123.855 125.578 123.866C126.725 123.866 127.869 123.759 128.992 123.541C130.116 123.317 131.215 122.984 132.271 122.542C134.379 121.652 136.297 120.352 137.959 118.727C138.791 117.917 139.562 117.027 140.277 116.081C140.99 115.13 141.627 114.11 142.23 113.063C142.51 112.527 142.814 112.002 143.071 111.451L143.468 110.628L143.839 109.791C143.962 109.506 144.076 109.242 144.199 108.936L144.485 108.211C144.629 107.822 144.786 107.423 144.919 107.036C146.021 103.922 146.768 100.959 147.395 98.0553C148.014 95.1514 148.492 92.3087 148.905 89.498C149.721 83.8792 150.271 78.3803 150.757 72.9374C151.237 67.4945 151.637 62.1128 152.067 56.7924C152.493 51.4747 152.942 46.213 153.539 41.0871L153.771 39.1742L153.849 38.5614C153.883 38.319 153.918 38.0765 153.958 37.8368C154.038 37.3545 154.131 36.875 154.257 36.4008C154.382 35.9319 154.534 35.463 154.772 35.034C154.892 34.8209 155.036 34.6184 155.22 34.4559C155.401 34.2934 155.631 34.1815 155.876 34.1602C155.996 34.1495 156.124 34.1549 156.234 34.2108C156.346 34.2614 156.444 34.3387 156.527 34.4293C156.695 34.6051 156.818 34.8209 156.93 35.0367C157.146 35.4763 157.301 35.9425 157.442 36.4088C157.584 36.875 157.706 37.3492 157.821 37.8234L157.986 38.5374L158.723 41.841C159.859 47.0255 160.964 52.3166 162.186 57.669C163.413 63.0266 164.731 68.4403 166.435 73.9711C167.295 76.7392 168.25 79.5366 169.437 82.4033C170.026 83.8339 170.685 85.2859 171.44 86.7645C171.816 87.5025 172.227 88.2538 172.665 89.0078L173.001 89.5752L173.359 90.1454C173.473 90.3372 173.604 90.529 173.729 90.7208L173.919 91.0086L174.172 91.3762C175.559 93.3877 177.176 95.242 179.038 96.7685C180.898 98.2978 183.008 99.4967 185.284 100.213C186.418 100.581 187.594 100.813 188.779 100.93C189.077 100.951 189.374 100.989 189.672 100.991L190.569 100.999C191.166 101.007 191.767 100.967 192.364 100.93C194.76 100.759 197.14 100.197 199.375 99.2622C201.619 98.3377 203.697 97.0083 205.538 95.4045C206.005 95.0102 206.437 94.5786 206.874 94.1523C207.077 93.9472 207.261 93.7474 207.44 93.5582C207.619 93.3664 207.803 93.1746 207.963 92.9827C208.294 92.5964 208.63 92.2075 208.926 91.8211C209.078 91.6267 209.233 91.4322 209.38 91.2377L209.801 90.6569C210.916 89.1037 211.81 87.5744 212.589 86.0905C213.368 84.6039 214.032 83.1572 214.633 81.7532C215.833 78.9478 216.788 76.2996 217.714 73.8432C218.175 72.615 218.626 71.4348 219.077 70.3238C219.528 69.2155 219.982 68.1712 220.438 67.244C220.891 66.3196 221.35 65.499 221.78 64.8543L221.937 64.6278L222.014 64.5159L222.092 64.4173L222.239 64.2175L222.38 64.047L222.449 63.9618C222.471 63.9351 222.492 63.9165 222.513 63.8925C222.556 63.8472 222.596 63.7992 222.639 63.7513C222.676 63.714 222.713 63.6794 222.751 63.6421L222.804 63.5834L222.852 63.5461C222.884 63.5195 222.913 63.4875 222.943 63.4609C222.97 63.4449 222.994 63.4263 223.018 63.4049C223.042 63.3783 223.063 63.3703 223.082 63.3597C223.1 63.3517 223.116 63.325 223.132 63.3224C223.188 63.2877 223.215 63.2824 223.236 63.2664C223.242 63.2637 223.25 63.2691 223.255 63.2637C223.26 63.2584 223.266 63.2531 223.279 63.2558C223.287 63.2558 223.298 63.2531 223.306 63.2451C223.319 63.2451 223.338 63.2478 223.351 63.2424C223.372 63.2238 223.436 63.2398 223.479 63.2211C223.503 63.2158 223.546 63.2238 223.575 63.2211C223.591 63.2211 223.607 63.2185 223.623 63.2158L223.644 63.2131H256V65.3498H224.074ZM223.367 63.5994C223.37 63.6048 223.37 63.6074 223.37 63.6101L223.367 63.5994C223.364 63.5914 223.364 63.5888 223.367 63.5994ZM223.714 61.0738H256V58.9371H223.714L223.62 58.9398L223.551 58.9424L223.415 58.9504C223.322 58.9558 223.223 58.9504 223.135 58.9611C222.964 58.9904 222.777 58.9877 222.62 59.0304C222.281 59.073 221.99 59.1822 221.692 59.2781C221.404 59.398 221.121 59.5365 220.835 59.715C220.555 59.9095 220.262 60.1067 219.974 60.3838L219.862 60.4823L219.752 60.5916L219.533 60.8127C219.389 60.9805 219.237 61.1244 219.093 61.3136L218.872 61.58L218.656 61.8704C218.509 62.0542 218.37 62.278 218.223 62.4805C217.655 63.3357 217.111 64.3161 216.596 65.3658C215.561 67.4758 214.643 69.8629 213.709 72.3406C212.776 74.8236 211.837 77.4159 210.7 80.0748C210.132 81.4042 209.513 82.7496 208.803 84.103C208.091 85.4564 207.291 86.8231 206.322 88.1712L205.957 88.6747C205.831 88.8426 205.698 89.0078 205.567 89.1756C205.311 89.5086 205.028 89.8363 204.746 90.164C204.609 90.3292 204.455 90.4891 204.305 90.6516C204.156 90.8114 204.004 90.9766 203.839 91.1444C203.486 91.4828 203.142 91.8318 202.769 92.1462C201.301 93.4356 199.647 94.5146 197.852 95.2686C196.064 96.0332 194.157 96.5021 192.231 96.654C191.751 96.6886 191.27 96.7286 190.787 96.7259H190.064C189.824 96.7286 189.584 96.7019 189.347 96.6886C188.389 96.6087 187.439 96.4222 186.524 96.1238C184.691 95.535 183.011 94.5333 181.538 93.2811C180.063 92.029 178.782 90.5343 177.675 88.9252L177.472 88.6268L177.304 88.3737C177.195 88.2058 177.08 88.0353 176.976 87.8675C176.763 87.5265 176.557 87.1881 176.36 86.8498C175.968 86.1731 175.594 85.4964 175.25 84.8197C174.559 83.4663 173.945 82.1155 173.391 80.7674C172.273 78.0713 171.355 75.3858 170.525 72.7083C168.871 67.3533 167.572 62.0222 166.358 56.7205C165.147 51.4161 164.045 46.141 162.901 40.9246L162.103 37.3412C161.943 36.6272 161.775 35.9132 161.604 35.2019C161.26 33.7765 160.894 32.3565 160.473 30.9525C160.046 29.5511 159.576 28.1578 158.928 26.8417C158.597 26.1889 158.227 25.5469 157.72 25.0114C157.469 24.7476 157.178 24.5105 156.845 24.3586C156.511 24.1961 156.132 24.1695 155.769 24.2095C155.036 24.2734 154.342 24.6117 153.798 25.0993C153.248 25.5868 152.816 26.1916 152.459 26.831C151.746 28.1151 151.29 29.5192 150.909 30.9339C150.535 32.3512 150.255 33.7899 150.015 35.2365C149.895 35.9585 149.786 36.6832 149.687 37.4105L149.527 38.6387L149.289 40.5915C148.684 45.8107 148.233 51.1151 147.801 56.4488C147.374 61.7851 146.971 67.1561 146.493 72.5591C146.013 77.9621 145.469 83.3943 144.671 88.8799C144.268 91.624 143.804 94.3814 143.209 97.1602C142.614 99.9416 141.899 102.747 140.888 105.603C140.766 105.96 140.624 106.32 140.493 106.677L140.251 107.289C140.155 107.529 140.064 107.745 139.965 107.971C139.586 108.872 139.152 109.743 138.698 110.604C138.228 111.451 137.73 112.277 137.175 113.06C136.617 113.838 136.014 114.573 135.363 115.255C134.059 116.619 132.538 117.744 130.831 118.508C129.977 118.887 129.08 119.169 128.163 119.35C127.245 119.529 126.309 119.603 125.372 119.59C123.502 119.555 121.632 119.204 119.871 118.53C118.11 117.858 116.467 116.867 114.992 115.644C113.511 114.424 112.206 112.961 111.062 111.382C110.776 110.987 110.502 110.582 110.235 110.175L110.037 109.868L109.864 109.589C109.757 109.418 109.656 109.248 109.555 109.077C109.149 108.395 108.773 107.71 108.423 107.026C107.02 104.284 105.964 101.54 105.054 98.812C104.152 96.0812 103.405 93.3637 102.738 90.6542C101.41 85.2406 100.393 79.8696 99.4115 74.5599L98.0242 67.0442C97.7494 65.6056 97.464 64.1669 97.1358 62.7389C96.805 61.3109 96.4369 59.8909 95.938 58.5108C95.6845 57.8235 95.3964 57.1468 95.0282 56.5127C94.6574 55.8866 94.2039 55.2739 93.5583 54.9115C93.2381 54.7304 92.8726 54.6344 92.5045 54.6398C92.139 54.6424 91.7735 54.7117 91.4293 54.8369C91.0825 54.9595 90.7597 55.146 90.4716 55.3698C90.1808 55.5936 89.914 55.8493 89.6792 56.1291C89.199 56.6832 88.8229 57.3199 88.484 57.97C88.1479 58.6201 87.8678 59.2994 87.609 59.9841C87.0968 61.3589 86.6913 62.7682 86.3178 64.1856C86.131 64.8942 85.9523 65.6056 85.7789 66.3169L84.8158 70.3531C84.3622 72.2527 83.8954 74.1496 83.3858 76.0039C82.8736 77.8528 82.316 79.6591 81.6811 81.3349C81.0488 83.008 80.3471 84.5532 79.5761 85.9306C78.8051 87.3107 77.9701 88.5229 77.0444 89.6152C76.5775 90.1534 76.0973 90.6729 75.5557 91.1365C75.0195 91.608 74.4379 92.0369 73.7816 92.4019C73.1253 92.7696 72.3783 93.052 71.5726 93.1932C71.1725 93.2545 70.7589 93.2785 70.3534 93.2971C70.148 93.2971 69.9426 93.2998 69.7425 93.2705C69.5397 93.2492 69.3397 93.2278 69.1422 93.1905C68.3499 93.0733 67.6162 92.8202 66.9546 92.5005C66.2903 92.1755 65.6927 91.7945 65.1352 91.3656C64.5749 90.942 64.0574 90.4757 63.5585 89.9749C63.305 89.7324 63.0649 89.4607 62.8195 89.2022C62.582 88.9252 62.3419 88.6614 62.1098 88.3684C61.6376 87.8062 61.1841 87.1775 60.7306 86.5354C60.5091 86.1944 60.2824 85.88 60.0636 85.5177L59.7355 84.9902L59.4127 84.4387C58.5483 82.9601 57.7346 81.287 56.9689 79.5206C56.2006 77.7542 55.4723 75.9186 54.7226 74.107C54.3464 73.1985 53.9649 72.298 53.5701 71.4028C53.4687 71.1764 53.3753 70.9606 53.266 70.7261L53.0712 70.2999L52.6737 69.4553C51.6012 67.2227 50.4327 65.1367 49.1148 63.3277C47.7969 61.5187 46.3403 59.9921 44.7396 58.9051C43.1389 57.8102 41.4074 57.1148 39.4733 56.7978C38.9904 56.7205 38.4968 56.6619 37.99 56.6299C37.7418 56.6033 37.4831 56.6086 37.227 56.6006L36.8241 56.59H0V58.7266H36.8268C36.8721 58.7266 36.9095 58.7266 36.9308 58.7266L37.0162 58.7293L37.1843 58.7346C37.411 58.7426 37.6378 58.7373 37.8539 58.7613C38.2941 58.7879 38.7156 58.8385 39.1264 58.9051C40.7698 59.1769 42.1731 59.7444 43.5284 60.6662C44.8783 61.58 46.1722 62.9174 47.3861 64.5825C48.5973 66.2476 49.7124 68.2218 50.7449 70.3798L51.1317 71.1977L51.3211 71.6106C51.4465 71.8797 51.5505 72.1195 51.6626 72.3753C52.1081 73.3823 52.535 74.3974 52.9538 75.4204C53.7915 77.4639 54.6106 79.5366 55.4856 81.5107C56.358 83.4849 57.2971 85.3259 58.2975 86.9004C58.4229 87.0949 58.5456 87.2974 58.6737 87.4892L59.0552 88.0433L59.2472 88.3177L59.4393 88.5788L59.8288 89.0957C60.3517 89.7511 60.8746 90.3852 61.4135 90.934C61.6803 91.2217 61.9551 91.4721 62.2246 91.7412C62.502 91.9863 62.7741 92.2448 63.0596 92.4712C63.6225 92.9428 64.1988 93.369 64.8177 93.75C65.434 94.1363 66.0902 94.472 66.8079 94.7571C67.5255 95.0342 68.3179 95.2553 69.1663 95.3485C69.377 95.3752 69.5931 95.3965 69.8092 95.4125C70.0253 95.4391 70.2441 95.4338 70.4628 95.4338C70.9003 95.3991 71.3405 95.3778 71.7727 95.3245C72.2049 95.2686 72.6211 95.1514 73.0213 95.0341C73.224 94.9755 73.4108 94.9009 73.6055 94.8343C73.8003 94.7651 73.9737 94.6745 74.1604 94.5972C74.8781 94.2615 75.5184 93.8699 76.1186 93.433C76.7216 93.004 77.2658 92.5112 77.802 91.997C78.8558 90.9526 79.8296 89.7564 80.7366 88.3311C81.641 86.9137 82.4707 85.2646 83.2124 83.4396C83.9541 81.612 84.6023 79.6059 85.1893 77.5358C85.7762 75.463 86.3018 73.329 86.8166 71.195L87.7904 67.1108C87.9051 66.6366 88.0225 66.1624 88.1479 65.6908C88.396 64.745 88.6681 63.8046 89.0096 62.8881C89.3538 61.9796 89.7593 61.0711 90.3889 60.3198C90.5463 60.1307 90.7224 59.9602 90.9171 59.8136C91.1092 59.6618 91.3253 59.5392 91.5547 59.4566C92.0082 59.2968 92.5445 59.2515 92.9767 59.5072C93.4062 59.7497 93.7076 60.1573 93.9558 60.5729C94.2012 60.9965 94.3933 61.4494 94.5614 61.9077C94.8948 62.8268 95.1403 63.7753 95.359 64.7264C95.5805 65.6775 95.7699 66.6366 95.9513 67.5957L97.3092 74.9462C98.291 80.2666 99.3128 85.6749 100.66 91.1658C101.338 93.9125 102.098 96.6806 103.026 99.4833C103.957 102.283 105.046 105.121 106.521 108.001C106.889 108.723 107.287 109.445 107.716 110.167C107.826 110.348 107.933 110.529 108.047 110.71L108.237 111.017L108.458 111.36C108.76 111.821 109.069 112.274 109.392 112.719C110.686 114.491 112.164 116.121 113.839 117.467C115.509 118.812 117.363 119.891 119.338 120.613C121.312 121.338 123.395 121.708 125.479 121.729C126.519 121.735 127.56 121.644 128.579 121.447C129.598 121.244 130.598 120.935 131.551 120.525C133.458 119.699 135.182 118.487 136.662 116.992C137.404 116.246 138.09 115.434 138.727 114.571C139.36 113.705 139.931 112.78 140.467 111.835C140.982 110.873 141.473 109.895 141.905 108.883C142.014 108.627 142.115 108.387 142.225 108.113L142.492 107.447C142.628 107.071 142.777 106.693 142.905 106.322C143.964 103.336 144.693 100.453 145.304 97.6078C145.912 94.7651 146.384 91.9677 146.79 89.1889C147.598 83.6394 148.145 78.1725 148.628 72.7482C149.105 67.3266 149.508 61.9503 149.935 56.6219C150.364 51.2962 150.815 46.0105 151.416 40.8393L151.65 38.9078L151.77 37.986C151.837 37.5011 151.909 37.0189 151.989 36.5366C152.149 35.5722 152.333 34.6131 152.584 33.6673C152.838 32.7269 153.144 31.7891 153.619 30.9312C153.857 30.5076 154.145 30.1026 154.51 29.7776C154.873 29.4526 155.335 29.2261 155.825 29.1835C156.068 29.1595 156.322 29.1755 156.54 29.2847C156.765 29.386 156.959 29.5431 157.127 29.719C157.464 30.076 157.712 30.5049 157.93 30.9392C158.363 31.8157 158.675 32.7482 158.96 33.6806C159.24 34.6184 159.486 35.5642 159.715 36.5127L160.049 37.9407L160.814 41.3855C161.954 46.5833 163.058 51.869 164.275 57.1947C165.496 62.5258 166.804 67.8968 168.482 73.3397C169.327 76.0625 170.264 78.8039 171.414 81.5853C171.99 82.9761 172.625 84.3774 173.348 85.7921C173.708 86.5008 174.1 87.2148 174.514 87.9288L174.834 88.4669L175.17 89.0078C175.279 89.1863 175.402 89.3674 175.519 89.5486L175.698 89.8203L175.925 90.1534C177.174 91.9623 178.622 93.6381 180.292 95.0262C181.957 96.4169 183.851 97.5172 185.905 98.1699C186.93 98.5029 187.994 98.7134 189.067 98.812C189.333 98.828 189.603 98.8599 189.872 98.8599L190.681 98.8626C191.22 98.8706 191.761 98.828 192.3 98.7933C194.461 98.6308 196.606 98.1166 198.618 97.2667C200.637 96.4275 202.502 95.2233 204.156 93.7767C204.577 93.4223 204.964 93.0307 205.359 92.6497C205.543 92.4632 205.711 92.2794 205.877 92.1062C206.039 91.9277 206.208 91.7519 206.357 91.5734C206.664 91.219 206.973 90.8594 207.251 90.497C207.389 90.3186 207.536 90.1374 207.67 89.9562L208.064 89.4127C209.107 87.9634 209.953 86.5168 210.697 85.0967C211.444 83.6767 212.085 82.2807 212.669 80.914C213.838 78.1832 214.785 75.5616 215.716 73.0919C216.641 70.6275 217.546 68.2911 218.52 66.3062C219.005 65.3178 219.507 64.4173 220.006 63.6687L220.192 63.3996L220.283 63.2664L220.376 63.1439L220.558 62.8988L220.739 62.6803C220.857 62.5231 220.977 62.4192 221.089 62.2833L221.254 62.1181L221.337 62.0329L221.417 61.9663C221.625 61.7611 221.817 61.6439 221.985 61.5187C222.159 61.4121 222.313 61.3402 222.468 61.2736C222.505 61.2576 222.548 61.2523 222.588 61.2336C222.628 61.2176 222.665 61.2017 222.713 61.1963C222.756 61.1883 222.799 61.175 222.841 61.159C222.889 61.151 222.94 61.1484 222.988 61.1377C223.079 61.1058 223.202 61.1164 223.311 61.0924L223.714 61.0738ZM223.714 56.8031H256V54.6664H223.714C222.476 54.6638 221.273 54.8689 220.15 55.2952C219.592 55.5163 219.053 55.788 218.541 56.1104C218.037 56.4461 217.54 56.8031 217.092 57.2267L216.919 57.3812L216.756 57.5464L216.425 57.8768C216.22 58.1112 216.001 58.3323 215.806 58.5801C215.396 59.0597 215.03 59.5818 214.667 60.1067C213.958 61.1724 213.331 62.3126 212.754 63.4875C211.602 65.8427 210.652 68.331 209.708 70.838C208.763 73.345 207.84 75.8867 206.768 78.3936C206.232 79.6485 205.655 80.8953 205.015 82.1182C204.375 83.341 203.665 84.5426 202.843 85.6829L202.534 86.1118L202.208 86.5301C201.995 86.8098 201.76 87.0789 201.528 87.348C201.299 87.6197 201.048 87.8728 200.8 88.1366C200.533 88.387 200.282 88.6561 199.999 88.8905C198.903 89.863 197.673 90.6915 196.329 91.275C194.989 91.8691 193.554 92.2448 192.097 92.3806C191.735 92.4099 191.369 92.4526 191.004 92.4526C190.641 92.4632 190.273 92.4739 189.91 92.4499C189.181 92.4073 188.456 92.2661 187.765 92.0369C186.375 91.576 185.121 90.7688 184.035 89.7937C182.947 88.8159 182.005 87.6783 181.178 86.4715C179.58 84.135 178.395 81.6573 177.339 79.1316C176.293 76.606 175.413 74.0324 174.61 71.4455C173.012 66.2663 171.728 61.0178 170.525 55.7694C169.327 50.5156 168.228 45.2539 167.078 40.0107L166.217 36.1477C165.947 34.9541 165.67 33.7659 165.384 32.5777C164.808 30.2039 164.2 27.8381 163.498 25.4989C162.786 23.1624 162.007 20.8366 160.924 18.644C160.374 17.557 159.753 16.486 158.912 15.5961C158.493 15.1539 158.01 14.7596 157.453 14.5065C157.175 14.3786 156.879 14.2907 156.575 14.2561C156.271 14.2161 155.964 14.2321 155.66 14.2561C155.049 14.3147 154.452 14.4772 153.897 14.7329C153.342 14.9887 152.832 15.3351 152.373 15.74C151.458 16.5526 150.741 17.5623 150.143 18.6253C149.545 19.691 149.063 20.8179 148.646 21.9662C148.225 23.1118 147.875 24.284 147.561 25.4643C146.934 27.8274 146.469 30.2278 146.069 32.6363C145.869 33.8405 145.69 35.05 145.525 36.2596L145.282 38.1032L145.039 40.096C144.423 45.4084 143.97 50.7554 143.537 56.1051C143.108 61.4574 142.708 66.8204 142.233 72.1834C141.755 77.5464 141.216 82.9121 140.437 88.2645C140.045 90.9393 139.594 93.6088 139.026 96.2703C138.458 98.9265 137.78 101.575 136.857 104.172C136.745 104.497 136.617 104.82 136.5 105.145C136.374 105.454 136.236 105.821 136.092 106.149C135.811 106.826 135.497 107.489 135.166 108.142C134.827 108.789 134.467 109.426 134.069 110.039C133.669 110.646 133.237 111.232 132.767 111.784C131.823 112.884 130.695 113.838 129.387 114.472C128.736 114.789 128.045 115.021 127.333 115.162C126.621 115.301 125.892 115.343 125.167 115.314C123.718 115.258 122.277 114.941 120.944 114.365C119.607 113.793 118.385 112.972 117.297 112.002C115.125 110.068 113.458 107.471 112.228 105.075C110.966 102.611 109.973 100.053 109.114 97.4666C108.258 94.8796 107.538 92.2634 106.889 89.6339C105.601 84.3747 104.595 79.0757 103.619 73.7873L102.167 65.9413C101.711 63.5435 101.236 61.1457 100.689 58.7666C100.137 56.3875 99.5235 54.0164 98.6912 51.7198C98.2697 50.5742 97.7894 49.4446 97.1785 48.3869C96.869 47.8594 96.5249 47.3532 96.1247 46.8897C95.7245 46.4314 95.2657 46.0131 94.7294 45.7174C94.46 45.5709 94.1772 45.451 93.8811 45.3737C93.5823 45.3018 93.2781 45.2645 92.9713 45.2672C92.3604 45.2725 91.7521 45.3871 91.1786 45.5949C91.0372 45.6535 90.8878 45.6961 90.7544 45.768L90.3435 45.9732C90.0847 46.133 89.8206 46.2902 89.5832 46.482C89.0976 46.8524 88.6548 47.2786 88.2626 47.7475C88.0572 47.974 87.8811 48.2271 87.6917 48.4669C87.521 48.7173 87.3369 48.9624 87.1768 49.2235L86.934 49.6125L86.7073 50.0094C86.5499 50.2732 86.4138 50.5449 86.2697 50.814C85.7095 51.901 85.24 53.0306 84.8131 54.1735C83.9594 56.4647 83.2818 58.8146 82.6575 61.175C82.3454 62.3579 82.0519 63.5408 81.7638 64.729L80.822 68.672C80.1444 71.5227 79.4534 74.3787 78.6264 77.1228C78.2129 78.4949 77.7647 79.835 77.2631 81.1271C76.7616 82.4192 76.2013 83.6661 75.5397 84.8463C74.8727 86.0186 74.0964 87.1508 73.0266 88.0167C72.493 88.443 71.8661 88.7786 71.1805 88.9305C70.4948 89.0797 69.7745 89.0557 69.0996 88.8799C68.4219 88.7094 67.8003 88.387 67.2481 87.9847C66.6985 87.5824 66.213 87.1055 65.7728 86.5967C65.3299 86.0878 64.9324 85.5443 64.5589 84.9795C64.1854 84.4174 63.8386 83.8366 63.5051 83.2398C62.1792 80.8607 61.056 78.2471 59.9409 75.543C59.386 74.1922 58.8337 72.8282 58.2628 71.4774C57.98 70.8007 57.6866 70.1267 57.3878 69.458L57.161 68.9571L56.9529 68.5042L56.5314 67.6064C55.3869 65.2219 54.1037 62.9174 52.575 60.8154C51.0463 58.7186 49.2642 56.8191 47.1646 55.3884C45.0731 53.9471 42.68 52.988 40.1696 52.583C39.54 52.4818 38.9077 52.4072 38.2701 52.3699C37.9526 52.3379 37.6298 52.3379 37.3097 52.3299L36.8268 52.3193H0V54.4559H36.8268L37.267 54.4639C37.5551 54.4746 37.8459 54.4719 38.1313 54.5012C38.7023 54.5332 39.2652 54.5998 39.8201 54.6904C42.0451 55.0501 44.1073 55.8786 45.9508 57.1468C47.8022 58.4069 49.4216 60.12 50.8462 62.0702C52.2682 64.0284 53.4954 66.2237 54.6026 68.5308L55.0134 69.402L55.2135 69.8416C55.3095 70.0441 55.3922 70.2333 55.4803 70.4304C55.8271 71.2137 56.1632 71.9996 56.494 72.7935C57.153 74.3734 57.7933 75.9746 58.4549 77.5305C59.1165 79.0917 59.8048 80.5916 60.5278 81.9743C61.2535 83.365 62.0058 84.6385 62.8088 85.8027C63.209 86.3889 63.6225 86.9484 64.06 87.4759C64.4949 88.0087 64.9511 88.5149 65.4553 88.9811C65.9542 89.45 66.4958 89.879 67.1013 90.2413C67.7069 90.6036 68.3873 90.8913 69.1209 91.0352C69.2143 91.0539 69.305 91.0752 69.3957 91.0885L69.6785 91.1258C69.8652 91.1578 70.0546 91.1578 70.2441 91.1631C70.6229 91.1578 71.0071 91.1311 71.3779 91.0619C72.1222 90.9153 72.8105 90.6063 73.4028 90.2093C74.0004 89.8123 74.5206 89.3461 74.9955 88.8399C75.473 88.3417 75.8892 87.7929 76.292 87.2308C77.0871 86.0931 77.7834 84.865 78.4183 83.5275C79.0559 82.1928 79.6295 80.7514 80.1551 79.2275C81.2035 76.177 82.0252 72.8308 82.8202 69.5139L83.7726 65.523C84.0021 64.5719 84.2395 63.6234 84.4876 62.6803C84.9865 60.7914 85.5281 58.9105 86.211 57.0775C86.5552 56.1637 86.9314 55.2605 87.3796 54.392C87.8278 53.5261 88.3293 52.6789 88.9723 51.9383C89.2844 51.5626 89.6392 51.2216 90.026 50.9259C90.2181 50.7714 90.4289 50.6462 90.637 50.5183L90.9651 50.3531C91.0718 50.2945 91.1919 50.2599 91.3039 50.2146C91.7628 50.0494 92.251 49.9561 92.7392 49.9535C92.9847 49.9508 93.2274 49.9801 93.4649 50.0387C93.7023 50.1 93.9291 50.1959 94.1452 50.3131C95.0042 50.798 95.6098 51.6133 96.1034 52.4472C96.5943 53.2944 96.9784 54.1975 97.3146 55.114C97.9815 56.9523 98.4724 58.8492 98.9126 60.7514C99.3501 62.6563 99.7316 64.5745 100.097 66.4927L101.514 74.1709C102.493 79.47 103.504 84.8064 104.814 90.1427C105.473 92.8122 106.206 95.4791 107.087 98.1379C107.97 100.797 108.994 103.448 110.326 106.051C110.656 106.701 111.014 107.345 111.395 107.985C111.75 108.587 112.244 109.367 112.737 110.047C113.732 111.432 114.861 112.727 116.144 113.822C117.427 114.917 118.86 115.825 120.41 116.446C121.955 117.072 123.611 117.405 125.271 117.451C126.1 117.472 126.933 117.413 127.749 117.256C128.563 117.096 129.358 116.838 130.11 116.489C131.615 115.791 132.941 114.752 134.064 113.518C134.627 112.903 135.144 112.239 135.622 111.547C136.1 110.851 136.529 110.119 136.935 109.373C137.324 108.616 137.698 107.849 138.031 107.06C138.116 106.863 138.194 106.671 138.276 106.464L138.495 105.909C138.621 105.568 138.757 105.23 138.874 104.889C139.84 102.161 140.536 99.4354 141.118 96.7153C141.699 93.9951 142.158 91.2803 142.556 88.5708C143.343 83.1546 143.884 77.7542 144.364 72.3726C144.839 66.9883 145.24 61.6226 145.669 56.2782C146.101 50.9339 146.552 45.6109 147.166 40.3438L147.403 38.3723L147.606 36.835C147.739 35.8679 147.881 34.9008 148.041 33.9364C148.361 32.0102 148.734 30.0893 149.236 28.1977C149.487 27.2546 149.764 26.3168 150.103 25.4003C150.436 24.4812 150.823 23.5807 151.301 22.7282C151.778 21.8783 152.352 21.0684 153.086 20.4183C153.814 19.7683 154.734 19.318 155.713 19.2328C155.956 19.2141 156.202 19.2008 156.444 19.2328C156.69 19.2594 156.927 19.3313 157.149 19.4326C157.594 19.635 157.981 19.9494 158.315 20.3038C158.99 21.0178 159.486 21.873 159.923 22.7442C160.79 24.4972 161.415 26.3568 161.983 28.2244C162.546 30.0973 163.034 31.9915 163.493 33.8884C163.722 34.8396 163.944 35.7907 164.16 36.7444L164.99 40.4663C166.134 45.6961 167.236 50.9659 168.442 56.2436C169.65 61.5214 170.941 66.8071 172.566 72.0769C173.383 74.7091 174.284 77.3386 175.365 79.9495C175.904 81.255 176.493 82.5551 177.152 83.8446C177.48 84.4893 177.835 85.1314 178.206 85.7708C178.393 86.0905 178.585 86.4075 178.785 86.7246C178.881 86.8844 178.988 87.0416 179.092 87.1988L179.246 87.4359L179.425 87.697C180.394 89.1063 181.503 90.4224 182.787 91.5387C184.065 92.6524 185.532 93.5555 187.143 94.0804C187.946 94.3441 188.784 94.5093 189.627 94.5679C189.838 94.5786 190.048 94.5999 190.259 94.5946L190.894 94.5892C191.318 94.5892 191.74 94.5466 192.164 94.5173C193.855 94.3734 195.526 93.9498 197.089 93.2731C198.66 92.6044 200.101 91.648 201.384 90.5184C201.712 90.2439 202.008 89.9349 202.318 89.6392C202.603 89.3381 202.881 89.0557 203.137 88.7573C203.393 88.4589 203.654 88.1606 203.887 87.8515C204.007 87.6996 204.129 87.5478 204.244 87.3933L204.583 86.927C205.477 85.6829 206.232 84.3987 206.907 83.1093C207.584 81.8225 208.179 80.525 208.734 79.2329C209.838 76.6513 210.77 74.083 211.709 71.5867C212.648 69.0956 213.581 66.6579 214.675 64.4253C215.222 63.3144 215.806 62.254 216.444 61.2922C216.609 61.0631 216.764 60.8154 216.938 60.5969L217.188 60.2639L217.447 59.9468C217.618 59.7284 217.805 59.5445 217.978 59.3421L218.253 59.0703L218.392 58.9318L218.533 58.8066C218.901 58.4549 219.296 58.1778 219.688 57.9114C220.088 57.661 220.499 57.4585 220.921 57.288C221.353 57.1361 221.785 56.9923 222.255 56.9256C222.481 56.8724 222.727 56.8644 222.964 56.8324C223.084 56.8191 223.21 56.8217 223.332 56.8138L223.516 56.8058L223.607 56.8031H223.714ZM223.714 52.5297H256V50.3957H223.714C222.054 50.3877 220.264 50.6755 218.608 51.3122C217.781 51.6372 216.986 52.0395 216.247 52.5058C215.518 52.9827 214.819 53.4995 214.211 54.0696L213.976 54.2801L213.755 54.4986L213.32 54.9382C213.051 55.2419 212.762 55.5376 212.517 55.8493L212.138 56.3129L211.783 56.7818C211.541 57.0962 211.335 57.4159 211.111 57.7329C210.26 59.0117 209.55 60.3118 208.91 61.6093C207.64 64.2095 206.658 66.8018 205.701 69.3354C204.748 71.8691 203.844 74.3574 202.833 76.7179C202.329 77.8954 201.8 79.0411 201.227 80.1334C200.656 81.2257 200.039 82.262 199.365 83.1998L199.111 83.5515L198.85 83.8872C198.676 84.1137 198.492 84.3215 198.311 84.5346C198.132 84.7451 197.935 84.9396 197.761 85.1287L197.497 85.3845C197.412 85.4724 197.324 85.555 197.228 85.6322C196.499 86.285 195.68 86.8391 194.784 87.2334C193.893 87.633 192.935 87.8888 191.961 87.9874C191.719 88.006 191.476 88.038 191.23 88.038C190.985 88.046 190.739 88.0566 190.497 88.0433C190.008 88.0193 189.523 87.9261 189.059 87.7689C188.128 87.4599 187.295 86.9084 186.575 86.2503C185.855 85.587 185.23 84.8277 184.681 84.0204L184.574 83.8659L184.454 83.6821C184.371 83.5568 184.291 83.437 184.211 83.3091C184.054 83.0586 183.896 82.8002 183.744 82.5391C183.443 82.0169 183.147 81.4814 182.864 80.93C182.304 79.8243 181.778 78.6787 181.293 77.4985C180.316 75.1433 179.471 72.6816 178.697 70.1853C177.152 65.1793 175.888 60.0188 174.698 54.8209C173.511 49.6178 172.411 44.3693 171.256 39.0969L170.331 34.9541C169.952 33.2863 169.56 31.6212 169.143 29.9721C168.314 26.6765 167.388 23.4262 166.273 20.4956C165.715 19.0329 165.115 17.6582 164.467 16.3741C163.813 15.0953 163.125 13.8991 162.348 12.7987C161.569 11.7011 160.724 10.6674 159.643 9.82552C159.104 9.40458 158.496 9.03692 157.805 8.7998C157.632 8.73853 157.453 8.69324 157.274 8.64795C157.09 8.61598 156.909 8.58134 156.722 8.56536C156.348 8.52273 155.97 8.53871 155.596 8.56536C154.094 8.66659 152.669 9.22874 151.506 10.036C150.335 10.8459 149.377 11.861 148.545 12.9639C147.713 14.0722 146.992 15.2711 146.347 16.5552C145.698 17.8314 145.13 19.2061 144.61 20.6474C143.572 23.5327 142.79 26.7564 142.177 30.076C141.87 31.7358 141.603 33.4222 141.366 35.1113L141.192 36.3821L141.038 37.5703L140.792 39.6005C140.163 45.0087 139.706 50.3957 139.274 55.7641C138.842 61.1324 138.442 66.4847 137.972 71.8078C137.5 77.1282 136.964 82.4272 136.206 87.6464C135.825 90.2546 135.385 92.8415 134.843 95.3778C134.301 97.9115 133.658 100.4 132.826 102.742C132.727 103.035 132.613 103.32 132.506 103.61L132.354 103.991C132.314 104.098 132.266 104.218 132.218 104.327C132.031 104.78 131.823 105.222 131.607 105.659C131.164 106.53 130.654 107.372 130.03 108.126C129.409 108.877 128.662 109.538 127.784 109.978C126.912 110.42 125.916 110.601 124.94 110.545C123.964 110.5 122.992 110.276 122.101 109.876C121.205 109.477 120.391 108.912 119.674 108.251C118.951 107.593 118.324 106.836 117.761 106.037C117.47 105.624 117.243 105.27 116.912 104.716C116.606 104.202 116.312 103.669 116.032 103.123C114.914 100.938 113.986 98.5642 113.178 96.1238C112.366 93.6807 111.673 91.1631 111.046 88.6135C109.792 83.5089 108.797 78.2818 107.826 73.012L107.098 69.0477L106.313 64.8383C105.67 61.4841 104.987 58.1139 104.12 54.9275C103.688 53.337 103.208 51.8024 102.669 50.3611C102.133 48.9144 101.54 47.569 100.887 46.3089C100.225 45.054 99.5049 43.8818 98.6512 42.8161C98.219 42.2886 97.7521 41.7851 97.2265 41.3295C96.6983 40.8793 96.106 40.4716 95.4311 40.1812C95.0949 40.0374 94.7401 39.9175 94.3719 39.8402C94.0038 39.763 93.625 39.7283 93.2488 39.723C92.4911 39.723 91.7388 39.8322 91.0265 40.0241C90.8504 40.0827 90.6663 40.1226 90.4983 40.1919L89.9834 40.3917C89.6579 40.5489 89.3271 40.7034 89.0229 40.8899C88.404 41.2576 87.8331 41.6785 87.3155 42.1501C87.0434 42.3765 86.806 42.6323 86.5552 42.8747C86.3204 43.1332 86.075 43.3836 85.8536 43.6527L85.5174 44.055C85.408 44.1935 85.3013 44.3347 85.1946 44.4732C84.9758 44.7503 84.7784 45.0434 84.573 45.3338C83.7646 46.498 83.047 47.7742 82.38 49.1302C81.0488 51.8397 79.963 54.9542 79.0426 58.2045C78.5784 59.8269 78.1542 61.4814 77.7487 63.1412L76.8256 66.9909C76.3721 68.8932 75.9212 70.7927 75.3983 72.6763C75.1369 73.6194 74.8567 74.5546 74.5419 75.479C74.2271 76.4035 73.8696 77.3147 73.4348 78.1912C72.9973 79.0624 72.4797 79.9149 71.746 80.565C71.3779 80.8873 70.9457 81.1431 70.4682 81.255C69.9906 81.3669 69.4864 81.3402 69.0169 81.207C68.5473 81.0765 68.1125 80.8287 67.7336 80.5197C67.3548 80.2133 67.0213 79.8483 66.7225 79.4647C66.4211 79.081 66.1543 78.6681 65.9062 78.2471C65.6581 77.8288 65.4286 77.3946 65.2125 76.9577C64.3455 75.2046 63.6412 73.3797 62.9049 71.568C62.542 70.6622 62.1712 69.7564 61.7897 68.8585C61.5976 68.4083 61.4029 67.9607 61.2028 67.5131L60.8346 66.7085L60.3864 65.7548C59.1699 63.2211 57.7746 60.6955 56.0352 58.3004C54.2984 55.9159 52.1882 53.6434 49.587 51.8664C48.2931 50.9765 46.8898 50.2172 45.4172 49.6284C43.9446 49.037 42.4079 48.6187 40.8632 48.3656C40.0922 48.2404 39.3159 48.1498 38.5449 48.1045C38.158 48.0699 37.7765 48.0672 37.3924 48.0566L36.8268 48.0459H0V50.1799H36.8268L37.3497 50.1906C37.7018 50.2012 38.054 50.2012 38.4061 50.2359C39.1104 50.2785 39.8148 50.3584 40.5137 50.473C41.9143 50.7021 43.2963 51.0804 44.6195 51.6106C45.9428 52.1408 47.2046 52.8228 48.3758 53.6247C50.7262 55.2286 52.671 57.3173 54.3038 59.5579C55.9391 61.8064 57.2757 64.2202 58.4576 66.6792L58.8951 67.6037L59.2953 68.4855C59.546 69.0424 59.7888 69.6018 60.0289 70.164C60.5065 71.2883 60.9653 72.4205 61.4242 73.5528C62.3419 75.8174 63.2223 78.0979 64.3055 80.2906C64.5776 80.8367 64.863 81.3775 65.1752 81.9024C65.4846 82.4299 65.8181 82.9414 66.1943 83.4236C66.5704 83.9058 66.984 84.3588 67.4588 84.7424C67.9337 85.126 68.4753 85.4351 69.0649 85.6029C69.6518 85.7681 70.2814 85.8028 70.8763 85.6616C71.4739 85.5204 72.0155 85.2006 72.4744 84.801C73.3921 83.9858 74.0404 82.9201 74.5873 81.8331C75.1289 80.7381 75.5744 79.5979 75.9692 78.4416C76.3641 77.2854 76.7136 76.1158 77.0417 74.9382C77.6926 72.5857 78.2582 70.2066 78.8238 67.8302L79.7549 63.9351C80.1017 62.5098 80.4592 61.0898 80.8434 59.6831C81.6064 56.867 82.4654 54.1069 83.5352 51.5227C84.0714 50.2332 84.6557 48.9784 85.336 47.7955C85.5094 47.4998 85.6775 47.2014 85.8642 46.9163C85.9549 46.7751 86.043 46.6286 86.139 46.4874L86.4298 46.0691C86.6192 45.7867 86.8353 45.5229 87.0381 45.2512C87.2622 44.9954 87.4703 44.7263 87.7104 44.4839C88.1719 43.983 88.6868 43.5301 89.247 43.1358C89.5245 42.9333 89.826 42.7682 90.1274 42.595L90.597 42.3792C90.7544 42.3046 90.9224 42.2593 91.0852 42.198C91.7441 41.9822 92.4431 41.8597 93.1421 41.857C93.4942 41.857 93.8437 41.8943 94.1825 41.9742C94.524 42.0568 94.8495 42.1847 95.159 42.3392C95.7779 42.6536 96.3088 43.0959 96.781 43.5807C97.2479 44.0736 97.6587 44.6118 98.0269 45.1739C98.7632 46.3062 99.3528 47.5237 99.8837 48.7812C100.932 51.3042 101.732 54.0137 102.426 56.8217C103.117 59.6298 103.693 62.5124 104.24 65.3898L104.995 69.434L105.724 73.3983C106.697 78.6761 107.698 83.9405 108.968 89.1223C109.608 91.7119 110.312 94.2802 111.147 96.7952C111.982 99.3075 112.94 101.775 114.13 104.098C114.722 105.254 115.4 106.4 116.085 107.375C116.787 108.371 117.571 109.317 118.476 110.143C119.375 110.969 120.391 111.675 121.512 112.173C122.627 112.674 123.838 112.953 125.06 113.009C126.279 113.079 127.522 112.855 128.616 112.301C129.713 111.752 130.646 110.926 131.425 109.986C131.812 109.514 132.167 109.013 132.495 108.499C132.821 107.982 133.114 107.447 133.394 106.903C133.664 106.354 133.925 105.803 134.157 105.238C134.28 104.95 134.381 104.689 134.504 104.375C134.619 104.068 134.739 103.765 134.846 103.456C135.721 100.986 136.382 98.4177 136.937 95.8227C137.492 93.2252 137.938 90.5956 138.324 87.9528C139.093 82.667 139.629 77.336 140.104 71.9943C140.576 66.6499 140.976 61.2949 141.409 55.9346C141.841 50.5742 142.294 45.2086 142.919 39.8456L143.161 37.8368L143.3 36.7738L143.447 35.6841C143.647 34.2348 143.868 32.7855 144.116 31.3495C144.615 28.4748 145.218 25.6401 146.021 22.9466C146.427 21.6012 146.87 20.2851 147.398 19.017C147.918 17.7488 148.513 16.5233 149.228 15.3697C149.943 14.2241 150.789 13.1424 151.85 12.2792C152.381 11.8476 152.968 11.4773 153.606 11.2056C154.243 10.9338 154.926 10.7606 155.623 10.6994C156.314 10.6328 157.037 10.6807 157.674 10.9631C158.312 11.2269 158.872 11.6372 159.358 12.1034C160.334 13.0359 161.07 14.1655 161.732 15.3297C163.039 17.6715 164.034 20.2318 164.928 22.92C165.817 25.6135 166.572 28.4322 167.27 31.2722C167.617 32.6922 167.951 34.1202 168.276 35.5482L169.17 39.5525C170.322 44.8089 171.422 50.0654 172.614 55.2925C173.809 60.517 175.082 65.7201 176.653 70.814C177.443 73.3557 178.307 75.8733 179.318 78.3137C179.823 79.5339 180.367 80.7328 180.962 81.8997C181.557 83.0586 182.213 84.2016 182.931 85.2433C183.619 86.253 184.398 87.2041 185.3 88.03C186.199 88.8532 187.242 89.5433 188.405 89.9322C188.984 90.1267 189.59 90.2439 190.201 90.2733C190.507 90.2892 190.811 90.2786 191.118 90.2679C191.425 90.2679 191.727 90.228 192.033 90.204C193.25 90.0814 194.445 89.7617 195.56 89.2609C196.683 88.7707 197.705 88.0726 198.618 87.2601C198.852 87.0656 199.058 86.8391 199.282 86.6313C199.493 86.4049 199.717 86.1811 199.922 85.9413C200.128 85.6989 200.338 85.4617 200.53 85.206L200.824 84.8303L201.107 84.4414C201.854 83.4023 202.515 82.2834 203.124 81.1244C203.729 79.9682 204.281 78.772 204.802 77.5544C205.845 75.122 206.757 72.607 207.707 70.0867C208.657 67.5664 209.625 65.0248 210.834 62.5471C211.444 61.3109 212.111 60.0907 212.89 58.9185C213.291 58.3377 213.699 57.7595 214.163 57.2134C214.384 56.9336 214.638 56.6752 214.875 56.4061L215.452 55.8307L215.654 55.6495C216.183 55.1513 216.78 54.7117 217.396 54.3068C218.021 53.9125 218.688 53.5768 219.381 53.3024C220.769 52.7722 222.265 52.5271 223.714 52.5297ZM223.714 48.2591H256V46.125H223.543L223.338 46.1304L222.927 46.1437C222.652 46.157 222.385 46.1623 222.105 46.189C221.548 46.2476 220.998 46.2902 220.427 46.4048C220.144 46.4554 219.864 46.506 219.581 46.5646C219.299 46.6339 219.016 46.7058 218.736 46.7804C218.453 46.8497 218.173 46.9403 217.895 47.0362C217.618 47.1294 217.338 47.22 217.063 47.3293C215.966 47.7582 214.918 48.291 213.95 48.9011C213.707 49.053 213.48 49.2155 213.248 49.3753C213.016 49.5352 212.784 49.7004 212.573 49.8709L211.93 50.3824C211.727 50.5582 211.53 50.7341 211.33 50.9126L211.034 51.1817L210.759 51.4534L210.212 52.0049C209.881 52.3726 209.526 52.7455 209.23 53.1185L208.771 53.6807L208.347 54.2402L208.136 54.5226L207.942 54.8023L207.555 55.3618C206.562 56.8511 205.77 58.3137 205.071 59.7337C204.369 61.159 203.777 62.5418 203.228 63.8925C202.678 65.2406 202.179 66.5567 201.696 67.8382C200.736 70.3958 199.847 72.8308 198.9 75.0394C198.428 76.1451 197.943 77.1894 197.438 78.1486C196.937 79.1103 196.414 79.9842 195.886 80.7168L195.688 80.9886L195.488 81.2443C195.357 81.4202 195.224 81.564 195.096 81.7186C195.032 81.8011 194.965 81.8651 194.899 81.9344L194.723 82.1235C194.677 82.1635 194.632 82.2061 194.589 82.2487C194.549 82.294 194.504 82.3366 194.456 82.3713C194.096 82.7016 193.682 82.9787 193.234 83.1759C192.788 83.3757 192.311 83.5036 191.823 83.5515C191.58 83.5755 191.334 83.5888 191.092 83.5808C190.846 83.5675 190.606 83.5195 190.374 83.4423C189.907 83.2878 189.491 83.0107 189.131 82.683C188.771 82.3526 188.456 81.9716 188.184 81.5667L188.125 81.4841L188.026 81.3349C187.962 81.2337 187.896 81.1378 187.829 81.0285L187.634 80.7142L187.439 80.3838C187.181 79.9389 186.922 79.4753 186.674 78.9824C186.175 78.0047 185.695 76.9603 185.244 75.8653C184.339 73.678 183.528 71.3309 182.781 68.9225C181.29 64.0923 180.044 59.0144 178.868 53.8698C177.691 48.72 176.597 43.4822 175.434 38.1831L174.994 36.1903L174.447 33.7579C173.956 31.6159 173.444 29.4792 172.897 27.3692C171.803 23.1651 170.536 19.0463 168.967 15.6441C168.575 14.7995 168.167 13.995 167.743 13.241C167.319 12.4924 166.884 11.7864 166.433 11.131C165.531 9.82551 164.592 8.69856 163.584 7.73147C162.57 6.76437 161.508 5.92515 160.222 5.26709C159.902 5.09925 159.56 4.95006 159.206 4.81418C158.851 4.67564 158.469 4.56375 158.072 4.47317C157.874 4.42521 157.669 4.39058 157.464 4.35328C157.255 4.33196 157.045 4.30799 156.831 4.29467C156.621 4.28135 156.404 4.26536 156.191 4.26802C155.978 4.27602 155.764 4.27602 155.551 4.292C153.838 4.37193 152.203 4.85681 150.823 5.5495C149.439 6.24751 148.254 7.13202 147.184 8.14974C146.651 8.6586 146.141 9.2021 145.656 9.77756C145.173 10.3637 144.701 10.9685 144.258 11.6292C143.356 12.9266 142.542 14.4132 141.793 16.0491C140.291 19.3127 139.154 23.3143 138.309 27.5264C137.882 29.6337 137.524 31.7944 137.209 33.9657C137.132 34.5092 137.055 35.0527 136.983 35.5962L136.796 37.0375L136.545 39.1049C135.905 44.6091 135.446 50.0361 135.011 55.423C134.576 60.8074 134.179 66.1491 133.712 71.4321C133.242 76.7126 132.714 81.945 131.972 87.0283C131.602 89.5699 131.177 92.0716 130.66 94.4853C130.148 96.8938 129.539 99.2276 128.798 101.308C128.707 101.575 128.608 101.82 128.515 102.076L128.344 102.505C128.251 102.731 128.147 102.952 128.037 103.171C127.816 103.608 127.562 104.028 127.25 104.404C126.938 104.78 126.565 105.11 126.127 105.331C125.69 105.552 125.191 105.643 124.703 105.614C124.214 105.592 123.731 105.48 123.283 105.281C122.838 105.081 122.43 104.798 122.069 104.468C121.709 104.138 121.394 103.759 121.114 103.36C121.042 103.261 120.981 103.155 120.909 103.056C120.89 103.032 120.877 103.005 120.858 102.976L120.784 102.854C120.717 102.752 120.653 102.643 120.589 102.534C120.333 102.105 120.082 101.649 119.836 101.172C118.86 99.2675 117.998 97.0776 117.235 94.7811C116.475 92.4819 115.805 90.0628 115.197 87.5931C113.983 82.643 112.999 77.4878 112.03 72.2394L111.305 68.2777L110.456 63.7353C110.043 61.5773 109.608 59.4247 109.128 57.3013C108.645 55.1886 108.122 53.0999 107.508 51.1364C106.903 49.1675 106.212 47.3293 105.435 45.6908C104.662 44.0443 103.805 42.6163 102.89 41.3588C101.973 40.1093 100.994 39.033 99.897 38.1005C98.7925 37.1814 97.56 36.3661 95.9806 35.8653C95.5858 35.7427 95.175 35.6388 94.7508 35.5722C94.3266 35.4976 93.8917 35.4736 93.4595 35.455L92.8086 35.4656C92.5925 35.471 92.3817 35.4976 92.1656 35.5109C91.9496 35.5242 91.7415 35.5536 91.5307 35.5802L91.2132 35.6202C91.1092 35.6335 91.0078 35.6601 90.9038 35.6814C90.701 35.7267 90.4902 35.7614 90.2928 35.8173L89.6979 35.9798C89.3164 36.113 88.9296 36.2409 88.5694 36.3981C87.8411 36.7071 87.1555 37.0641 86.5205 37.4771C86.195 37.6742 85.8962 37.9007 85.5841 38.1165C85.2906 38.3509 84.9838 38.5747 84.701 38.8252L84.2715 39.1928C84.1328 39.3207 83.9967 39.4566 83.858 39.5871C83.5779 39.8456 83.3138 40.1306 83.0443 40.4104C81.9799 41.532 80.9954 42.8534 80.0697 44.34C79.1466 45.8293 78.2929 47.5157 77.5219 49.3567C76.7482 51.1976 76.0626 53.1878 75.4383 55.2445C74.8167 57.3013 74.2592 59.4247 73.7309 61.556L72.8265 65.3098C72.5998 66.2609 72.373 67.2094 72.1115 68.1525C71.8474 69.0903 71.562 70.0308 71.1298 70.91C70.911 71.3442 70.6522 71.7705 70.2867 72.0955C70.1027 72.258 69.8866 72.3859 69.6465 72.4419C69.409 72.4951 69.1556 72.4845 68.9208 72.4179C68.4459 72.282 68.0698 71.9277 67.7737 71.5467C67.4749 71.1577 67.2347 70.7288 67.0186 70.2919C66.5838 69.4153 66.2316 68.5015 65.8661 67.5984C65.6821 67.1428 65.498 66.6926 65.3059 66.2423L65.0151 65.5709L64.7136 64.9129L64.2388 63.9058C62.9475 61.223 61.4429 58.4762 59.49 55.788C58.5136 54.448 57.4225 53.1239 56.1819 51.8637C54.9467 50.6009 53.5514 49.402 52.0094 48.347C50.4674 47.2866 48.776 46.3728 47.0046 45.6641C45.2331 44.9528 43.387 44.4493 41.5542 44.1509C40.6364 44.0017 39.7214 43.8951 38.8196 43.8418C38.3634 43.8019 37.9179 43.7965 37.4724 43.7859L36.8214 43.7752H0V45.9092H36.8268L37.4324 45.9226C37.8486 45.9332 38.2621 45.9359 38.6836 45.9732C39.5213 46.0238 40.367 46.1224 41.21 46.2582C42.8988 46.5353 44.5902 46.9962 46.2122 47.6463C47.8369 48.2937 49.3843 49.1329 50.8009 50.1053C52.2202 51.0778 53.5114 52.1834 54.6612 53.361C55.8164 54.5359 56.8435 55.7774 57.7666 57.0455C59.6101 59.5872 61.0614 62.222 62.3153 64.8303L62.7768 65.8107L63.1103 66.5407C63.2597 66.8764 63.4064 67.2121 63.5505 67.5504C63.8386 68.2245 64.1134 68.9038 64.3882 69.5832C64.9377 70.9393 65.466 72.3086 66.1169 73.6248C66.4424 74.2801 66.7999 74.9249 67.2507 75.5057C67.6936 76.0785 68.2565 76.6113 68.9715 76.8138C69.3237 76.9124 69.7025 76.931 70.06 76.8484C70.4175 76.7632 70.743 76.5714 71.0177 76.3316C71.5673 75.8414 71.9568 75.202 72.285 74.5519C72.9332 73.2331 73.3601 71.8238 73.7576 70.4144C74.1498 69.0024 74.4886 67.5744 74.8274 66.1491L75.7425 62.3473C76.2093 60.453 76.7002 58.5641 77.2418 56.7232C78.3223 53.0359 79.6348 49.5725 81.2275 46.7351C82.0252 45.3125 82.8736 44.015 83.81 42.8721C84.0474 42.587 84.2795 42.2966 84.5276 42.0302C84.6504 41.8943 84.7704 41.7558 84.8958 41.6252L85.28 41.2389C85.5307 40.9778 85.8082 40.7434 86.0723 40.4956C86.3524 40.2665 86.6219 40.0241 86.9207 39.8136C87.4969 39.3713 88.1239 38.9824 88.7988 38.644C89.1297 38.4735 89.4871 38.3296 89.842 38.1858L90.3969 38.0046C90.581 37.9433 90.7784 37.906 90.9678 37.8527C91.1572 37.7995 91.3546 37.7675 91.552 37.7382C91.7468 37.7062 91.9442 37.6716 92.1443 37.6583C92.3471 37.6396 92.5445 37.6103 92.7472 37.605L93.3555 37.589C93.761 37.6023 94.1665 37.6316 94.564 37.7062C94.9589 37.7781 95.343 37.8927 95.7085 38.0233C96.4395 38.2923 97.0878 38.6653 97.6747 39.0783C98.2563 39.4992 98.7845 39.9628 99.2754 40.4583C100.252 41.4574 101.1 42.5817 101.89 43.8338C102.674 45.094 103.4 46.482 104.054 48.0273C104.71 49.5672 105.297 51.2536 105.817 53.0333C106.857 56.598 107.65 60.4584 108.386 64.2868L109.202 68.664L109.928 72.6257C110.899 77.8848 111.889 83.0773 113.121 88.1046C113.74 90.6143 114.421 93.0813 115.208 95.4524C115.992 97.8209 116.888 100.104 117.937 102.148C118.198 102.659 118.47 103.152 118.753 103.626C118.823 103.743 118.892 103.863 118.964 103.978L119.057 104.124C119.081 104.164 119.105 104.204 119.132 104.242C119.233 104.393 119.33 104.551 119.439 104.7C119.86 105.297 120.33 105.867 120.874 106.36C121.413 106.855 122.021 107.279 122.694 107.577C123.363 107.878 124.089 108.046 124.823 108.081C125.556 108.121 126.301 107.987 126.957 107.654C127.616 107.324 128.176 106.828 128.643 106.264C129.11 105.699 129.491 105.067 129.825 104.415C129.988 104.087 130.142 103.754 130.284 103.416C130.318 103.336 130.356 103.24 130.385 103.168L130.513 102.843C130.614 102.568 130.721 102.305 130.815 102.025C131.602 99.8137 132.226 97.4026 132.754 94.9303C133.282 92.4552 133.714 89.9109 134.093 87.3373C134.843 82.1848 135.374 76.9204 135.843 71.6186C136.313 66.3169 136.713 60.9699 137.145 55.5936C137.578 50.2146 138.036 44.8089 138.671 39.3527L138.919 37.3039L139.09 35.9905C139.152 35.5056 139.221 35.0207 139.29 34.5385C139.565 32.607 139.88 30.6861 140.245 28.7998C140.976 25.0353 141.934 21.4227 143.204 18.3482C143.836 16.811 144.53 15.3803 145.304 14.0935C146.075 12.7961 146.918 11.6212 147.867 10.5582C148.82 9.49782 149.89 8.54671 151.167 7.79274C152.437 7.04144 153.969 6.51926 155.577 6.42868C155.777 6.41269 155.978 6.41269 156.178 6.40204C156.378 6.40204 156.58 6.41269 156.781 6.43134C156.981 6.44466 157.175 6.47397 157.373 6.50061C157.565 6.54324 157.757 6.58054 157.941 6.63649C158.685 6.84429 159.347 7.17199 159.937 7.54497C161.118 8.29627 162.071 9.23407 162.97 10.2651C163.861 11.2988 164.675 12.4604 165.454 13.7525C165.841 14.3999 166.214 15.0873 166.577 15.8039C166.937 16.5233 167.286 17.2826 167.623 18.0685C168.965 21.2362 170.061 24.9208 171.024 28.672C171.504 30.5502 171.958 32.4498 172.393 34.3547L172.91 36.6539L173.348 38.6387C174.508 43.9244 175.605 49.1675 176.784 54.3441C177.969 59.5152 179.225 64.6358 180.74 69.5512C181.503 72.0049 182.33 74.4107 183.272 76.6806C183.739 77.8182 184.241 78.9158 184.771 79.9549C185.038 80.477 185.313 80.9753 185.593 81.4628C185.737 81.7026 185.879 81.9397 186.023 82.1688C186.095 82.286 186.169 82.3953 186.241 82.5072L186.354 82.675L186.436 82.7922C186.847 83.3997 187.317 83.9698 187.855 84.4653C188.394 84.9582 189.021 85.3738 189.718 85.6056C190.067 85.7228 190.43 85.7948 190.795 85.8107C191.164 85.8241 191.529 85.8054 191.895 85.7681C192.626 85.6962 193.343 85.5044 194.013 85.206C194.685 84.9103 195.301 84.4946 195.846 84.0044C195.918 83.9458 195.982 83.8819 196.046 83.8179C196.112 83.7513 196.179 83.6901 196.246 83.6261C196.382 83.4743 196.553 83.3091 196.707 83.1279C196.862 82.9441 197.02 82.7682 197.172 82.5658L197.401 82.27L197.628 81.9583C198.231 81.1244 198.799 80.168 199.335 79.1423C199.874 78.1166 200.381 77.0216 200.869 75.8787C201.848 73.5955 202.745 71.1338 203.702 68.5868C204.666 66.0372 205.663 63.397 206.992 60.6742C207.661 59.3128 208.414 57.9327 209.334 56.5473C209.577 56.201 209.801 55.8573 210.068 55.511L210.457 54.9968L210.876 54.4853C211.146 54.1416 211.468 53.8059 211.767 53.4729L212.261 52.9773L212.509 52.7322L212.773 52.4924C213.461 51.8504 214.262 51.2509 215.099 50.7048C215.953 50.1666 216.876 49.7004 217.837 49.3221C218.077 49.2262 218.322 49.1489 218.568 49.0663C218.81 48.981 219.056 48.9011 219.304 48.8425L220.048 48.6507C220.296 48.5974 220.547 48.5548 220.795 48.5095C221.294 48.4082 221.785 48.3736 222.279 48.3177C222.527 48.2937 222.764 48.291 223.01 48.2804L223.375 48.267L223.556 48.2617L223.714 48.2591ZM223.532 43.9884L223.303 43.9937L222.844 44.0097C222.54 44.0257 222.244 44.031 221.934 44.0576C221.31 44.1242 220.699 44.1749 220.062 44.3001C219.747 44.356 219.432 44.412 219.117 44.4812C218.8 44.5558 218.482 44.6384 218.167 44.721C217.85 44.8009 217.538 44.8995 217.223 45.0061C216.914 45.1127 216.599 45.2139 216.292 45.3364C215.062 45.816 213.883 46.4154 212.802 47.1001C212.528 47.268 212.28 47.4491 212.018 47.6276C211.759 47.8061 211.503 47.99 211.268 48.1791L210.553 48.7493C210.327 48.9411 210.108 49.1382 209.889 49.3354L209.561 49.6311L209.26 49.9295C209.057 50.1293 208.854 50.3318 208.659 50.5343L208.107 51.1417L207.838 51.4481L207.584 51.7518L207.085 52.3619L206.629 52.9667L206.402 53.273L206.192 53.5714L205.775 54.1735C204.714 55.7694 203.879 57.312 203.148 58.7959C202.419 60.2825 201.808 61.7052 201.245 63.0852C200.685 64.4653 200.178 65.7974 199.695 67.0869C198.73 69.6578 197.849 72.0636 196.934 74.2002C196.478 75.2659 196.014 76.2623 195.544 77.1575C195.077 78.0526 194.602 78.8412 194.146 79.4726L193.976 79.7071L193.81 79.9202C193.701 80.0694 193.591 80.184 193.487 80.3119C193.434 80.3785 193.383 80.4264 193.333 80.4797L193.205 80.6182C193.18 80.6369 193.156 80.6582 193.135 80.6795C193.124 80.6902 193.116 80.7008 193.106 80.7142L193.068 80.7408C192.892 80.9113 192.684 81.0445 192.46 81.1458C192.239 81.2443 191.999 81.3083 191.756 81.3323C191.513 81.3562 191.262 81.3642 191.03 81.279C190.561 81.1191 190.206 80.7408 189.936 80.3385C189.926 80.3225 189.923 80.3252 189.902 80.2932L189.814 80.16C189.758 80.0694 189.699 79.9868 189.64 79.8883L189.462 79.6059L189.285 79.3048C189.051 78.8972 188.811 78.4682 188.578 78.01C188.112 77.0935 187.655 76.0971 187.221 75.0474C186.351 72.9454 185.559 70.6542 184.825 68.2884C183.363 63.5462 182.125 58.5135 180.954 53.3929C179.783 48.267 178.689 43.0373 177.526 37.7249L177.083 35.7267L176.504 33.1611C175.957 30.7793 175.389 28.4055 174.775 26.0691C174.159 23.7326 173.495 21.4387 172.761 19.2594C172.025 17.0801 171.208 15.0393 170.315 13.217C169.866 12.3139 169.397 11.464 168.914 10.6754C168.428 9.89478 167.929 9.16746 167.417 8.50674C166.39 7.19064 165.326 6.09832 164.202 5.19783C163.071 4.29733 161.903 3.55402 160.513 2.98655C160.166 2.84002 159.801 2.7148 159.416 2.59758C159.038 2.48036 158.629 2.38445 158.208 2.30718C157.997 2.26722 157.778 2.23525 157.56 2.20595L156.89 2.15799C156.663 2.14733 156.436 2.13135 156.21 2.13135C155.983 2.13934 155.756 2.14201 155.529 2.15533C153.713 2.2246 151.97 2.66951 150.484 3.30625C148.991 3.94832 147.694 4.76623 146.507 5.73866C145.914 6.22887 145.346 6.75371 144.797 7.31852C144.252 7.89665 143.719 8.49342 143.212 9.1648C142.188 10.4729 141.248 12.0181 140.384 13.7472C138.653 17.2026 137.335 21.5906 136.374 26.2502C135.889 28.5814 135.486 30.9791 135.134 33.3902C135.046 33.995 134.958 34.5971 134.88 35.2019L134.675 36.7684L134.421 38.8571C133.776 44.4066 133.317 49.8549 132.879 55.2499C132.447 60.6422 132.05 65.9785 131.583 71.243C131.116 76.5021 130.59 81.7026 129.859 86.7192C129.491 89.2262 129.072 91.6853 128.571 94.0377C128.069 96.3849 127.48 98.6415 126.783 100.592C126.701 100.842 126.607 101.069 126.522 101.308L126.407 101.593C126.359 101.705 126.309 101.817 126.253 101.926C126.143 102.145 126.015 102.355 125.86 102.542C125.706 102.731 125.516 102.896 125.297 103.005C125.079 103.117 124.831 103.16 124.588 103.147C124.094 103.131 123.627 102.909 123.27 102.574C123.091 102.411 122.934 102.219 122.792 102.022C122.755 101.974 122.728 101.916 122.691 101.868C122.68 101.857 122.675 101.844 122.664 101.828L122.606 101.732C122.547 101.641 122.488 101.543 122.43 101.444C122.197 101.055 121.968 100.637 121.741 100.195C120.834 98.431 120.004 96.3343 119.268 94.1097C118.529 91.8798 117.876 89.514 117.278 87.0842C116.08 82.2114 115.104 77.0909 114.138 71.8504L113.41 67.8914L112.529 63.1838C112.07 60.7861 111.585 58.3936 111.046 56.0438C110.771 54.8742 110.491 53.7046 110.184 52.5724C110.037 51.9969 109.869 51.4454 109.715 50.8806C109.544 50.3344 109.387 49.7723 109.208 49.2421C108.514 47.0868 107.716 45.094 106.823 43.3569C106.377 42.4804 105.905 41.6812 105.417 40.9379C104.929 40.1946 104.422 39.5072 103.899 38.8838C102.848 37.6369 101.743 36.6112 100.524 35.7427C99.2994 34.8875 97.9495 34.1628 96.2581 33.7073C95.4177 33.4782 94.492 33.3476 93.5689 33.321L92.878 33.3263C92.6485 33.3316 92.4218 33.3529 92.1923 33.3663C91.9629 33.3796 91.7388 33.4009 91.5147 33.4249L91.1786 33.4568C91.0665 33.4675 90.9598 33.4915 90.8504 33.5101C90.4075 33.5794 89.9834 33.678 89.5592 33.7739C89.151 33.8938 88.7375 34.011 88.348 34.1522C87.5636 34.4319 86.822 34.757 86.1283 35.1406C85.7735 35.3244 85.4454 35.5376 85.1066 35.7374C84.7811 35.9612 84.4449 36.169 84.1328 36.4088L83.6579 36.7604C83.5005 36.883 83.3485 37.0162 83.1937 37.1441C82.8843 37.3918 82.5881 37.6742 82.2867 37.9487C81.0941 39.0516 79.9763 40.3917 78.9225 41.9476C77.8661 43.5008 76.8923 45.3045 76.0119 47.3053C75.1289 49.3034 74.3472 51.4934 73.6429 53.7659C72.9412 56.0385 72.317 58.3963 71.73 60.7621L70.8336 64.4706C70.7189 64.9448 70.6069 65.4217 70.4762 65.8906C70.3428 66.3595 70.2014 66.8311 69.9853 67.2707C69.8759 67.4865 69.7478 67.6996 69.5638 67.8648C69.4704 67.9447 69.3637 68.0087 69.2436 68.0353C69.1236 68.0619 68.9982 68.0593 68.8808 68.0246C68.6434 67.958 68.4566 67.7795 68.3072 67.5877C68.1578 67.3959 68.0378 67.1801 67.9284 66.9616C67.7123 66.522 67.5362 66.0665 67.3521 65.6136L67.0747 64.9369L66.9279 64.6012L66.6612 64.0177L66.1729 62.984C64.8444 60.2239 63.2837 57.3679 61.2268 54.5359C60.197 53.1212 59.0392 51.7172 57.7159 50.3691C56.3953 49.0183 54.896 47.7315 53.2259 46.5886C51.5612 45.4457 49.7284 44.4519 47.8076 43.682C45.8867 42.912 43.8859 42.3685 41.9063 42.0462C40.9192 41.8837 39.9321 41.7718 38.9637 41.7105C38.4728 41.6705 37.998 41.6652 37.5177 41.6519L36.8294 41.6412H0V39.5045H36.8268L37.5578 39.5179C38.07 39.5312 38.5742 39.5365 39.0998 39.5818C40.1349 39.6457 41.1914 39.7656 42.2505 39.9388C44.3741 40.2851 46.5297 40.8713 48.5999 41.7025C50.6728 42.5311 52.647 43.6021 54.4371 44.8302C56.2273 46.0584 57.8333 47.4385 59.2392 48.8718C60.6479 50.3078 61.8724 51.7944 62.9555 53.281C65.1165 56.2596 66.7332 59.2248 68.0991 62.0595L68.8328 63.6314L69.7212 59.9708C70.3668 57.3679 71.0577 54.7783 71.8421 52.2873C72.6264 49.799 73.5015 47.4092 74.4913 45.2538C75.481 43.0959 76.5802 41.175 77.7647 39.5552C78.9519 37.9327 80.2004 36.5713 81.5237 35.4869C81.8545 35.2205 82.1826 34.9408 82.5241 34.701C82.6948 34.5785 82.8629 34.4506 83.0337 34.3307L83.5565 33.9977C83.73 33.8831 83.906 33.7765 84.0848 33.6726L84.621 33.3609C84.9892 33.1771 85.3467 32.9773 85.7308 32.8094C85.9229 32.7242 86.107 32.6283 86.3044 32.5537L86.894 32.3219C87.0888 32.2446 87.2969 32.178 87.4996 32.1034L87.8037 31.9995L88.1212 31.9089C88.5374 31.7837 88.9776 31.6772 89.4151 31.5706C89.8686 31.488 90.3168 31.4028 90.789 31.3415C90.9064 31.3255 91.0185 31.3015 91.1385 31.2935L91.496 31.2695C91.7335 31.2536 91.9709 31.2349 92.2137 31.2243C92.4564 31.2136 92.6965 31.1923 92.9393 31.1923L93.673 31.1896C94.6494 31.2243 95.6312 31.3468 96.5302 31.5519C98.3363 31.9596 99.7983 32.5963 101.146 33.3876C102.485 34.1895 103.717 35.1699 104.899 36.4114C105.489 37.0348 106.06 37.7329 106.612 38.4975C107.164 39.2621 107.7 40.0987 108.202 41.0258C109.216 42.8587 110.118 45.0061 110.899 47.3506C111.102 47.926 111.281 48.5388 111.47 49.1356C111.646 49.751 111.83 50.3531 111.996 50.9818C112.342 52.2207 112.652 53.5022 112.959 54.7863C113.556 57.3679 114.095 60.0001 114.599 62.6377L115.141 65.5043L115.512 67.5078L116.238 71.4694C117.201 76.6966 118.174 81.7825 119.351 86.578C119.94 88.9678 120.581 91.283 121.296 93.441C122.008 95.5936 122.806 97.5971 123.643 99.2249L124.468 100.685L124.767 99.8803C125.418 98.058 125.991 95.8814 126.477 93.5955C126.968 91.3043 127.378 88.8879 127.741 86.4155C128.462 81.4628 128.984 76.2969 129.451 71.0592C129.913 65.8134 130.313 60.4823 130.745 55.082C131.183 49.6791 131.644 44.2122 132.295 38.612L132.551 36.5047L132.773 34.8129C132.858 34.1469 132.954 33.4835 133.053 32.8201C133.44 30.1692 133.891 27.5344 134.435 24.9794C135.513 19.8748 137.009 15.0979 138.973 11.4507C139.952 9.6257 141.016 8.02453 142.164 6.70575L142.596 6.21022L143.036 5.74665C143.18 5.5868 143.332 5.44293 143.481 5.2964C143.633 5.1552 143.78 5.00068 143.935 4.8648C144.543 4.31065 145.173 3.80446 145.824 3.33556C147.131 2.40576 148.537 1.65446 150.14 1.06567C151.736 0.487546 153.582 0.0825899 155.503 0.0213135L156.223 0C156.463 0 156.703 0.0186493 156.943 0.029306L157.653 0.0612763C157.885 0.0879178 158.117 0.11456 158.339 0.149194C158.787 0.210471 159.222 0.290396 159.627 0.388971C160.035 0.484881 160.428 0.588785 160.798 0.711338C162.295 1.18823 163.57 1.83562 164.819 2.67218C166.059 3.5034 167.249 4.56109 168.402 5.89051C168.975 6.55922 169.538 7.3052 170.082 8.11777C170.627 8.93834 171.155 9.83617 171.659 10.7953C172.161 11.7757 172.652 12.7908 173.102 13.8964C173.337 14.4292 173.551 15.01 173.772 15.5695C173.985 16.1476 174.202 16.7231 174.407 17.3199C175.229 19.6963 175.97 22.2086 176.651 24.7716C177.331 27.3399 177.961 29.9508 178.561 32.5697L179.172 35.2685L179.615 37.2719C180.78 42.6003 181.872 47.8248 183.037 52.924C184.203 58.018 185.43 63.0106 186.868 67.665C187.586 69.9828 188.36 72.2181 189.197 74.2349C189.611 75.2446 190.046 76.1904 190.481 77.0429C190.697 77.4718 190.918 77.8635 191.132 78.2338L191.289 78.5029L191.446 78.7533C191.5 78.8412 191.55 78.9132 191.601 78.9904L191.676 79.1077C191.684 79.1183 191.684 79.1183 191.684 79.1183C191.697 79.105 191.724 79.073 191.761 79.0331C191.799 78.9931 191.836 78.9611 191.876 78.9078C191.956 78.8093 192.039 78.7267 192.127 78.6015L192.263 78.4309L192.404 78.2338C192.788 77.7063 193.215 77.0003 193.65 76.1691C194.085 75.3405 194.525 74.3947 194.965 73.3663C195.848 71.3043 196.721 68.9225 197.689 66.3409C198.177 65.0461 198.69 63.6953 199.263 62.286C199.837 60.8766 200.464 59.4087 201.224 57.8608C201.987 56.3155 202.862 54.6931 203.996 52.9906L204.441 52.3486L204.666 52.0289L204.908 51.7012L205.402 51.0485L205.938 50.3904L206.21 50.0627L206.506 49.7297L207.104 49.0716C207.317 48.8505 207.539 48.6294 207.758 48.4136L208.088 48.0859L208.446 47.7608C208.689 47.5451 208.926 47.3319 209.174 47.1188C209.433 46.9083 209.697 46.6978 209.961 46.4927C210.217 46.2849 210.5 46.0824 210.788 45.8853C211.074 45.6881 211.351 45.4883 211.653 45.3018C212.848 44.5452 214.152 43.8818 215.518 43.349C215.86 43.2158 216.207 43.1012 216.553 42.984C216.9 42.8667 217.247 42.7548 217.597 42.6669C217.946 42.5737 218.298 42.4858 218.65 42.4005C218.997 42.3259 219.347 42.262 219.696 42.2007C220.4 42.0648 221.07 42.0062 221.761 41.9343C222.102 41.905 222.428 41.897 222.761 41.881L223.266 41.865L223.516 41.857H256V43.9937H223.714L223.532 43.9884ZM191.684 79.1183L191.681 79.113C191.681 79.1103 191.679 79.1156 191.684 79.1183ZM191.684 79.1183L191.689 79.1156C191.684 79.1156 191.684 79.1183 191.684 79.1183Z" fill="white"/>
</svg>
