<svg width="18" height="19" viewBox="0 0 18 19" fill="none" xmlns="http://www.w3.org/2000/svg">
<path fill-rule="evenodd" clip-rule="evenodd" d="M6.7469 4.82904C5.89595 5.68001 5.69139 6.6398 5.88613 7.59795C6.08578 8.57902 6.71253 9.57645 7.55857 10.4201C8.42015 11.2792 9.4102 11.9125 10.3847 12.1138C11.3322 12.3094 12.2911 12.104 13.1707 11.2293C13.1724 11.226 13.2108 11.1581 13.1413 10.9511C13.0676 10.731 12.8991 10.4552 12.6364 10.1942C12.3746 9.93238 12.0972 9.76383 11.8771 9.69019C11.6644 9.61982 11.5948 9.66073 11.5948 9.66073C11.2103 10.0453 10.9951 10.389 10.9648 10.6933C10.9583 10.7572 10.9368 10.8186 10.9021 10.8726C10.8674 10.9266 10.8205 10.9717 10.7652 11.0043C10.5025 11.1597 10.1384 11.2203 9.67857 11.0665C9.23592 10.9175 8.70571 10.5714 8.0585 9.92584C7.41047 9.27943 7.06273 8.75167 6.91299 8.30982C6.75835 7.85079 6.81972 7.48667 6.97518 7.22402C7.0078 7.16883 7.05294 7.12209 7.10695 7.08755C7.16095 7.05301 7.22232 7.03165 7.2861 7.02519C7.59211 6.99491 7.93904 6.77972 8.3236 6.3976C8.3236 6.39351 8.36288 6.32641 8.29333 6.1194C8.21969 5.89929 8.05114 5.62355 7.78849 5.36253C7.52666 5.1007 7.24928 4.93214 7.02918 4.8585C6.81644 4.78813 6.7469 4.82904 6.7469 4.82904ZM7.28692 4.08199C7.65184 4.20309 8.03395 4.4502 8.36697 4.7824C8.69916 5.11461 8.9479 5.49509 9.06982 5.8592C9.18273 6.19713 9.22282 6.65616 8.90535 6.972C8.55107 7.3263 8.12559 7.65769 7.64203 7.7886C7.64185 7.87716 7.65765 7.96503 7.68867 8.04798C7.78112 8.32128 8.03232 8.7443 8.63616 9.34571C9.23919 9.94793 9.66384 10.1983 9.93877 10.2908C10.0525 10.3284 10.1376 10.3399 10.2014 10.3374C10.3331 9.85465 10.6662 9.4308 11.0204 9.07733C11.3379 8.76149 11.7961 8.80158 12.1349 8.91368C12.499 9.03478 12.8811 9.2827 13.2141 9.61491C13.5471 9.94711 13.795 10.3268 13.9178 10.6909C14.0299 11.0288 14.0708 11.4879 13.7525 11.8045C12.6716 12.8821 11.4296 13.1652 10.2194 12.9149C9.03381 12.6702 7.90795 11.924 6.98091 11.0002C6.06205 10.0838 5.32647 8.94886 5.08428 7.76078C4.83799 6.54979 5.11128 5.30362 6.17251 4.24564C6.48998 3.9298 6.949 3.96989 7.28692 4.08199Z" fill="white"/>
<path fill-rule="evenodd" clip-rule="evenodd" d="M9.0002 1.17795C7.56599 1.17776 6.15933 1.57189 4.93402 2.31726C3.7087 3.06263 2.71191 4.13054 2.05261 5.40423C1.39331 6.67792 1.09689 8.10837 1.19576 9.53917C1.29463 10.97 1.78498 12.346 2.6132 13.517C2.66275 13.5869 2.69347 13.6685 2.7024 13.7538C2.71133 13.8391 2.69818 13.9252 2.6642 14.004L1.3802 16.974L5.0372 15.913C5.16058 15.877 5.29308 15.8898 5.4072 15.9489C6.45934 16.4927 7.6212 16.7903 8.80516 16.8196C9.98911 16.8488 11.1642 16.6088 12.2419 16.1177C13.3196 15.6265 14.2717 14.8971 15.0264 13.9844C15.7811 13.0717 16.3186 11.9995 16.5986 10.8487C16.8785 9.69796 16.8934 8.49866 16.6423 7.34128C16.3912 6.18389 15.8805 5.09865 15.1488 4.16739C14.4171 3.23614 13.4835 2.48319 12.4184 1.96534C11.3533 1.44749 10.1845 1.17826 9.0002 1.17795ZM0.178202 8.99995C0.178553 7.08408 0.802584 5.22039 1.95597 3.69059C3.10935 2.1608 4.72939 1.04805 6.57122 0.520546C8.41304 -0.00695664 10.3765 0.07946 12.1649 0.766734C13.9532 1.45401 15.4693 2.70478 16.4838 4.32999C17.4983 5.9552 17.9562 7.8665 17.7882 9.775C17.6203 11.6835 16.8356 13.4854 15.5528 14.9085C14.27 16.3315 12.5588 17.2982 10.6779 17.6626C8.79697 18.0269 6.84858 17.769 5.1272 16.9279L0.639202 18.2299C0.548197 18.2562 0.451599 18.2561 0.360655 18.2296C0.269711 18.2031 0.188162 18.1514 0.125505 18.0803C0.0628475 18.0093 0.0216587 17.9219 0.00673393 17.8284C-0.00819084 17.7348 0.00376241 17.639 0.0412023 17.552L1.6372 13.86C0.684223 12.4183 0.17679 10.7281 0.178202 8.99995Z" fill="white"/>
</svg>
