<svg width="77" height="68" viewBox="0 0 77 68" fill="none" xmlns="http://www.w3.org/2000/svg">
<mask id="mask0_160_1026" style="mask-type:luminance" maskUnits="userSpaceOnUse" x="24" y="50" width="17" height="18">
<path d="M24.1597 50.0557H40.293V67.6499H24.1597V50.0557Z" fill="white"/>
</mask>
<g mask="url(#mask0_160_1026)">
<path d="M30.0695 50.8089C29.1471 50.8089 28.302 51.0467 27.583 51.5193C26.2539 52.393 25.5062 53.9771 25.4747 55.9795C25.4403 58.0277 26.1593 60.2534 27.4942 62.2529C28.8291 64.2495 30.6195 65.7706 32.533 66.5355C34.4036 67.2831 36.1653 67.2115 37.4945 66.3378C38.8208 65.4641 39.5713 63.88 39.6028 61.8777C39.6372 59.8295 38.9182 57.6037 37.5833 55.6042C36.2484 53.6076 34.458 52.0865 32.5445 51.3217C31.6851 50.9779 30.8486 50.8089 30.0695 50.8089ZM35.0109 67.7014C34.1458 67.7014 33.2262 67.5152 32.2867 67.1399C30.2528 66.3264 28.3565 64.7193 26.9471 62.611C25.5377 60.5055 24.7815 58.148 24.8187 55.9709C24.8531 53.748 25.7067 51.9748 27.2192 50.9779C28.7346 49.981 30.7111 49.8865 32.788 50.7172C34.8247 51.5308 36.721 53.1407 38.1304 55.2461C39.5369 57.3516 40.2932 59.7092 40.2588 61.8891C40.2216 64.112 39.3708 65.8852 37.8554 66.8821C37.0275 67.4264 36.0593 67.7014 35.0109 67.7014Z" fill="white"/>
</g>
<path d="M30.5422 52.4131C29.8203 52.4131 29.1414 52.5936 28.5599 52.9774C26.3342 54.4441 26.3112 58.3055 28.5055 61.5855C29.5797 63.1925 31.0177 64.4186 32.556 65.0316C34.0542 65.6303 35.4607 65.5759 36.5177 64.8769C38.7407 63.4131 38.7664 59.5516 36.5722 56.2717C34.9537 53.8511 32.5732 52.4131 30.5422 52.4131ZM34.5412 66.0972C33.8336 66.0972 33.0802 65.9425 32.3125 65.636C30.6511 64.9714 29.1042 63.6623 27.9584 61.9464C25.5636 58.3657 25.6696 54.1003 28.1961 52.436C30.7227 50.7717 34.7245 52.33 37.1193 55.9107C39.5141 59.4915 39.4052 63.7568 36.8815 65.4212C36.1998 65.8709 35.4034 66.0972 34.5412 66.0972Z" fill="white"/>
<path d="M30.5022 56.0281C30.1585 56.0281 29.8806 56.3031 29.8806 56.644C29.8806 56.9849 30.1585 57.2599 30.5022 57.2599C30.8431 57.2599 31.1238 56.9849 31.1238 56.644C31.1238 56.3031 30.8431 56.0281 30.5022 56.0281ZM30.5022 57.913C29.7975 57.913 29.2246 57.343 29.2246 56.644C29.2246 55.9451 29.7975 55.375 30.5022 55.375C31.2069 55.375 31.7798 55.9451 31.7798 56.644C31.7798 57.343 31.2069 57.913 30.5022 57.913Z" fill="white"/>
<path d="M33.7274 60.6863C33.4238 60.6863 33.1745 60.9298 33.1745 61.2335C33.1745 61.5342 33.4238 61.7806 33.7274 61.7806C34.0311 61.7806 34.2774 61.5342 34.2774 61.2335C34.2774 60.9298 34.0311 60.6863 33.7274 60.6863ZM33.7274 62.4309C33.06 62.4309 32.5186 61.8952 32.5186 61.2335C32.5186 60.5717 33.06 60.0332 33.7274 60.0332C34.392 60.0332 34.9363 60.5717 34.9363 61.2335C34.9363 61.8952 34.392 62.4309 33.7274 62.4309Z" fill="white"/>
<path d="M35.893 58.3802C35.5894 58.3802 35.343 58.6266 35.343 58.9302C35.343 59.231 35.5894 59.4774 35.893 59.4774C36.1995 59.4774 36.4459 59.231 36.4459 58.9302C36.4459 58.6266 36.1995 58.3802 35.893 58.3802ZM35.893 60.1276C35.2284 60.1276 34.687 59.5891 34.687 58.9302C34.687 58.2685 35.2284 57.73 35.893 57.73C36.5604 57.73 37.1019 58.2685 37.1019 58.9302C37.1019 59.5891 36.5604 60.1276 35.893 60.1276Z" fill="white"/>
<mask id="mask1_160_1026" style="mask-type:luminance" maskUnits="userSpaceOnUse" x="26" y="24" width="51" height="44">
<path d="M26.3599 24.3892H77V67.6501H26.3599V24.3892Z" fill="white"/>
</mask>
<g mask="url(#mask1_160_1026)">
<path d="M37.675 66.9369C37.5776 66.9369 37.4773 66.891 37.4143 66.808C37.3054 66.6647 37.3312 66.4613 37.4744 66.3496L52.8315 54.7223C52.8343 54.7194 52.8372 54.7166 52.8429 54.7137L56.1 52.4564L68.369 40.4452C68.3776 40.4366 68.3862 40.428 68.3948 40.4223C68.6583 40.216 68.876 39.9668 69.0422 39.6832C69.3658 39.1246 69.4088 38.5689 69.3888 38.1994C69.383 38.1077 69.4174 38.0189 69.4833 37.9559C69.8156 37.6179 70.0734 37.2225 70.251 36.7871C70.4143 36.3775 70.5002 35.9449 70.506 35.5009C70.506 35.3921 70.5632 35.2889 70.6578 35.2317L76.4843 31.5163V25.7126L67.7789 31.5764C67.67 31.6481 67.5325 31.6509 67.4208 31.585C67.1974 31.4475 66.8364 31.2871 66.3752 31.3014C66.1117 31.3072 65.8567 31.3702 65.6161 31.4876C65.4958 31.5478 65.3554 31.5277 65.2552 31.4418C65.1463 31.3473 64.9143 31.1811 64.5849 31.1296C64.244 31.078 63.9604 31.184 63.8544 31.2241C63.1411 31.4905 55.7104 34.7647 46.1885 39.0072C46.1799 39.01 46.1713 39.0129 46.1627 39.0158C45.1515 39.3624 44.2406 39.9382 43.533 40.6801C43.1864 41.041 42.8828 41.4478 42.6278 41.8832C42.6021 41.9291 42.5648 41.9663 42.5218 41.9949L27.3138 51.7116C27.1619 51.809 26.9586 51.7632 26.8612 51.6142C26.7638 51.4624 26.8067 51.259 26.9586 51.1616L42.1007 41.4908C42.37 41.0353 42.6909 40.6113 43.0547 40.2304C43.8338 39.4168 44.8278 38.7866 45.9336 38.4056C55.4612 34.1603 62.9005 30.8861 63.6252 30.6139C63.7599 30.5624 64.1752 30.4077 64.6823 30.485C65.0403 30.5395 65.3182 30.6798 65.5187 30.8202C65.788 30.7142 66.0658 30.6569 66.3552 30.6483C66.8622 30.634 67.2776 30.7715 67.5784 30.9233L76.6276 24.8275C76.7278 24.7587 76.8567 24.753 76.9656 24.8103C77.0716 24.8647 77.1403 24.9764 77.1403 25.0968V31.6968C77.1403 31.8056 77.083 31.9087 76.9885 31.9689L71.1562 35.6871C71.1333 36.1483 71.033 36.5981 70.8583 37.0277C70.6692 37.5033 70.3971 37.933 70.0505 38.3082C70.0562 38.758 69.976 39.3796 69.6093 40.0098C69.406 40.3593 69.1395 40.6658 68.8187 40.9207L56.5411 52.9405C56.5268 52.9548 56.5125 52.9663 56.4981 52.9749L53.2239 55.2465L37.8726 66.8681C37.8153 66.9139 37.7437 66.9369 37.675 66.9369Z" fill="white"/>
</g>
<path d="M32.5959 49.5976C33.1745 49.6349 33.9565 49.7179 34.6841 50.0703C35.3344 50.3797 35.8873 50.8781 36.337 51.5541L39.2818 49.1307C39.5854 48.7726 39.7315 48.3286 39.6972 47.876C39.6657 47.4864 39.4938 47.1284 39.2274 46.902C38.7776 46.5211 38.05 46.4838 37.4571 46.8104L32.5959 49.5976ZM36.2539 52.3705C36.2339 52.3705 36.2138 52.3677 36.1966 52.3648C36.0992 52.3476 36.0162 52.2875 35.9703 52.2044C35.555 51.4797 35.0279 50.9583 34.3977 50.6547C33.6901 50.3166 32.8766 50.2651 32.338 50.2336C31.811 50.202 31.4271 50.1791 31.3841 49.8067C31.344 49.4573 31.7451 49.2911 31.9771 49.1994L37.1334 46.2461C37.9784 45.7763 38.9896 45.8422 39.6542 46.4065C40.0524 46.7474 40.3073 47.263 40.3503 47.8273C40.399 48.4632 40.1899 49.0849 39.763 49.5776C39.7487 49.5919 39.7373 49.6033 39.7229 49.6148L36.463 52.2961C36.4058 52.3448 36.3313 52.3705 36.2539 52.3705Z" fill="white"/>
<path d="M36.1538 48.131L35.853 49.1565L37.6405 48.8328L36.1538 48.131ZM35.621 49.5261C35.5751 49.5261 35.5322 49.506 35.5007 49.4716C35.4606 49.4315 35.4491 49.3714 35.4634 49.317L35.8931 47.8589C35.9046 47.8131 35.9389 47.7729 35.9819 47.7558C36.0278 47.7357 36.0764 47.7357 36.1194 47.7558L38.2421 48.7555C38.308 48.7841 38.3452 48.8529 38.3366 48.9216C38.3251 48.9933 38.2736 49.0477 38.202 49.062L35.6525 49.5232C35.641 49.5261 35.6324 49.5261 35.621 49.5261Z" fill="white"/>
<path d="M52.9946 51.3906C52.8371 51.3906 52.6967 51.2761 52.6709 51.1156C52.459 49.7636 51.6168 46.3748 48.3884 44.0459C46.0681 42.3729 43.5988 42.075 42.3355 42.0464C42.1551 42.0435 42.0118 41.8946 42.0147 41.7141C42.0204 41.5336 42.1665 41.3875 42.3498 41.3961C43.6905 41.4248 46.3087 41.7399 48.7751 43.5188C52.204 45.9909 53.0949 49.5831 53.3183 51.0154C53.347 51.193 53.2238 51.3591 53.0462 51.3849C53.029 51.3878 53.0118 51.3906 52.9946 51.3906Z" fill="white"/>
<path d="M54.3728 50.1704C54.2181 50.1704 54.0806 50.0586 54.0519 49.9011C53.8313 48.7123 53.0149 45.6902 50.2162 43.367C47.6009 41.1985 44.7535 40.8146 43.2868 40.7803C43.1035 40.7774 42.9603 40.6284 42.966 40.448C42.9689 40.2675 43.1207 40.1214 43.3011 40.13C44.8537 40.1672 47.8702 40.5711 50.6373 42.8657C53.6022 45.3264 54.4644 48.5232 54.6965 49.7836C54.728 49.9612 54.6105 50.1303 54.4329 50.1646C54.4129 50.1675 54.3928 50.1704 54.3728 50.1704Z" fill="white"/>
<path d="M56.3089 53.0347C56.2831 53.0347 56.2545 53.0318 56.2259 53.0232C56.0511 52.9774 55.9451 52.7998 55.991 52.625C56.0081 52.5649 57.5436 46.4576 53.2868 42.2753C50.3134 39.3563 46.4805 39.2675 45.3777 39.3105C45.1943 39.3162 45.0425 39.1787 45.0368 38.9982C45.0311 38.8178 45.1714 38.6659 45.3519 38.6602C46.5235 38.6144 50.5884 38.7089 53.748 41.8141C58.2712 46.2542 56.6956 52.5248 56.6269 52.7912C56.5897 52.9373 56.455 53.0347 56.3089 53.0347Z" fill="white"/>
<path d="M64.0321 45.4751C64.0178 45.4751 64.0006 45.4751 63.9863 45.4722C63.8087 45.4464 63.6827 45.2832 63.7056 45.1055C63.8345 44.1631 64.0751 40.866 61.7347 37.9785C59.7066 35.4806 56.9853 34.8045 55.9082 34.6326C55.7277 34.604 55.6074 34.435 55.6361 34.2574C55.6647 34.0798 55.8337 33.9595 56.0142 33.9881C57.1657 34.1743 60.0762 34.8962 62.2446 37.5717C64.7483 40.6597 64.4933 44.186 64.3558 45.1944C64.3329 45.3576 64.1926 45.4751 64.0321 45.4751Z" fill="white"/>
<path d="M65.742 43.8023C65.7219 43.8023 65.7047 43.7995 65.6847 43.7966C65.5071 43.768 65.3868 43.599 65.4154 43.4213C66.0256 39.8463 64.9112 36.512 62.5078 34.7159C61.4881 33.9539 60.2677 33.487 58.8842 33.3294C58.7037 33.3094 58.5748 33.1461 58.5948 32.9685C58.6177 32.788 58.7782 32.662 58.9586 32.682C60.4597 32.8539 61.7888 33.3638 62.9032 34.1945C65.5042 36.1367 66.7159 39.7146 66.0628 43.5302C66.037 43.6906 65.8966 43.8023 65.742 43.8023Z" fill="white"/>
<path d="M70.8327 35.8302C70.6694 35.8302 70.5262 35.707 70.509 35.5408C70.4345 34.8877 70.1853 33.9195 69.4262 33.0114C68.7731 32.2294 68.0054 31.8169 67.4726 31.6106C67.3064 31.5447 67.2233 31.3557 67.2892 31.1867C67.3551 31.0205 67.547 30.9375 67.7161 31.0033C68.3176 31.2382 69.1913 31.7052 69.9332 32.596C70.7926 33.6273 71.0762 34.7273 71.1593 35.4664C71.1822 35.6468 71.0504 35.8072 70.8728 35.8273C70.8585 35.8302 70.847 35.8302 70.8327 35.8302Z" fill="white"/>
<path d="M67.9334 41.6536C67.9277 41.6536 67.9219 41.6536 67.9162 41.6536C67.7357 41.645 67.5954 41.4904 67.6068 41.3127C67.6555 40.3789 67.624 37.1362 65.1977 34.6182C63.8485 33.2203 62.2844 32.5729 61.2073 32.2779C61.0326 32.2292 60.9323 32.0516 60.981 31.8768C61.0297 31.7049 61.2102 31.6018 61.3849 31.6505C62.5394 31.9685 64.2209 32.6617 65.6704 34.1685C68.2084 36.801 68.3287 40.0638 68.2628 41.3443C68.2513 41.519 68.1081 41.6536 67.9334 41.6536Z" fill="white"/>
<path d="M69.3888 40.0553C69.3773 40.0553 69.3687 40.0553 69.3572 40.0553C69.1768 40.0381 69.045 39.8777 69.0622 39.6972C69.1539 38.7748 69.1911 36.3858 67.5869 34.1571C66.2864 32.3525 64.5505 31.5475 63.6309 31.2267C63.4591 31.1665 63.3703 30.9803 63.4304 30.8113C63.4906 30.6423 63.6768 30.5506 63.8487 30.6108C64.8398 30.9574 66.7161 31.8282 68.1226 33.779C69.8557 36.1853 69.8127 38.7663 69.7153 39.7631C69.6981 39.9293 69.5549 40.0553 69.3888 40.0553Z" fill="white"/>
<path d="M62.0268 36.9729C62.0183 36.9729 62.0097 36.9729 61.9982 36.97C61.8177 36.9557 61.6831 36.7981 61.7003 36.6205C61.7175 36.3856 61.769 35.1825 60.8524 34.3375C60.0388 33.5841 58.7612 33.4122 57.6755 33.9106C57.5094 33.9851 57.3146 33.9135 57.2401 33.7502C57.1628 33.5869 57.2344 33.395 57.4005 33.3177C58.7469 32.7018 60.2766 32.9138 61.2992 33.8591C62.4393 34.9132 62.3763 36.3885 62.3534 36.675C62.3391 36.844 62.1959 36.9729 62.0268 36.9729Z" fill="white"/>
<path d="M52.3443 55.6731C52.3071 55.6731 52.2698 55.6674 52.2326 55.653C52.0636 55.5929 51.9748 55.4067 52.0349 55.2377C52.1696 54.8682 52.2784 54.4872 52.3558 54.1033C52.4245 53.771 52.4732 53.4301 52.499 53.0892C52.5133 52.9116 52.6709 52.777 52.8513 52.7913C53.0347 52.8028 53.1693 52.9603 53.155 53.1408C53.1263 53.5046 53.0748 53.8741 53.0003 54.2322C52.9144 54.6476 52.7969 55.0601 52.6537 55.4583C52.605 55.59 52.479 55.6731 52.3443 55.6731Z" fill="white"/>
<path d="M53.837 54.7477C53.7854 54.7477 53.7367 54.7391 53.6909 54.7133C53.5276 54.636 53.4617 54.4383 53.5419 54.2779C53.751 53.8597 53.8971 53.4186 53.9745 52.9659C54.0174 52.7225 54.0404 52.4732 54.0461 52.224C54.049 52.0436 54.195 51.8946 54.3784 51.9032C54.5589 51.9061 54.7049 52.0521 54.7021 52.2326C54.6963 52.5162 54.6706 52.7998 54.6219 53.0777C54.5331 53.5933 54.3669 54.0946 54.1292 54.5672C54.0719 54.6818 53.9573 54.7477 53.837 54.7477Z" fill="white"/>
<mask id="mask2_160_1026" style="mask-type:luminance" maskUnits="userSpaceOnUse" x="0" y="36" width="13" height="17">
<path d="M0 36.8555H12.4266V52.2555H0V36.8555Z" fill="white"/>
</mask>
<g mask="url(#mask2_160_1026)">
<path d="M2.21745 47.0993C3.23724 48.7465 4.62083 50.0298 6.11901 50.7087C7.57135 51.3704 8.94922 51.3819 10.0005 50.7431C11.0518 50.1014 11.6648 48.8754 11.7279 47.2913C11.7937 45.6584 11.2695 43.8538 10.2497 42.2066C8.17578 38.8493 4.68386 37.2165 2.46953 38.5657C1.41823 39.2045 0.805211 40.4306 0.74219 42.0147C0.676304 43.6475 1.20052 45.4551 2.21745 47.0993ZM8.24453 51.866C7.48255 51.866 6.67188 51.6798 5.84401 51.3017C4.23125 50.5683 2.74453 49.1962 1.65886 47.4402C0.57318 45.6871 0.0145863 43.7506 0.0862007 41.9889C0.157815 40.1814 0.882554 38.7663 2.12578 38.01C4.64948 36.4717 8.54531 38.2019 10.8112 41.8657C11.8969 43.6217 12.4555 45.5582 12.3839 47.317C12.3122 49.1275 11.5875 50.5397 10.3443 51.2988C9.71979 51.6769 9.00937 51.866 8.24453 51.866Z" fill="white"/>
</g>
<path d="M4.01919 39.8349C3.80434 39.8922 3.60096 39.9782 3.41476 40.0928C2.63846 40.5654 2.18585 41.4735 2.13716 42.6508C2.08846 43.8769 2.48377 45.2347 3.24861 46.4722C4.01346 47.7097 5.05617 48.675 6.17908 49.1849C7.25903 49.6777 8.27882 49.6862 9.05512 49.2136C10.7023 48.211 10.7739 45.3493 9.2184 42.8342C8.80018 42.1581 8.29314 41.5566 7.72882 41.0667V43.1722C7.72882 43.2782 7.67726 43.3784 7.58846 43.4415C7.49965 43.5016 7.38794 43.5159 7.28481 43.4758L4.3257 42.3672C4.20252 42.3214 4.11945 42.2068 4.11372 42.075L4.01919 39.8349ZM7.7632 50.2162C7.17309 50.2162 6.54575 50.0701 5.90408 49.7779C4.66372 49.2136 3.52361 48.1594 2.69002 46.8131C1.85643 45.4667 1.42674 43.98 1.48117 42.6279C1.53846 41.2243 2.10278 40.1271 3.07101 39.537C3.43481 39.3136 3.84731 39.1732 4.29419 39.1188C4.38299 39.1102 4.47466 39.136 4.54627 39.1961C4.61502 39.2534 4.65512 39.3394 4.66085 39.431L4.76111 41.8344L7.07283 42.6995V40.3907C7.07283 40.2704 7.14158 40.1586 7.2533 40.1014C7.36215 40.0469 7.49393 40.0555 7.59419 40.1271C8.43351 40.723 9.18976 41.5422 9.77986 42.4961C11.5244 45.3149 11.3525 48.5777 9.39887 49.7693C8.91189 50.0672 8.35616 50.2162 7.7632 50.2162Z" fill="white"/>
<path d="M8.67122 44.478C8.65403 44.478 8.63684 44.4809 8.62252 44.4838C8.49648 44.5124 8.42486 44.6327 8.39335 44.7015C8.32747 44.8533 8.31028 45.0509 8.35325 45.2457C8.39622 45.4377 8.49361 45.6124 8.61965 45.7213C8.67981 45.7728 8.79439 45.853 8.92043 45.8244C9.04361 45.7957 9.11523 45.6754 9.14674 45.6067C9.21549 45.4549 9.22981 45.2572 9.18684 45.0624C9.10663 44.7015 8.86314 44.478 8.67122 44.478ZM8.86887 46.4804C8.63111 46.4804 8.39049 46.3887 8.18997 46.2111C7.95507 46.0106 7.78606 45.7155 7.71445 45.3861C7.63997 45.0538 7.66861 44.7158 7.79465 44.4351C7.93502 44.1285 8.18424 43.9137 8.48215 43.8478C9.07226 43.7189 9.66523 44.1916 9.82851 44.922C9.90012 45.2543 9.87148 45.5924 9.74543 45.8731C9.60793 46.1825 9.35585 46.3944 9.0608 46.4603C8.99778 46.4746 8.93476 46.4804 8.86887 46.4804Z" fill="white"/>
<path d="M6.13583 46.7468C6.11864 46.7468 6.10145 46.7497 6.08426 46.7526C5.96109 46.7812 5.88947 46.9015 5.85796 46.9703C5.78921 47.1221 5.77489 47.3197 5.81786 47.5145C5.86083 47.7065 5.95822 47.8812 6.08426 47.9901C6.14156 48.0416 6.259 48.1218 6.38218 48.0932C6.50822 48.0645 6.57984 47.9442 6.61135 47.8755C6.6801 47.7236 6.69442 47.526 6.65145 47.3312C6.56838 46.9703 6.32775 46.7468 6.13583 46.7468ZM6.33348 48.7492C6.09572 48.7492 5.8551 48.6575 5.65171 48.4799C5.41968 48.2794 5.25067 47.9843 5.17619 47.6549C5.10458 47.3226 5.13322 46.9846 5.25926 46.7039C5.39676 46.3973 5.64885 46.1825 5.9439 46.1166C6.53687 45.9877 7.12984 46.4604 7.29025 47.1908C7.36473 47.5231 7.33609 47.8612 7.21005 48.1419C7.06968 48.4513 6.82046 48.6632 6.52541 48.7291C6.46239 48.7434 6.3965 48.7492 6.33348 48.7492Z" fill="white"/>
<path d="M3.49184 42.9773C3.47465 42.9773 3.45746 42.9802 3.44314 42.983C3.24549 43.026 3.08793 43.3497 3.17387 43.745C3.26267 44.1403 3.5434 44.3666 3.73819 44.3237C3.93585 44.2807 4.0934 43.957 4.00746 43.5617C3.92726 43.1979 3.68377 42.9773 3.49184 42.9773ZM3.68377 44.9796C3.16241 44.9796 2.6783 44.5356 2.5322 43.8854C2.37179 43.152 2.70694 42.476 3.29991 42.3471C3.89288 42.2182 4.48585 42.6908 4.64627 43.4213C4.80955 44.1546 4.47439 44.8307 3.88142 44.9596C3.81554 44.9739 3.74965 44.9796 3.68377 44.9796Z" fill="white"/>
<path d="M10.6133 51.0268C10.5045 51.0268 10.3985 50.9752 10.3354 50.8778C10.2381 50.726 10.281 50.5255 10.4357 50.4281L15.9644 46.9104C16.0131 46.8788 16.0703 46.8617 16.1305 46.8588C17.2219 46.8187 18.0956 46.515 18.7201 45.9593C20.9373 43.9885 19.949 39.0328 17.6172 36.0822C17.4797 35.9075 14.1998 31.8111 11.0487 32.8109C9.87712 33.1804 9.10081 34.1315 8.65394 34.8648C8.62529 34.9106 8.58805 34.9479 8.54222 34.9765L2.62113 38.477C2.46644 38.5716 2.26592 38.52 2.17139 38.3653C2.07972 38.2106 2.13128 38.0101 2.28597 37.9184L8.13545 34.458C8.85159 33.3093 9.78831 32.5244 10.8482 32.1893C14.3716 31.0749 17.7604 35.2057 18.1357 35.6812C19.3617 37.2338 20.2555 39.3565 20.5248 41.3531C20.8256 43.5874 20.3414 45.395 19.1584 46.4434C18.4336 47.088 17.4539 47.446 16.2451 47.5062L10.7881 50.9752C10.7336 51.0096 10.6735 51.0268 10.6133 51.0268Z" fill="white"/>
<path d="M8.75435 35.8703L9.87441 36.4261L11.851 35.2544L12.9853 33.9052L11.7278 33.487L10.559 34.8706C10.5333 34.9021 10.4989 34.9279 10.4645 34.9479L8.75435 35.8703ZM9.88873 37.1221C9.83717 37.1221 9.78847 37.1107 9.74263 37.0878L7.89784 36.174C7.78899 36.1195 7.71737 36.0107 7.71737 35.8904C7.71451 35.7672 7.7804 35.6555 7.88639 35.5982L10.095 34.4037L11.3669 32.8998C11.4557 32.7966 11.596 32.7594 11.7221 32.7995L13.6499 33.4383C13.7531 33.4727 13.8333 33.5557 13.8619 33.6589C13.8934 33.762 13.8676 33.8737 13.7989 33.9568L12.3179 35.7128C12.295 35.7414 12.2663 35.7643 12.2348 35.7844L10.0549 37.0763C10.0033 37.1078 9.94602 37.1221 9.88873 37.1221Z" fill="white"/>
<mask id="mask3_160_1026" style="mask-type:luminance" maskUnits="userSpaceOnUse" x="9" y="0" width="68" height="48">
<path d="M9.49316 0H76.9598V47.1224H9.49316V0Z" fill="white"/>
</mask>
<g mask="url(#mask3_160_1026)">
<path d="M18.1356 47.0592C18.021 47.0592 17.9122 47.0019 17.852 46.8959C17.7604 46.7413 17.8119 46.5436 17.9695 46.4519L26.9729 41.2327C26.9872 41.2241 27.0044 41.2155 27.0216 41.2097C27.6117 40.9863 28.1989 40.7371 28.7661 40.465C29.4078 40.1613 30.038 39.8261 30.6481 39.4623L45.1028 27.7433L46.2945 25.4001L47.7153 22.3264C47.744 22.2663 47.7898 22.2176 47.8471 22.1832L76.2093 5.39673V0.907926L45.5296 18.6426C45.4695 18.6769 45.4007 18.6913 45.332 18.6855L43.0117 18.4621L41.1296 18.2243L22.4669 25.5376C22.4382 25.5491 22.4096 25.5548 22.3809 25.5605C22.1203 25.5892 21.6132 25.6952 21.1664 26.0905C20.9143 26.311 20.7138 26.5946 20.5877 26.9097C20.5533 26.9957 20.4846 27.0616 20.3958 27.0931C20.3098 27.1246 20.2125 27.1189 20.1294 27.0759L18.3734 26.1592L17.5598 27.3337C17.5484 27.3509 17.5341 27.3652 17.5197 27.3824L16.2622 28.5998L15.2309 29.6254C15.2223 29.6311 15.2138 29.6397 15.2052 29.6483L13.7528 30.8113C13.7471 30.817 13.7385 30.8228 13.7299 30.8285L10.0661 33.2978C9.91714 33.4009 9.71375 33.3608 9.61063 33.2118C9.5075 33.0629 9.54761 32.8624 9.69657 32.7592L13.3518 30.2957L14.7783 29.1527L15.801 28.1387L17.0356 26.9384L17.9953 25.5491C18.0898 25.4144 18.2731 25.3686 18.4192 25.4459L20.1322 26.3426C20.2898 26.0618 20.4932 25.8097 20.7309 25.6006C21.2895 25.1108 21.914 24.9618 22.2635 24.916L40.9664 17.5855C41.0179 17.5655 41.0752 17.5597 41.1296 17.5655L43.0833 17.8147L45.2919 18.0267L76.3726 0.0600096C76.4729 -0.000146436 76.5989 -0.000146436 76.702 0.0600096C76.8023 0.117301 76.8653 0.223291 76.8653 0.340739V5.58006C76.8653 5.69464 76.8051 5.80063 76.7049 5.86079L48.271 22.6902L46.8874 25.678C46.8874 25.6808 46.8846 25.6837 46.8817 25.6866L45.6585 28.0985C45.6356 28.1387 45.607 28.1759 45.5726 28.2045L31.0434 39.9808C31.032 39.9923 31.0177 40.0009 31.0062 40.0095C30.3731 40.3876 29.7171 40.7371 29.0497 41.0551C28.4739 41.3272 27.8781 41.5821 27.2794 41.8084L18.2989 47.0134C18.2473 47.0449 18.1901 47.0592 18.1356 47.0592Z" fill="white"/>
</g>
<path d="M17.0043 30.2499C16.9642 30.2499 16.9269 30.2442 16.8868 30.227L15.0506 29.5309C14.8816 29.4679 14.7957 29.2788 14.8616 29.1127C14.9246 28.9437 15.1136 28.8606 15.2827 28.9236L17.1217 29.6197C17.2907 29.6827 17.3767 29.8718 17.3108 30.0408C17.2621 30.1697 17.136 30.2499 17.0043 30.2499Z" fill="white"/>
<path d="M18.273 29.0352C18.2329 29.0352 18.1928 29.0266 18.1527 29.0123L16.3079 28.2876C16.1389 28.2217 16.0558 28.0326 16.1217 27.8665C16.1876 27.6975 16.3795 27.6173 16.5485 27.6831L18.3933 28.405C18.5623 28.4709 18.6454 28.66 18.5795 28.829C18.528 28.955 18.4048 29.0352 18.273 29.0352Z" fill="white"/>
<path d="M19.5224 27.835C19.4794 27.835 19.4336 27.8264 19.3906 27.8064L17.4885 26.9642C17.3224 26.8926 17.2479 26.6978 17.3224 26.5345C17.3968 26.3712 17.5916 26.2968 17.7578 26.3712L19.657 27.2106C19.8231 27.285 19.8976 27.477 19.8231 27.6431C19.7687 27.7634 19.6484 27.835 19.5224 27.835Z" fill="white"/>
<path d="M15.7751 31.5359V31.5789L19.9144 29.4906L19.7597 28.6771C19.7368 28.551 19.7884 28.425 19.8944 28.3505L20.2696 28.0898L20.1006 27.4109L19.1353 28.3276L17.9092 29.5164L15.7751 31.5359ZM13.8329 31.4242L15.1191 31.7049V31.6276L13.7871 31.1693L13.8329 31.4242ZM15.4457 32.4354C15.4228 32.4354 15.397 32.4325 15.3741 32.4268L13.4748 32.0114C13.3459 31.9857 13.2457 31.8797 13.2228 31.7508L13.0452 30.7367C13.0222 30.6221 13.0652 30.5047 13.154 30.4302C13.2428 30.3557 13.366 30.3328 13.4748 30.37L15.3655 31.0232L17.4537 29.0466L18.6798 27.8578L20.0548 26.5516C20.1407 26.4713 20.261 26.4427 20.3728 26.4742C20.4873 26.5086 20.5733 26.5974 20.6019 26.7091L20.96 28.15C20.9915 28.2818 20.9399 28.4193 20.8282 28.4966L20.4444 28.763L20.6048 29.6109C20.6306 29.7542 20.5618 29.8945 20.43 29.9604L15.5946 32.401C15.5918 32.401 15.5889 32.4039 15.586 32.4039C15.5431 32.4268 15.4944 32.4354 15.4457 32.4354Z" fill="white"/>
<path d="M32.4156 38.7751C32.3984 38.7751 32.3783 38.7751 32.3583 38.7722C32.1807 38.7407 32.0604 38.5717 32.0919 38.3941C32.3096 37.1766 32.7851 32.9227 29.826 29.2074C27.6403 26.4688 24.7757 25.5006 23.2632 25.1654C23.0856 25.1282 22.9739 24.9535 23.014 24.7787C23.0541 24.6011 23.2289 24.4923 23.4036 24.5295C25.002 24.8818 28.0299 25.9045 30.3388 28.8035C33.4697 32.7308 32.9684 37.2225 32.7393 38.5058C32.7106 38.6662 32.5731 38.7751 32.4156 38.7751Z" fill="white"/>
<path d="M29.7744 35.8304C29.5939 35.8304 29.4478 35.6843 29.4478 35.5067C29.445 35.0426 29.3361 30.909 25.8986 28.5257C23.7588 27.0389 21.4814 27.0017 20.3127 27.1134C20.1322 27.1306 19.9718 26.9988 19.9546 26.8184C19.9374 26.6408 20.0721 26.4804 20.2525 26.4632C21.5072 26.3457 23.9622 26.3858 26.2767 27.99C29.9835 30.5624 30.101 35.0054 30.1038 35.5038C30.1038 35.6843 29.9577 35.8304 29.7744 35.8304Z" fill="white"/>
<path d="M28.4626 36.6494C28.2907 36.6494 28.1475 36.5177 28.136 36.3458C28.0615 35.2372 27.6319 32.4127 25.2743 30.1554C23.5813 28.5341 21.6735 27.921 20.3701 27.689C20.1897 27.6575 20.0722 27.4885 20.1037 27.3109C20.1352 27.1333 20.3071 27.0158 20.4847 27.0473C21.8769 27.2937 23.9194 27.9526 25.7298 29.6856C28.2535 32.1005 28.7089 35.1169 28.7892 36.3028C28.8006 36.4833 28.666 36.638 28.4855 36.6494C28.4769 36.6494 28.4683 36.6494 28.4626 36.6494Z" fill="white"/>
<path d="M27.4855 37.122C27.3652 37.122 27.2477 37.0561 27.1904 36.9416C27.1102 36.7811 27.1761 36.5835 27.3365 36.5033L30.5764 34.8962C30.7396 34.816 30.9373 34.8819 31.0175 35.0423C31.0977 35.2028 31.0318 35.3975 30.8714 35.4778L27.6316 37.0876C27.5829 37.1106 27.5342 37.122 27.4855 37.122Z" fill="white"/>
<path d="M27.4859 41.5307C27.4201 41.5307 27.3513 41.5106 27.294 41.4705C27.1479 41.3645 27.1135 41.1612 27.2167 41.0151C27.5289 40.5796 27.7896 40.107 27.9901 39.6143C28.1734 39.1617 28.3081 38.6919 28.3912 38.2106C28.4198 38.033 28.5917 37.9127 28.7693 37.9442C28.9469 37.9757 29.0672 38.1419 29.0385 38.3195C28.9469 38.8466 28.8008 39.3622 28.6003 39.8578C28.3797 40.3992 28.0932 40.9148 27.7523 41.3932C27.6893 41.482 27.5862 41.5307 27.4859 41.5307Z" fill="white"/>
<path d="M28.7148 41.0035C28.6289 41.0035 28.5458 40.972 28.4828 40.9061C28.3539 40.7801 28.3539 40.5738 28.4799 40.4478C28.9612 39.9694 29.3393 39.385 29.5799 38.7577C29.7776 38.2449 29.8836 37.7035 29.895 37.1478C29.8979 36.9702 30.044 36.8298 30.2216 36.8298C30.2244 36.8298 30.2273 36.8298 30.2273 36.8298C30.4106 36.8327 30.5539 36.9817 30.551 37.1621C30.5367 37.7923 30.4164 38.4054 30.1929 38.9897C29.9208 39.7001 29.4911 40.3619 28.9468 40.9061C28.881 40.9692 28.7979 41.0035 28.7148 41.0035Z" fill="white"/>
<path d="M40.4766 32.2409C40.4623 32.2409 40.448 32.2409 40.4308 32.238C40.2532 32.2122 40.1271 32.049 40.1501 31.8714C40.3162 30.6883 40.4795 27.6318 38.4714 24.7557C36.9016 22.507 34.7675 21.4815 33.636 21.0719C33.467 21.0089 33.3782 20.8227 33.4412 20.6537C33.5042 20.4846 33.6933 20.3987 33.8623 20.4589C35.0683 20.8971 37.337 21.9886 39.01 24.3862C41.1498 27.4484 40.9751 30.7026 40.8003 31.9602C40.7803 32.1234 40.637 32.2409 40.4766 32.2409Z" fill="white"/>
<path d="M42.3011 30.7626C42.2811 30.7626 42.2581 30.7597 42.2352 30.754C42.0576 30.7196 41.943 30.5477 41.9803 30.3701C42.029 30.1295 43.1433 24.4347 39.4795 21.4097C38.6459 20.7222 37.6433 20.2381 36.5032 19.9746C36.3256 19.9345 36.2167 19.7569 36.2568 19.5821C36.2969 19.4074 36.4745 19.2985 36.6522 19.3386C37.8925 19.628 38.9868 20.155 39.9006 20.9113C43.8623 24.1798 42.6764 30.2441 42.6219 30.4991C42.5904 30.6537 42.4558 30.7626 42.3011 30.7626Z" fill="white"/>
<path d="M44.3007 29.1414C44.2921 29.1414 44.2807 29.1386 44.2692 29.1386C44.0887 29.1214 43.957 28.961 43.9741 28.7834C44.1174 27.3282 44.0715 24.4951 42.1609 21.8797C41.29 20.6852 40.1671 19.7198 38.8208 19.0066C38.6603 18.9206 38.6002 18.723 38.6833 18.5654C38.7692 18.405 38.9697 18.3448 39.1273 18.4308C40.5653 19.1899 41.7627 20.2211 42.6937 21.4959C44.7275 24.286 44.7791 27.2995 44.6273 28.8464C44.6129 29.0154 44.4697 29.1414 44.3007 29.1414Z" fill="white"/>
<path d="M45.3635 28.2791C45.332 28.2791 45.2976 28.2733 45.2632 28.2619C45.0913 28.2075 44.9968 28.0241 45.0512 27.8522C45.3348 26.9757 46.114 23.8934 44.2749 21.0317C43.278 19.4848 41.9174 18.6283 40.9491 18.1843C40.7859 18.1098 40.7142 17.915 40.7887 17.7517C40.8661 17.5884 41.0609 17.5197 41.2241 17.5942C42.2726 18.0754 43.7478 19.0007 44.8278 20.6793C46.8215 23.7817 45.9822 27.1075 45.6786 28.0528C45.6327 28.1903 45.5038 28.2791 45.3635 28.2791Z" fill="white"/>
<path d="M48.0132 22.7908C47.8355 22.7908 47.6895 22.6476 47.6866 22.47C47.6751 21.8914 47.5434 21.0177 46.959 20.1497C46.4147 19.339 45.7129 18.8893 45.223 18.6544C45.0598 18.577 44.991 18.3822 45.0684 18.2218C45.1486 18.0585 45.3434 17.9898 45.5066 18.0671C46.071 18.3364 46.8788 18.8549 47.5061 19.7888C48.1764 20.7885 48.3311 21.794 48.3426 22.4585C48.3454 22.639 48.2022 22.788 48.0189 22.7908H48.0132Z" fill="white"/>
</svg>
