<svg width="83" height="53" viewBox="0 0 83 53" fill="none" xmlns="http://www.w3.org/2000/svg">
<mask id="mask0_160_140" style="mask-type:luminance" maskUnits="userSpaceOnUse" x="0" y="0" width="83" height="53">
<path d="M0 0H82.6008V53H0V0Z" fill="white"/>
</mask>
<g mask="url(#mask0_160_140)">
<path d="M2.92077 0.736703C1.70711 0.736703 0.720228 1.71671 0.720228 2.91938V50.0256C0.720228 51.2296 1.70711 52.2097 2.92077 52.2097H79.6471C80.8607 52.2097 81.8476 51.2296 81.8476 50.0256V2.91938C81.8476 1.71671 80.8607 0.736703 79.6471 0.736703H2.92077ZM79.6471 52.9244H2.92077C1.30988 52.9244 0 51.6241 0 50.0256V2.91938C0 1.32223 1.30988 0.0219727 2.92077 0.0219727H79.6471C81.258 0.0219727 82.5678 1.32223 82.5678 2.91938V50.0256C82.5678 51.6241 81.258 52.9244 79.6471 52.9244Z" fill="white"/>
</g>
<mask id="mask1_160_140" style="mask-type:luminance" maskUnits="userSpaceOnUse" x="0" y="7" width="83" height="2">
<path d="M0 7.25732H82.6008V8.31293H0V7.25732Z" fill="white"/>
</mask>
<g mask="url(#mask1_160_140)">
<path d="M82.2063 8.03504H0.358649C0.160724 8.03504 -0.00146484 7.8756 -0.00146484 7.67768C-0.00146484 7.48113 0.160724 7.32031 0.358649 7.32031H82.2063C82.4056 7.32031 82.5664 7.48113 82.5664 7.67768C82.5664 7.8756 82.4056 8.03504 82.2063 8.03504Z" fill="white"/>
</g>
<path d="M3.1199 3.35243C2.77766 3.35243 2.50001 3.6287 2.50001 3.96819C2.50001 4.30769 2.77766 4.58396 3.1199 4.58396H13.9371C14.2793 4.58396 14.557 4.30769 14.557 3.96819C14.557 3.6287 14.2793 3.35243 13.9371 3.35243H3.1199ZM13.9371 5.29869H3.1199C2.38181 5.29869 1.77979 4.70079 1.77979 3.96819C1.77979 3.23422 2.38181 2.6377 3.1199 2.6377H13.9371C14.6765 2.6377 15.2772 3.23422 15.2772 3.96819C15.2772 4.70079 14.6765 5.29869 13.9371 5.29869Z" fill="white"/>
<path d="M18.0525 3.35243C17.7103 3.35243 17.4326 3.6287 17.4326 3.96819C17.4326 4.30769 17.7103 4.58396 18.0525 4.58396H28.8697C29.2119 4.58396 29.4896 4.30769 29.4896 3.96819C29.4896 3.6287 29.2119 3.35243 28.8697 3.35243H18.0525ZM28.8697 5.29869H18.0525C17.3131 5.29869 16.7124 4.70079 16.7124 3.96819C16.7124 3.23422 17.3131 2.6377 18.0525 2.6377H28.8697C29.6092 2.6377 30.2098 3.23422 30.2098 3.96819C30.2098 4.70079 29.6092 5.29869 28.8697 5.29869Z" fill="white"/>
<path d="M32.9861 3.35243C32.6439 3.35243 32.3648 3.6287 32.3648 3.96819C32.3648 4.30769 32.6439 4.58396 32.9861 4.58396H43.8019C44.1442 4.58396 44.4232 4.30769 44.4232 3.96819C44.4232 3.6287 44.1442 3.35243 43.8019 3.35243H32.9861ZM43.8019 5.29869H32.9861C32.2466 5.29869 31.646 4.70079 31.646 3.96819C31.646 3.23422 32.2466 2.6377 32.9861 2.6377H43.8019C44.5414 2.6377 45.1434 3.23422 45.1434 3.96819C45.1434 4.70079 44.5414 5.29869 43.8019 5.29869Z" fill="white"/>
<path d="M74.0419 2.62122C73.2213 2.62122 72.5547 3.28372 72.5547 4.09742C72.5547 4.91111 73.2213 5.57361 74.0419 5.57361C74.8611 5.57361 75.5291 4.91111 75.5291 4.09742C75.5291 3.28372 74.8611 2.62122 74.0419 2.62122ZM74.0419 6.28834C72.8241 6.28834 71.8345 5.30559 71.8345 4.09742C71.8345 2.88925 72.8241 1.90649 74.0419 1.90649C75.2583 1.90649 76.2493 2.88925 76.2493 4.09742C76.2493 5.30559 75.2583 6.28834 74.0419 6.28834Z" fill="white"/>
<path d="M74.0418 3.66712C73.8026 3.66712 73.6074 3.85955 73.6074 4.09734C73.6074 4.33512 73.8026 4.52892 74.0418 4.52892C74.2809 4.52892 74.4761 4.33512 74.4761 4.09734C74.4761 3.85955 74.2809 3.66712 74.0418 3.66712ZM74.0418 5.24365C73.4054 5.24365 72.8872 4.7296 72.8872 4.09734C72.8872 3.46645 73.4054 2.95239 74.0418 2.95239C74.6782 2.95239 75.1963 3.46645 75.1963 4.09734C75.1963 4.7296 74.6782 5.24365 74.0418 5.24365Z" fill="white"/>
<path d="M68.4506 2.62122C67.63 2.62122 66.9634 3.28372 66.9634 4.09742C66.9634 4.91111 67.63 5.57361 68.4506 5.57361C69.2698 5.57361 69.9378 4.91111 69.9378 4.09742C69.9378 3.28372 69.2698 2.62122 68.4506 2.62122ZM68.4506 6.28834C67.2328 6.28834 66.2432 5.30559 66.2432 4.09742C66.2432 2.88925 67.2328 1.90649 68.4506 1.90649C69.667 1.90649 70.658 2.88925 70.658 4.09742C70.658 5.30559 69.667 6.28834 68.4506 6.28834Z" fill="white"/>
<path d="M68.4505 3.66712C68.2099 3.66712 68.0161 3.85955 68.0161 4.09734C68.0161 4.33512 68.2099 4.52892 68.4505 4.52892C68.6896 4.52892 68.8848 4.33512 68.8848 4.09734C68.8848 3.85955 68.6896 3.66712 68.4505 3.66712ZM68.4505 5.24365C67.8141 5.24365 67.2959 4.7296 67.2959 4.09734C67.2959 3.46645 67.8141 2.95239 68.4505 2.95239C69.0868 2.95239 69.605 3.46645 69.605 4.09734C69.605 4.7296 69.0868 5.24365 68.4505 5.24365Z" fill="white"/>
<path d="M62.8593 2.62122C62.0387 2.62122 61.3721 3.28372 61.3721 4.09742C61.3721 4.91111 62.0387 5.57361 62.8593 5.57361C63.6785 5.57361 64.3465 4.91111 64.3465 4.09742C64.3465 3.28372 63.6785 2.62122 62.8593 2.62122ZM62.8593 6.28834C61.6415 6.28834 60.6519 5.30559 60.6519 4.09742C60.6519 2.88925 61.6415 1.90649 62.8593 1.90649C64.0757 1.90649 65.0667 2.88925 65.0667 4.09742C65.0667 5.30559 64.0757 6.28834 62.8593 6.28834Z" fill="white"/>
<path d="M62.8592 3.66712C62.6186 3.66712 62.4248 3.85955 62.4248 4.09734C62.4248 4.33512 62.6186 4.52892 62.8592 4.52892C63.0983 4.52892 63.2935 4.33512 63.2935 4.09734C63.2935 3.85955 63.0983 3.66712 62.8592 3.66712ZM62.8592 5.24365C62.2228 5.24365 61.7046 4.7296 61.7046 4.09734C61.7046 3.46645 62.2228 2.95239 62.8592 2.95239C63.4955 2.95239 64.0137 3.46645 64.0137 4.09734C64.0137 4.7296 63.4955 5.24365 62.8592 5.24365Z" fill="white"/>
<path d="M57.2665 2.62122C56.4459 2.62122 55.7793 3.28372 55.7793 4.09742C55.7793 4.91111 56.4459 5.57361 57.2665 5.57361C58.0857 5.57361 58.7537 4.91111 58.7537 4.09742C58.7537 3.28372 58.0857 2.62122 57.2665 2.62122ZM57.2665 6.28834C56.0487 6.28834 55.0591 5.30559 55.0591 4.09742C55.0591 2.88925 56.0487 1.90649 57.2665 1.90649C58.4829 1.90649 59.4739 2.88925 59.4739 4.09742C59.4739 5.30559 58.4829 6.28834 57.2665 6.28834Z" fill="white"/>
<path d="M57.2664 3.66712C57.0258 3.66712 56.832 3.85955 56.832 4.09734C56.832 4.33512 57.0258 4.52892 57.2664 4.52892C57.5055 4.52892 57.7007 4.33512 57.7007 4.09734C57.7007 3.85955 57.5055 3.66712 57.2664 3.66712ZM57.2664 5.24365C56.63 5.24365 56.1118 4.7296 56.1118 4.09734C56.1118 3.46645 56.63 2.95239 57.2664 2.95239C57.9028 2.95239 58.4209 3.46645 58.4209 4.09734C58.4209 4.7296 57.9028 5.24365 57.2664 5.24365Z" fill="white"/>
<path d="M5.0707 47.4596C4.71746 47.4596 4.43019 47.7455 4.43019 48.096V49.1914C4.43019 49.5419 4.71746 49.8265 5.0707 49.8265H12.875C13.2282 49.8265 13.5155 49.5419 13.5155 49.1914V48.096C13.5155 47.7455 13.2282 47.4596 12.875 47.4596H5.0707ZM12.875 50.5412H5.0707C4.32023 50.5412 3.70996 49.9364 3.70996 49.1914V48.096C3.70996 47.351 4.32023 46.7449 5.0707 46.7449H12.875C13.6255 46.7449 14.2357 47.351 14.2357 48.096V49.1914C14.2357 49.9364 13.6255 50.5412 12.875 50.5412Z" fill="white"/>
<path d="M5.0707 42.2186C4.71746 42.2186 4.43019 42.5045 4.43019 42.855V43.9505C4.43019 44.301 4.71746 44.5855 5.0707 44.5855H12.875C13.2282 44.5855 13.5155 44.301 13.5155 43.9505V42.855C13.5155 42.5045 13.2282 42.2186 12.875 42.2186H5.0707ZM12.875 45.3002H5.0707C4.32023 45.3002 3.70996 44.6941 3.70996 43.9505V42.855C3.70996 42.1101 4.32023 41.5039 5.0707 41.5039H12.875C13.6255 41.5039 14.2357 42.1101 14.2357 42.855V43.9505C14.2357 44.6941 13.6255 45.3002 12.875 45.3002Z" fill="white"/>
<path d="M5.0707 36.9777C4.71746 36.9777 4.43019 37.2636 4.43019 37.6141V38.7095C4.43019 39.06 4.71746 39.3445 5.0707 39.3445H12.875C13.2282 39.3445 13.5155 39.06 13.5155 38.7095V37.6141C13.5155 37.2636 13.2282 36.9777 12.875 36.9777H5.0707ZM12.875 40.0593H5.0707C4.32023 40.0593 3.70996 39.4531 3.70996 38.7095V37.6141C3.70996 36.8691 4.32023 36.2629 5.0707 36.2629H12.875C13.6255 36.2629 14.2357 36.8691 14.2357 37.6141V38.7095C14.2357 39.4531 13.6255 40.0593 12.875 40.0593Z" fill="white"/>
<path d="M5.0707 31.7367C4.71746 31.7367 4.43019 32.0226 4.43019 32.3731V33.4672C4.43019 33.819 4.71746 34.1036 5.0707 34.1036H12.875C13.2282 34.1036 13.5155 33.819 13.5155 33.4672V32.3731C13.5155 32.0226 13.2282 31.7367 12.875 31.7367H5.0707ZM12.875 34.8183H5.0707C4.32023 34.8183 3.70996 34.2121 3.70996 33.4672V32.3731C3.70996 31.6281 4.32023 31.022 5.0707 31.022H12.875C13.6255 31.022 14.2357 31.6281 14.2357 32.3731V33.4672C14.2357 34.2121 13.6255 34.8183 12.875 34.8183Z" fill="white"/>
<path d="M5.0707 26.496C4.71746 26.496 4.43019 26.7819 4.43019 27.1324V28.2265C4.43019 28.5783 4.71746 28.8628 5.0707 28.8628H12.875C13.2282 28.8628 13.5155 28.5783 13.5155 28.2265V27.1324C13.5155 26.7819 13.2282 26.496 12.875 26.496H5.0707ZM12.875 29.5776H5.0707C4.32023 29.5776 3.70996 28.9714 3.70996 28.2265V27.1324C3.70996 26.3874 4.32023 25.7812 5.0707 25.7812H12.875C13.6255 25.7812 14.2357 26.3874 14.2357 27.1324V28.2265C14.2357 28.9714 13.6255 29.5776 12.875 29.5776Z" fill="white"/>
<path d="M5.0707 21.255C4.71746 21.255 4.43019 21.5395 4.43019 21.8914V22.9855C4.43019 23.336 4.71746 23.6219 5.0707 23.6219H12.875C13.2282 23.6219 13.5155 23.336 13.5155 22.9855V21.8914C13.5155 21.5395 13.2282 21.255 12.875 21.255H5.0707ZM12.875 24.3366H5.0707C4.32023 24.3366 3.70996 23.7305 3.70996 22.9855V21.8914C3.70996 21.1464 4.32023 20.5403 5.0707 20.5403H12.875C13.6255 20.5403 14.2357 21.1464 14.2357 21.8914V22.9855C14.2357 23.7305 13.6255 24.3366 12.875 24.3366Z" fill="white"/>
<path d="M5.0707 16.014C4.71746 16.014 4.43019 16.2986 4.43019 16.6504V17.7445C4.43019 18.095 4.71746 18.3809 5.0707 18.3809H12.875C13.2282 18.3809 13.5155 18.095 13.5155 17.7445V16.6504C13.5155 16.2986 13.2282 16.014 12.875 16.014H5.0707ZM12.875 19.0956H5.0707C4.32023 19.0956 3.70996 18.4895 3.70996 17.7445V16.6504C3.70996 15.9055 4.32023 15.2993 5.0707 15.2993H12.875C13.6255 15.2993 14.2357 15.9055 14.2357 16.6504V17.7445C14.2357 18.4895 13.6255 19.0956 12.875 19.0956Z" fill="white"/>
<path d="M5.0707 10.7731C4.71746 10.7731 4.43019 11.0576 4.43019 11.4081V12.5036C4.43019 12.854 4.71746 13.1399 5.0707 13.1399H12.875C13.2282 13.1399 13.5155 12.854 13.5155 12.5036V11.4081C13.5155 11.0576 13.2282 10.7731 12.875 10.7731H5.0707ZM12.875 13.8547H5.0707C4.32023 13.8547 3.70996 13.2485 3.70996 12.5036V11.4081C3.70996 10.6645 4.32023 10.0583 5.0707 10.0583H12.875C13.6255 10.0583 14.2357 10.6645 14.2357 11.4081V12.5036C14.2357 13.2485 13.6255 13.8547 12.875 13.8547Z" fill="white"/>
<path d="M19.8858 32.0586H21.8966V12.9423C21.8966 12.6771 21.7908 12.4269 21.6011 12.2372C21.4101 12.0476 21.1585 11.9445 20.8905 11.9445C20.3366 11.9445 19.8858 12.3912 19.8858 12.9423V32.0586ZM22.2567 32.7734H19.5256C19.3263 32.7734 19.1655 32.6139 19.1655 32.416V12.9423C19.1655 11.9981 19.9394 11.2297 20.8905 11.2297C21.351 11.2297 21.7839 11.4084 22.111 11.7314C22.4368 12.0572 22.6168 12.4874 22.6168 12.9423V32.416C22.6168 32.6139 22.456 32.7734 22.2567 32.7734Z" fill="white"/>
<path d="M19.8858 35.5717V47.4458C19.8858 47.9956 20.3366 48.4423 20.8905 48.4423C21.4458 48.4423 21.8966 47.9956 21.8966 47.4458V35.5717H19.8858ZM20.8905 49.157C19.9394 49.157 19.1655 48.3901 19.1655 47.4458V35.2143C19.1655 35.0164 19.3263 34.8569 19.5256 34.8569H22.2567C22.456 34.8569 22.6168 35.0164 22.6168 35.2143V47.4458C22.6168 48.3901 21.843 49.157 20.8905 49.157Z" fill="white"/>
<path d="M18.2765 32.7733C18.1253 32.7733 18.0029 32.8957 18.0029 33.0455V34.5849C18.0029 34.732 18.128 34.857 18.2765 34.857H23.505C23.6562 34.857 23.7785 34.7347 23.7785 34.5849V33.0455C23.7785 32.8957 23.6562 32.7733 23.505 32.7733H18.2765ZM23.505 35.5718H18.2765C17.728 35.5718 17.2827 35.1292 17.2827 34.5849V33.0455C17.2827 32.5012 17.728 32.0586 18.2765 32.0586H23.505C24.0534 32.0586 24.4987 32.5012 24.4987 33.0455V34.5849C24.4987 35.1292 24.0534 35.5718 23.505 35.5718Z" fill="white"/>
<path d="M28.3154 18.8746H30.3263V12.9423C30.3263 12.6771 30.2218 12.4269 30.0308 12.2372C29.8411 12.0476 29.5882 11.9445 29.3202 11.9445C28.7663 11.9445 28.3154 12.3912 28.3154 12.9423V18.8746ZM30.6864 19.5893H27.9553C27.756 19.5893 27.5952 19.4299 27.5952 19.232V12.9423C27.5952 11.9981 28.369 11.2297 29.3202 11.2297C29.7806 11.2297 30.2136 11.4084 30.5407 11.7314C30.8665 12.0572 31.0465 12.4874 31.0465 12.9423V19.232C31.0465 19.4299 30.8857 19.5893 30.6864 19.5893Z" fill="white"/>
<path d="M28.3154 22.3876V47.4457C28.3154 47.9955 28.7663 48.4422 29.3202 48.4422C29.8755 48.4422 30.3263 47.9955 30.3263 47.4457V22.3876H28.3154ZM29.3202 49.157C28.369 49.157 27.5952 48.39 27.5952 47.4457V22.0302C27.5952 21.8337 27.756 21.6729 27.9553 21.6729H30.6864C30.8857 21.6729 31.0465 21.8337 31.0465 22.0302V47.4457C31.0465 48.39 30.2727 49.157 29.3202 49.157Z" fill="white"/>
<path d="M26.7062 19.5891C26.555 19.5891 26.4327 19.7114 26.4327 19.8599V21.402C26.4327 21.5491 26.5578 21.6728 26.7062 21.6728H31.9361C32.0832 21.6728 32.2083 21.5491 32.2083 21.402V19.8599C32.2083 19.7114 32.086 19.5891 31.9361 19.5891H26.7062ZM31.9361 22.3875H26.7062C26.1592 22.3875 25.7139 21.9449 25.7139 21.402V19.8599C25.7139 19.3169 26.1592 18.8757 26.7062 18.8757H31.9361C32.4832 18.8757 32.9285 19.3169 32.9285 19.8599V21.402C32.9285 21.9449 32.4832 22.3875 31.9361 22.3875Z" fill="white"/>
<path d="M36.6875 26.2679H38.6984V12.9423C38.6984 12.6771 38.5939 12.4269 38.4029 12.2372C38.2132 12.0476 37.9603 11.9445 37.6923 11.9445C37.1383 11.9445 36.6875 12.3912 36.6875 12.9423V26.2679ZM39.0585 26.9827H36.3274C36.1281 26.9827 35.9673 26.8219 35.9673 26.6253V12.9423C35.9673 11.9981 36.7411 11.2297 37.6923 11.2297C38.1527 11.2297 38.5857 11.4084 38.9128 11.7314C39.2386 12.0572 39.4186 12.4874 39.4186 12.9423V26.6253C39.4186 26.8219 39.2578 26.9827 39.0585 26.9827Z" fill="white"/>
<path d="M36.6875 29.7797V47.4459C36.6875 47.9957 37.1383 48.4424 37.6923 48.4424C38.2475 48.4424 38.6984 47.9957 38.6984 47.4459V29.7797H36.6875ZM37.6923 49.1571C36.7411 49.1571 35.9673 48.3902 35.9673 47.4459V29.4223C35.9673 29.2258 36.1281 29.0649 36.3274 29.0649H39.0585C39.2578 29.0649 39.4186 29.2258 39.4186 29.4223V47.4459C39.4186 48.3902 38.6448 49.1571 37.6923 49.1571Z" fill="white"/>
<path d="M35.0782 26.9826C34.927 26.9826 34.8047 27.1035 34.8047 27.2533V28.7941C34.8047 28.9412 34.9298 29.0649 35.0782 29.0649H40.3067C40.4579 29.0649 40.5803 28.9439 40.5803 28.7941V27.2533C40.5803 27.1035 40.4579 26.9826 40.3067 26.9826H35.0782ZM40.3067 29.7796H35.0782C34.5298 29.7796 34.0845 29.3384 34.0845 28.7941V27.2533C34.0845 26.7104 34.5298 26.2678 35.0782 26.2678H40.3067C40.8552 26.2678 41.3005 26.7104 41.3005 27.2533V28.7941C41.3005 29.3384 40.8552 29.7796 40.3067 29.7796Z" fill="white"/>
<path d="M45.0884 35.9649H47.0993V12.9423C47.0993 12.6771 46.9948 12.4269 46.8037 12.2372C46.6141 12.0476 46.3612 11.9445 46.0945 11.9445C45.5392 11.9445 45.0884 12.3912 45.0884 12.9423V35.9649ZM47.4594 36.6796H44.7283C44.529 36.6796 44.3682 36.5188 44.3682 36.3223V12.9423C44.3682 11.9981 45.142 11.2297 46.0945 11.2297C46.5536 11.2297 46.9866 11.4084 47.3137 11.7314C47.6408 12.0572 47.8195 12.4874 47.8195 12.9423V36.3223C47.8195 36.5188 47.6587 36.6796 47.4594 36.6796Z" fill="white"/>
<path d="M45.0884 39.4764V47.4457C45.0884 47.9955 45.5392 48.4422 46.0945 48.4422C46.6484 48.4422 47.0993 47.9955 47.0993 47.4457V39.4764H45.0884ZM46.0945 49.1569C45.142 49.1569 44.3682 48.39 44.3682 47.4457V39.1191C44.3682 38.9225 44.529 38.7617 44.7283 38.7617H47.4594C47.6587 38.7617 47.8195 38.9225 47.8195 39.1191V47.4457C47.8195 48.39 47.0457 49.1569 46.0945 49.1569Z" fill="white"/>
<path d="M43.4791 36.6793C43.3307 36.6793 43.2056 36.803 43.2056 36.9501V38.4909C43.2056 38.638 43.3307 38.763 43.4791 38.763H48.7076C48.8588 38.763 48.9812 38.6407 48.9812 38.4909V36.9501C48.9812 36.8003 48.8588 36.6793 48.7076 36.6793H43.4791ZM48.7076 39.4764H43.4791C42.9307 39.4764 42.4854 39.0352 42.4854 38.4909V36.9501C42.4854 36.4058 42.9307 35.9646 43.4791 35.9646H48.7076C49.256 35.9646 49.7014 36.4058 49.7014 36.9501V38.4909C49.7014 39.0352 49.256 39.4764 48.7076 39.4764Z" fill="white"/>
<path d="M53.4893 14.5436H55.5001V12.9423C55.5001 12.6771 55.3957 12.4269 55.2046 12.2372C55.0149 12.0476 54.762 11.9445 54.4954 11.9445C53.9401 11.9445 53.4893 12.3912 53.4893 12.9423V14.5436ZM55.8603 15.2583H53.1292C52.9299 15.2583 52.769 15.0975 52.769 14.901V12.9423C52.769 11.9981 53.5429 11.2297 54.4954 11.2297C54.9545 11.2297 55.3874 11.4084 55.7146 11.7314C56.0417 12.0572 56.2204 12.4874 56.2204 12.9423V14.901C56.2204 15.0975 56.0596 15.2583 55.8603 15.2583Z" fill="white"/>
<path d="M53.4893 18.0553V47.4458C53.4893 47.9956 53.9401 48.4423 54.4954 48.4423C55.0493 48.4423 55.5001 47.9956 55.5001 47.4458V18.0553H53.4893ZM54.4954 49.1571C53.5429 49.1571 52.769 48.3901 52.769 47.4458V17.6979C52.769 17.5014 52.9299 17.3406 53.1292 17.3406H55.8603C56.0596 17.3406 56.2204 17.5014 56.2204 17.6979V47.4458C56.2204 48.3901 55.4465 49.1571 54.4954 49.1571Z" fill="white"/>
<path d="M51.88 15.2582C51.7315 15.2582 51.6065 15.3819 51.6065 15.529V17.0711C51.6065 17.2168 51.7315 17.3405 51.88 17.3405H57.1085C57.2597 17.3405 57.382 17.2196 57.382 17.0711V15.529C57.382 15.3791 57.2597 15.2582 57.1085 15.2582H51.88ZM57.1085 18.0553H51.88C51.3316 18.0553 50.8862 17.614 50.8862 17.0711V15.529C50.8862 14.986 51.3316 14.5435 51.88 14.5435H57.1085C57.6569 14.5435 58.1023 14.986 58.1023 15.529V17.0711C58.1023 17.614 57.6569 18.0553 57.1085 18.0553Z" fill="white"/>
<path d="M61.8902 42.4291H63.901V12.9423C63.901 12.6771 63.7966 12.4269 63.6055 12.2372C63.4158 12.0476 63.1629 11.9445 62.8963 11.9445C62.341 11.9445 61.8902 12.3912 61.8902 12.9423V42.4291ZM64.2611 43.1438H61.53C61.3307 43.1438 61.1699 42.9844 61.1699 42.7865V12.9423C61.1699 11.9981 61.9438 11.2297 62.8963 11.2297C63.3553 11.2297 63.7897 11.4084 64.1154 11.7314C64.4426 12.0572 64.6212 12.4874 64.6212 12.9423V42.7865C64.6212 42.9844 64.4604 43.1438 64.2611 43.1438Z" fill="white"/>
<path d="M61.8902 45.942V47.4457C61.8902 47.9955 62.341 48.4422 62.8963 48.4422C63.4502 48.4422 63.901 47.9955 63.901 47.4457V45.942H61.8902ZM62.8963 49.1569C61.9438 49.1569 61.1699 48.39 61.1699 47.4457V45.5847C61.1699 45.3867 61.3307 45.2273 61.53 45.2273H64.2611C64.4604 45.2273 64.6212 45.3867 64.6212 45.5847V47.4457C64.6212 48.39 63.8474 49.1569 62.8963 49.1569Z" fill="white"/>
<path d="M60.2809 43.1437C60.1324 43.1437 60.0073 43.2674 60.0073 43.4145V44.9566C60.0073 45.1023 60.1324 45.2274 60.2809 45.2274H65.5094C65.6606 45.2274 65.7843 45.1051 65.7843 44.9566V43.4145C65.7843 43.2646 65.6606 43.1437 65.5094 43.1437H60.2809ZM65.5094 45.9421H60.2809C59.7324 45.9421 59.2871 45.4995 59.2871 44.9566V43.4145C59.2871 42.8715 59.7324 42.429 60.2809 42.429H65.5094C66.0578 42.429 66.5031 42.8715 66.5031 43.4145V44.9566C66.5031 45.4995 66.0578 45.9421 65.5094 45.9421Z" fill="white"/>
<path d="M73.5264 36.9501C71.2324 36.9501 69.3672 38.8015 69.3672 41.0776C69.3672 43.3538 71.2324 45.2066 73.5264 45.2066C75.8204 45.2066 77.6869 43.3538 77.6869 41.0776C77.6869 38.8015 75.8204 36.9501 73.5264 36.9501ZM73.5264 45.9213C70.8365 45.9213 68.647 43.7483 68.647 41.0776C68.647 38.407 70.8365 36.2354 73.5264 36.2354C76.2176 36.2354 78.4058 38.407 78.4058 41.0776C78.4058 43.7483 76.2176 45.9213 73.5264 45.9213Z" fill="white"/>
<path d="M73.5263 39.5067C72.6535 39.5067 71.9429 40.2105 71.9429 41.0778C71.9429 41.9437 72.6535 42.6488 73.5263 42.6488C74.3991 42.6488 75.1097 41.9437 75.1097 41.0778C75.1097 40.2105 74.3991 39.5067 73.5263 39.5067ZM73.5263 43.3635C72.2563 43.3635 71.2227 42.3382 71.2227 41.0778C71.2227 39.8174 72.2563 38.792 73.5263 38.792C74.7963 38.792 75.8299 39.8174 75.8299 41.0778C75.8299 42.3382 74.7963 43.3635 73.5263 43.3635Z" fill="white"/>
<path d="M73.5264 25.5145C71.2324 25.5145 69.3672 27.3673 69.3672 29.6435C69.3672 31.9196 71.2324 33.771 73.5264 33.771C75.8204 33.771 77.6869 31.9196 77.6869 29.6435C77.6869 27.3673 75.8204 25.5145 73.5264 25.5145ZM73.5264 34.4858C70.8365 34.4858 68.647 32.3141 68.647 29.6435C68.647 26.9729 70.8365 24.7998 73.5264 24.7998C76.2176 24.7998 78.4058 26.9729 78.4058 29.6435C78.4058 32.3141 76.2176 34.4858 73.5264 34.4858Z" fill="white"/>
<path d="M73.5263 28.0712C72.6535 28.0712 71.9429 28.7763 71.9429 29.6422C71.9429 30.5095 72.6535 31.2146 73.5263 31.2146C74.3991 31.2146 75.1097 30.5095 75.1097 29.6422C75.1097 28.7763 74.3991 28.0712 73.5263 28.0712ZM73.5263 31.9293C72.2563 31.9293 71.2227 30.9026 71.2227 29.6422C71.2227 28.3818 72.2563 27.3564 73.5263 27.3564C74.7963 27.3564 75.8299 28.3818 75.8299 29.6422C75.8299 30.9026 74.7963 31.9293 73.5263 31.9293Z" fill="white"/>
<path d="M73.5264 14.0802C71.2324 14.0802 69.3672 15.9316 69.3672 18.2078C69.3672 20.4839 71.2324 22.3367 73.5264 22.3367C75.8204 22.3367 77.6869 20.4839 77.6869 18.2078C77.6869 15.9316 75.8204 14.0802 73.5264 14.0802ZM73.5264 23.0514C70.8365 23.0514 68.647 20.8784 68.647 18.2078C68.647 15.5372 70.8365 13.3655 73.5264 13.3655C76.2176 13.3655 78.4058 15.5372 78.4058 18.2078C78.4058 20.8784 76.2176 23.0514 73.5264 23.0514Z" fill="white"/>
<path d="M73.5263 16.6366C72.6535 16.6366 71.9429 17.3403 71.9429 18.2076C71.9429 19.0736 72.6535 19.7787 73.5263 19.7787C74.3991 19.7787 75.1097 19.0736 75.1097 18.2076C75.1097 17.3403 74.3991 16.6366 73.5263 16.6366ZM73.5263 20.4934C72.2563 20.4934 71.2227 19.468 71.2227 18.2076C71.2227 16.9472 72.2563 15.9219 73.5263 15.9219C74.7963 15.9219 75.8299 16.9472 75.8299 18.2076C75.8299 19.468 74.7963 20.4934 73.5263 20.4934Z" fill="white"/>
</svg>
