<svg width="74" height="68" viewBox="0 0 74 68" fill="none" xmlns="http://www.w3.org/2000/svg">
<mask id="mask0_160_198" style="mask-type:luminance" maskUnits="userSpaceOnUse" x="3" y="3" width="67" height="62">
<path d="M3.7168 3.42725H69.5054V64.2403H3.7168V3.42725Z" fill="white"/>
</mask>
<g mask="url(#mask0_160_198)">
<mask id="mask1_160_198" style="mask-type:luminance" maskUnits="userSpaceOnUse" x="0" y="0" width="74" height="69">
<path d="M0 0.829268V67.2766C0 67.7344 0.371443 68.1058 0.829268 68.1058H72.4703C72.9281 68.1058 73.2995 67.7344 73.2995 67.2766V0.829268C73.2995 0.371443 72.9281 0 72.4703 0H0.829268C0.371443 0 0 0.371443 0 0.829268Z" fill="white"/>
</mask>
<g mask="url(#mask1_160_198)">
<path d="M4.06641 19.3885V63.8451H69.4879V3.87646H4.06641V19.3885ZM68.393 44.2579H56.2196V31.3352L68.3995 31.2013V44.2579H68.393ZM7.86506 20.4899H13.6764V44.2644H7.86506V20.4899ZM14.7713 20.4899H20.5827V44.2644H14.7713V20.4899ZM21.6776 20.4899H27.4889V44.2644H21.6776V20.4899ZM28.5903 20.4899H34.4016V44.2644H28.5903V20.4899ZM35.4944 20.4899H41.3057V44.2644H35.4944V20.4899ZM42.4006 31.4842L48.212 31.4216V44.2579H42.4006V31.4842ZM55.1247 37.6H49.3134V31.4064L55.1247 31.3438V37.6ZM49.3134 38.7014H55.1247V44.2644H49.3134V38.7014ZM68.393 30.1086L42.4006 30.3893V20.4899H68.393V30.1086ZM5.16778 20.4899H6.77017V62.7502H5.16778V20.4899ZM7.86506 45.3593H13.6764V62.7567H7.86506V45.3593ZM14.7713 45.3593H20.5827V62.7567H14.7713V45.3593ZM21.6776 45.3593H27.4889V62.7567H21.6776V45.3593ZM28.5903 45.3593H34.4016V62.7567H28.5903V45.3593ZM35.4944 62.7502V45.3593H41.3057V62.7567H35.4944V62.7502ZM42.4006 62.7502V45.3593H48.212V62.7567H42.4006V62.7502ZM49.3134 62.7502V45.3593H55.1247V62.7567H49.3134V62.7502ZM56.2196 62.7502V45.3593H62.031V62.7567H56.2196V62.7502ZM68.393 62.7502H63.1259V45.3593H68.393V62.7502ZM58.1179 12.6745H68.393V19.2827H58.1179V12.6745ZM68.393 11.5796H58.1179V4.9692H68.393V11.5796ZM57.0251 19.2827H42.4071V4.9692H57.0251V19.2827ZM41.3057 19.2827H35.4944V4.9692H41.3057V19.2827ZM34.4016 19.2827H28.5903V4.9692H34.4016V19.2827ZM27.4889 19.2827H21.6776V4.9692H27.4889V19.2827ZM20.5827 19.2827H14.7713V4.9692H20.5827V19.2827ZM13.6764 19.2827H7.86506V4.9692H13.6764V19.2827ZM5.16778 4.9692H6.77017V19.2827H5.16778V4.9692Z" fill="white"/>
</g>
</g>
<mask id="mask2_160_198" style="mask-type:luminance" maskUnits="userSpaceOnUse" x="8" y="6" width="6" height="6">
<path d="M8.13916 6.19141H13.6676V11.7199H8.13916V6.19141Z" fill="white"/>
</mask>
<g mask="url(#mask2_160_198)">
<mask id="mask3_160_198" style="mask-type:luminance" maskUnits="userSpaceOnUse" x="0" y="0" width="74" height="69">
<path d="M0 0.829268V67.2766C0 67.7344 0.371443 68.1058 0.829268 68.1058H72.4703C72.9281 68.1058 73.2995 67.7344 73.2995 67.2766V0.829268C73.2995 0.371443 72.9281 0 72.4703 0H0.829268C0.371443 0 0 0.371443 0 0.829268Z" fill="white"/>
</mask>
<g mask="url(#mask3_160_198)">
<path d="M10.7675 11.5514C12.1798 11.5514 13.3244 10.4003 13.3244 8.99445C13.3244 7.5821 12.1734 6.4397 10.7675 6.4397C9.36162 6.4397 8.2041 7.57562 8.2041 8.98797C8.2041 10.4003 9.35514 11.5514 10.7675 11.5514ZM10.7675 7.52595C11.573 7.52595 12.2295 8.18246 12.2295 8.98797C12.2295 9.79348 11.573 10.45 10.7675 10.45C9.96198 10.45 9.30547 9.79348 9.30547 8.98797C9.30547 8.18246 9.9555 7.52595 10.7675 7.52595Z" fill="white"/>
</g>
</g>
<mask id="mask4_160_198" style="mask-type:luminance" maskUnits="userSpaceOnUse" x="8" y="13" width="6" height="5">
<path d="M8.69238 13.9314H13.1151V17.8013H8.69238V13.9314Z" fill="white"/>
</mask>
<g mask="url(#mask4_160_198)">
<mask id="mask5_160_198" style="mask-type:luminance" maskUnits="userSpaceOnUse" x="0" y="0" width="74" height="69">
<path d="M0 0.829268V67.2766C0 67.7344 0.371443 68.1058 0.829268 68.1058H72.4703C72.9281 68.1058 73.2995 67.7344 73.2995 67.2766V0.829268C73.2995 0.371443 72.9281 0 72.4703 0H0.829268C0.371443 0 0 0.371443 0 0.829268Z" fill="white"/>
</mask>
<g mask="url(#mask5_160_198)">
<path d="M10.7676 14.1709C9.77208 14.1709 8.95361 14.9829 8.95361 15.9849C8.95361 16.9805 9.76561 17.7989 10.7676 17.7989C11.7697 17.7989 12.5817 16.987 12.5817 15.9849C12.5752 14.9829 11.7632 14.1709 10.7676 14.1709ZM10.7676 16.6976C10.3724 16.6976 10.055 16.3801 10.055 15.9849C10.055 15.5897 10.3724 15.2723 10.7676 15.2723C11.1628 15.2723 11.4803 15.5897 11.4803 15.9849C11.4803 16.3801 11.1564 16.6976 10.7676 16.6976Z" fill="white"/>
</g>
</g>
<mask id="mask6_160_198" style="mask-type:luminance" maskUnits="userSpaceOnUse" x="9" y="7" width="4" height="4">
<path d="M9.79785 7.84985H12.0092V10.0612H9.79785V7.84985Z" fill="white"/>
</mask>
<g mask="url(#mask6_160_198)">
<mask id="mask7_160_198" style="mask-type:luminance" maskUnits="userSpaceOnUse" x="0" y="0" width="74" height="69">
<path d="M0 0.829268V67.2766C0 67.7344 0.371443 68.1058 0.829268 68.1058H72.4703C72.9281 68.1058 73.2995 67.7344 73.2995 67.2766V0.829268C73.2995 0.371443 72.9281 0 72.4703 0H0.829268C0.371443 0 0 0.371443 0 0.829268Z" fill="white"/>
</mask>
<g mask="url(#mask7_160_198)">
<path d="M11.5862 8.98815C11.5862 9.09613 11.5667 9.20194 11.5235 9.30128C11.4825 9.40278 11.4242 9.49132 11.3464 9.56691C11.2709 9.64465 11.1823 9.70296 11.0808 9.74399C10.9815 9.78718 10.8757 9.80662 10.7677 9.80662C10.6597 9.80662 10.5539 9.78718 10.4546 9.74399C10.3531 9.70296 10.2645 9.64465 10.1889 9.56691C10.1112 9.49132 10.0529 9.40278 10.0118 9.30128C9.96865 9.20194 9.94922 9.09613 9.94922 8.98815C9.94922 8.88017 9.96865 8.77435 10.0118 8.67501C10.0529 8.57351 10.1112 8.48497 10.1889 8.40939C10.2645 8.33164 10.3531 8.27334 10.4546 8.2323C10.5539 8.18911 10.6597 8.16968 10.7677 8.16968C10.8757 8.16968 10.9815 8.18911 11.0808 8.2323C11.1823 8.27334 11.2709 8.33164 11.3464 8.40939C11.4242 8.48497 11.4825 8.57351 11.5235 8.67501C11.5667 8.77435 11.5862 8.88017 11.5862 8.98815Z" fill="white"/>
</g>
</g>
<mask id="mask8_160_198" style="mask-type:luminance" maskUnits="userSpaceOnUse" x="14" y="6" width="7" height="6">
<path d="M14.7734 6.19141H20.3019V11.7199H14.7734V6.19141Z" fill="white"/>
</mask>
<g mask="url(#mask8_160_198)">
<mask id="mask9_160_198" style="mask-type:luminance" maskUnits="userSpaceOnUse" x="0" y="0" width="74" height="69">
<path d="M0 0.829268V67.2766C0 67.7344 0.371443 68.1058 0.829268 68.1058H72.4703C72.9281 68.1058 73.2995 67.7344 73.2995 67.2766V0.829268C73.2995 0.371443 72.9281 0 72.4703 0H0.829268C0.371443 0 0 0.371443 0 0.829268Z" fill="white"/>
</mask>
<g mask="url(#mask9_160_198)">
<path d="M17.6651 11.5514C19.0775 11.5514 20.222 10.4003 20.222 8.99445C20.222 7.5821 19.071 6.4397 17.6651 6.4397C16.2614 6.4397 15.1104 7.57562 15.1104 8.98797C15.1104 10.4003 16.2549 11.5514 17.6651 11.5514ZM17.6651 7.52595C18.4706 7.52595 19.1271 8.18246 19.1271 8.98797C19.1271 9.79348 18.4706 10.45 17.6651 10.45C16.8617 10.45 16.2052 9.79348 16.2052 8.98797C16.2052 8.18246 16.8617 7.52595 17.6651 7.52595Z" fill="white"/>
</g>
</g>
<mask id="mask10_160_198" style="mask-type:luminance" maskUnits="userSpaceOnUse" x="15" y="13" width="5" height="5">
<path d="M15.3262 13.9314H19.7489V17.8013H15.3262V13.9314Z" fill="white"/>
</mask>
<g mask="url(#mask10_160_198)">
<mask id="mask11_160_198" style="mask-type:luminance" maskUnits="userSpaceOnUse" x="0" y="0" width="74" height="69">
<path d="M0 0.829268V67.2766C0 67.7344 0.371443 68.1058 0.829268 68.1058H72.4703C72.9281 68.1058 73.2995 67.7344 73.2995 67.2766V0.829268C73.2995 0.371443 72.9281 0 72.4703 0H0.829268C0.371443 0 0 0.371443 0 0.829268Z" fill="white"/>
</mask>
<g mask="url(#mask11_160_198)">
<path d="M17.6651 14.1709C16.6695 14.1709 15.8511 14.9829 15.8511 15.9849C15.8511 16.9805 16.6631 17.7989 17.6651 17.7989C18.6693 17.7989 19.4813 16.987 19.4813 15.9849C19.4748 14.9829 18.6607 14.1709 17.6651 14.1709ZM17.6651 16.6976C17.2699 16.6976 16.9524 16.3801 16.9524 15.9849C16.9524 15.5897 17.2699 15.2723 17.6651 15.2723C18.0625 15.2723 18.3799 15.5897 18.3799 15.9849C18.3799 16.3801 18.0625 16.6976 17.6651 16.6976Z" fill="white"/>
</g>
</g>
<mask id="mask12_160_198" style="mask-type:luminance" maskUnits="userSpaceOnUse" x="16" y="7" width="3" height="4">
<path d="M16.4321 7.84985H18.6435V10.0612H16.4321V7.84985Z" fill="white"/>
</mask>
<g mask="url(#mask12_160_198)">
<mask id="mask13_160_198" style="mask-type:luminance" maskUnits="userSpaceOnUse" x="0" y="0" width="74" height="69">
<path d="M0 0.829268V67.2766C0 67.7344 0.371443 68.1058 0.829268 68.1058H72.4703C72.9281 68.1058 73.2995 67.7344 73.2995 67.2766V0.829268C73.2995 0.371443 72.9281 0 72.4703 0H0.829268C0.371443 0 0 0.371443 0 0.829268Z" fill="white"/>
</mask>
<g mask="url(#mask13_160_198)">
<path d="M18.4858 8.98815C18.4858 9.09613 18.4642 9.20194 18.4232 9.30128C18.3821 9.40278 18.3217 9.49132 18.2461 9.56691C18.1683 9.64465 18.0798 9.70296 17.9804 9.74399C17.8789 9.78718 17.7753 9.80662 17.6652 9.80662C17.5572 9.80662 17.4535 9.78718 17.352 9.74399C17.2527 9.70296 17.1641 9.64465 17.0864 9.56691C17.0108 9.49132 16.9503 9.40278 16.9093 9.30128C16.8683 9.20194 16.8467 9.09613 16.8467 8.98815C16.8467 8.88017 16.8683 8.77435 16.9093 8.67501C16.9503 8.57351 17.0108 8.48497 17.0864 8.40939C17.1641 8.33164 17.2527 8.27334 17.352 8.2323C17.4535 8.18911 17.5572 8.16968 17.6652 8.16968C17.7753 8.16968 17.8789 8.18911 17.9804 8.2323C18.0798 8.27334 18.1683 8.33164 18.2461 8.40939C18.3217 8.48497 18.3821 8.57351 18.4232 8.67501C18.4642 8.77435 18.4858 8.88017 18.4858 8.98815Z" fill="white"/>
</g>
</g>
<mask id="mask14_160_198" style="mask-type:luminance" maskUnits="userSpaceOnUse" x="21" y="6" width="7" height="6">
<path d="M21.9604 6.19141H27.4889V11.7199H21.9604V6.19141Z" fill="white"/>
</mask>
<g mask="url(#mask14_160_198)">
<mask id="mask15_160_198" style="mask-type:luminance" maskUnits="userSpaceOnUse" x="0" y="0" width="74" height="69">
<path d="M0 0.829268V67.2766C0 67.7344 0.371443 68.1058 0.829268 68.1058H72.4703C72.9281 68.1058 73.2995 67.7344 73.2995 67.2766V0.829268C73.2995 0.371443 72.9281 0 72.4703 0H0.829268C0.371443 0 0 0.371443 0 0.829268Z" fill="white"/>
</mask>
<g mask="url(#mask15_160_198)">
<path d="M24.5867 11.5514C25.999 11.5514 27.1414 10.4003 27.1414 8.99445C27.1414 7.5821 25.9904 6.4397 24.5867 6.4397C23.1743 6.4397 22.0298 7.59074 22.0298 8.99445C22.0298 10.4003 23.1808 11.5514 24.5867 11.5514ZM24.5867 7.52595C25.39 7.52595 26.0487 8.18246 26.0487 8.98797C26.0487 9.79348 25.39 10.45 24.5867 10.45C23.7812 10.45 23.1247 9.79348 23.1247 8.98797C23.1247 8.18246 23.7812 7.52595 24.5867 7.52595Z" fill="white"/>
</g>
</g>
<mask id="mask16_160_198" style="mask-type:luminance" maskUnits="userSpaceOnUse" x="22" y="13" width="5" height="5">
<path d="M22.5132 13.9314H26.9359V17.8013H22.5132V13.9314Z" fill="white"/>
</mask>
<g mask="url(#mask16_160_198)">
<mask id="mask17_160_198" style="mask-type:luminance" maskUnits="userSpaceOnUse" x="0" y="0" width="74" height="69">
<path d="M0 0.829268V67.2766C0 67.7344 0.371443 68.1058 0.829268 68.1058H72.4703C72.9281 68.1058 73.2995 67.7344 73.2995 67.2766V0.829268C73.2995 0.371443 72.9281 0 72.4703 0H0.829268C0.371443 0 0 0.371443 0 0.829268Z" fill="white"/>
</mask>
<g mask="url(#mask17_160_198)">
<path d="M24.5867 14.1709C23.5911 14.1709 22.7705 14.9829 22.7705 15.9849C22.7705 16.9805 23.5825 17.7989 24.5867 17.7989C25.5822 17.7989 26.4007 16.987 26.4007 15.9849C26.4007 14.9829 25.5887 14.1709 24.5867 14.1709ZM24.5867 16.6976C24.1915 16.6976 23.874 16.3801 23.874 15.9849C23.874 15.5897 24.1915 15.2723 24.5867 15.2723C24.9819 15.2723 25.2993 15.5897 25.2993 15.9849C25.3058 16.3801 24.9819 16.6976 24.5867 16.6976Z" fill="white"/>
</g>
</g>
<mask id="mask18_160_198" style="mask-type:luminance" maskUnits="userSpaceOnUse" x="23" y="7" width="3" height="4">
<path d="M23.6191 7.84985H25.8305V10.0612H23.6191V7.84985Z" fill="white"/>
</mask>
<g mask="url(#mask18_160_198)">
<mask id="mask19_160_198" style="mask-type:luminance" maskUnits="userSpaceOnUse" x="0" y="0" width="74" height="69">
<path d="M0 0.829268V67.2766C0 67.7344 0.371443 68.1058 0.829268 68.1058H72.4703C72.9281 68.1058 73.2995 67.7344 73.2995 67.2766V0.829268C73.2995 0.371443 72.9281 0 72.4703 0H0.829268C0.371443 0 0 0.371443 0 0.829268Z" fill="white"/>
</mask>
<g mask="url(#mask19_160_198)">
<path d="M25.4052 8.98815C25.4052 9.09613 25.3836 9.20194 25.3426 9.30128C25.3016 9.40278 25.2432 9.49132 25.1655 9.56691C25.0878 9.64465 24.9992 9.70296 24.8999 9.74399C24.7984 9.78718 24.6947 9.80662 24.5867 9.80662C24.4766 9.80662 24.3729 9.78718 24.2736 9.74399C24.1721 9.70296 24.0836 9.64465 24.008 9.56691C23.9302 9.49132 23.8719 9.40278 23.8287 9.30128C23.7877 9.20194 23.7661 9.09613 23.7661 8.98815C23.7661 8.88017 23.7877 8.77435 23.8287 8.67501C23.8719 8.57351 23.9302 8.48497 24.008 8.40939C24.0836 8.33164 24.1721 8.27334 24.2736 8.2323C24.3729 8.18911 24.4766 8.16968 24.5867 8.16968C24.6947 8.16968 24.7984 8.18911 24.8999 8.2323C24.9992 8.27334 25.0878 8.33164 25.1655 8.40939C25.2432 8.48497 25.3016 8.57351 25.3426 8.67501C25.3836 8.77435 25.4052 8.88017 25.4052 8.98815Z" fill="white"/>
</g>
</g>
<mask id="mask20_160_198" style="mask-type:luminance" maskUnits="userSpaceOnUse" x="28" y="6" width="7" height="6">
<path d="M28.5947 6.19141H34.1232V11.7199H28.5947V6.19141Z" fill="white"/>
</mask>
<g mask="url(#mask20_160_198)">
<mask id="mask21_160_198" style="mask-type:luminance" maskUnits="userSpaceOnUse" x="0" y="0" width="74" height="69">
<path d="M0 0.829268V67.2766C0 67.7344 0.371443 68.1058 0.829268 68.1058H72.4703C72.9281 68.1058 73.2995 67.7344 73.2995 67.2766V0.829268C73.2995 0.371443 72.9281 0 72.4703 0H0.829268C0.371443 0 0 0.371443 0 0.829268Z" fill="white"/>
</mask>
<g mask="url(#mask21_160_198)">
<path d="M31.4908 11.5514C32.9032 11.5514 34.0477 10.4003 34.0477 8.99445C34.0477 7.5821 32.8967 6.4397 31.4908 6.4397C30.0806 6.4397 28.9361 7.59074 28.9361 8.99445C28.9296 10.4003 30.0806 11.5514 31.4908 11.5514ZM31.4908 7.52595C32.2963 7.52595 32.9528 8.18246 32.9528 8.98797C32.9528 9.79348 32.2963 10.45 31.4908 10.45C30.6875 10.45 30.031 9.79348 30.031 8.98797C30.031 8.18246 30.6788 7.52595 31.4908 7.52595Z" fill="white"/>
</g>
</g>
<mask id="mask22_160_198" style="mask-type:luminance" maskUnits="userSpaceOnUse" x="29" y="13" width="5" height="5">
<path d="M29.1475 13.9314H33.5702V17.8013H29.1475V13.9314Z" fill="white"/>
</mask>
<g mask="url(#mask22_160_198)">
<mask id="mask23_160_198" style="mask-type:luminance" maskUnits="userSpaceOnUse" x="0" y="0" width="74" height="69">
<path d="M0 0.829268V67.2766C0 67.7344 0.371443 68.1058 0.829268 68.1058H72.4703C72.9281 68.1058 73.2995 67.7344 73.2995 67.2766V0.829268C73.2995 0.371443 72.9281 0 72.4703 0H0.829268C0.371443 0 0 0.371443 0 0.829268Z" fill="white"/>
</mask>
<g mask="url(#mask23_160_198)">
<path d="M31.4908 14.1709C30.4952 14.1709 29.6768 14.9829 29.6768 15.9849C29.6768 16.9805 30.4887 17.7989 31.4908 17.7989C32.4885 17.7989 33.307 16.987 33.307 15.9849C33.3005 14.9829 32.4885 14.1709 31.4908 14.1709ZM31.4908 16.6976C31.0956 16.6976 30.7781 16.3801 30.7781 15.9849C30.7781 15.5897 31.0956 15.2723 31.4908 15.2723C31.8881 15.2723 32.2056 15.5897 32.2056 15.9849C32.2056 16.3801 31.8795 16.6976 31.4908 16.6976Z" fill="white"/>
</g>
</g>
<mask id="mask24_160_198" style="mask-type:luminance" maskUnits="userSpaceOnUse" x="30" y="7" width="3" height="4">
<path d="M30.2534 7.84985H32.4648V10.0612H30.2534V7.84985Z" fill="white"/>
</mask>
<g mask="url(#mask24_160_198)">
<mask id="mask25_160_198" style="mask-type:luminance" maskUnits="userSpaceOnUse" x="0" y="0" width="74" height="69">
<path d="M0 0.829268V67.2766C0 67.7344 0.371443 68.1058 0.829268 68.1058H72.4703C72.9281 68.1058 73.2995 67.7344 73.2995 67.2766V0.829268C73.2995 0.371443 72.9281 0 72.4703 0H0.829268C0.371443 0 0 0.371443 0 0.829268Z" fill="white"/>
</mask>
<g mask="url(#mask25_160_198)">
<path d="M32.3115 8.98815C32.3115 9.09613 32.2899 9.20194 32.2488 9.30128C32.2078 9.40278 32.1473 9.49132 32.0718 9.56691C31.994 9.64465 31.9055 9.70296 31.8061 9.74399C31.7046 9.78718 31.601 9.80662 31.4908 9.80662C31.3829 9.80662 31.2792 9.78718 31.1777 9.74399C31.0784 9.70296 30.9898 9.64465 30.9121 9.56691C30.8365 9.49132 30.776 9.40278 30.735 9.30128C30.694 9.20194 30.6724 9.09613 30.6724 8.98815C30.6724 8.88017 30.694 8.77435 30.735 8.67501C30.776 8.57351 30.8365 8.48497 30.9121 8.40939C30.9898 8.33164 31.0784 8.27334 31.1777 8.2323C31.2792 8.18911 31.3829 8.16968 31.4908 8.16968C31.601 8.16968 31.7046 8.18911 31.8061 8.2323C31.9055 8.27334 31.994 8.33164 32.0718 8.40939C32.1473 8.48497 32.2078 8.57351 32.2488 8.67501C32.2899 8.77435 32.3115 8.88017 32.3115 8.98815Z" fill="white"/>
</g>
</g>
<mask id="mask26_160_198" style="mask-type:luminance" maskUnits="userSpaceOnUse" x="35" y="6" width="7" height="6">
<path d="M35.7817 6.19141H41.3102V11.7199H35.7817V6.19141Z" fill="white"/>
</mask>
<g mask="url(#mask26_160_198)">
<mask id="mask27_160_198" style="mask-type:luminance" maskUnits="userSpaceOnUse" x="0" y="0" width="74" height="69">
<path d="M0 0.829268V67.2766C0 67.7344 0.371443 68.1058 0.829268 68.1058H72.4703C72.9281 68.1058 73.2995 67.7344 73.2995 67.2766V0.829268C73.2995 0.371443 72.9281 0 72.4703 0H0.829268C0.371443 0 0 0.371443 0 0.829268Z" fill="white"/>
</mask>
<g mask="url(#mask27_160_198)">
<path d="M38.468 11.5514C39.8804 11.5514 41.025 10.4003 41.025 8.99445C41.025 7.5821 39.8739 6.4397 38.468 6.4397C37.0622 6.4397 35.9111 7.57562 35.9111 8.98797C35.9111 10.4003 37.0557 11.5514 38.468 11.5514ZM38.468 7.52595C39.2736 7.52595 39.9301 8.18246 39.9301 8.98797C39.9301 9.79348 39.2736 10.45 38.468 10.45C37.6625 10.45 37.006 9.79348 37.006 8.98797C37.006 8.18246 37.6625 7.52595 38.468 7.52595Z" fill="white"/>
</g>
</g>
<mask id="mask28_160_198" style="mask-type:luminance" maskUnits="userSpaceOnUse" x="36" y="13" width="5" height="5">
<path d="M36.3345 13.9314H40.7572V17.8013H36.3345V13.9314Z" fill="white"/>
</mask>
<g mask="url(#mask28_160_198)">
<mask id="mask29_160_198" style="mask-type:luminance" maskUnits="userSpaceOnUse" x="0" y="0" width="74" height="69">
<path d="M0 0.829268V67.2766C0 67.7344 0.371443 68.1058 0.829268 68.1058H72.4703C72.9281 68.1058 73.2995 67.7344 73.2995 67.2766V0.829268C73.2995 0.371443 72.9281 0 72.4703 0H0.829268C0.371443 0 0 0.371443 0 0.829268Z" fill="white"/>
</mask>
<g mask="url(#mask29_160_198)">
<path d="M38.4683 14.1709C37.4728 14.1709 36.6543 14.9829 36.6543 15.9849C36.6543 16.9805 37.4663 17.7989 38.4683 17.7989C39.4639 17.7989 40.2823 16.987 40.2823 15.9849C40.2823 14.9829 39.4704 14.1709 38.4683 14.1709ZM38.4683 16.6976C38.0731 16.6976 37.7557 16.3801 37.7557 15.9849C37.7557 15.5897 38.0731 15.2723 38.4683 15.2723C38.8635 15.2723 39.181 15.5897 39.181 15.9849C39.181 16.3801 38.8635 16.6976 38.4683 16.6976Z" fill="white"/>
</g>
</g>
<mask id="mask30_160_198" style="mask-type:luminance" maskUnits="userSpaceOnUse" x="37" y="7" width="3" height="4">
<path d="M37.4404 7.84985H39.6518V10.0612H37.4404V7.84985Z" fill="white"/>
</mask>
<g mask="url(#mask30_160_198)">
<mask id="mask31_160_198" style="mask-type:luminance" maskUnits="userSpaceOnUse" x="0" y="0" width="74" height="69">
<path d="M0.000488281 0.829268V67.2766C0.000488281 67.7344 0.371931 68.1058 0.829757 68.1058H72.4708C72.9286 68.1058 73.3 67.7344 73.3 67.2766V0.829268C73.3 0.371443 72.9286 0 72.4708 0H0.829757C0.371931 0 0.000488281 0.371443 0.000488281 0.829268Z" fill="white"/>
</mask>
<g mask="url(#mask31_160_198)">
<path d="M39.2873 8.98815C39.2873 9.09613 39.2679 9.20194 39.2247 9.30128C39.1837 9.40278 39.1254 9.49132 39.0476 9.56691C38.972 9.64465 38.8835 9.70296 38.782 9.74399C38.6827 9.78718 38.5768 9.80662 38.4689 9.80662C38.3609 9.80662 38.2551 9.78718 38.1557 9.74399C38.0542 9.70296 37.9657 9.64465 37.8901 9.56691C37.8124 9.49132 37.754 9.40278 37.713 9.30128C37.6698 9.20194 37.6504 9.09613 37.6504 8.98815C37.6504 8.88017 37.6698 8.77435 37.713 8.67501C37.754 8.57351 37.8124 8.48497 37.8901 8.40939C37.9657 8.33164 38.0542 8.27334 38.1557 8.2323C38.2551 8.18911 38.3609 8.16968 38.4689 8.16968C38.5768 8.16968 38.6827 8.18911 38.782 8.2323C38.8835 8.27334 38.972 8.33164 39.0476 8.40939C39.1254 8.48497 39.1837 8.57351 39.2247 8.67501C39.2679 8.77435 39.2873 8.88017 39.2873 8.98815Z" fill="white"/>
</g>
</g>
<mask id="mask32_160_198" style="mask-type:luminance" maskUnits="userSpaceOnUse" x="43" y="5" width="7" height="7">
<path d="M43.5215 5.63843H49.0499V11.7197H43.5215V5.63843Z" fill="white"/>
</mask>
<g mask="url(#mask32_160_198)">
<mask id="mask33_160_198" style="mask-type:luminance" maskUnits="userSpaceOnUse" x="0" y="0" width="74" height="69">
<path d="M0 0.829268V67.2766C0 67.7344 0.371443 68.1058 0.829268 68.1058H72.4703C72.9281 68.1058 73.2995 67.7344 73.2995 67.2766V0.829268C73.2995 0.371443 72.9281 0 72.4703 0H0.829268C0.371443 0 0 0.371443 0 0.829268Z" fill="white"/>
</mask>
<g mask="url(#mask33_160_198)">
<path d="M46.4197 11.275C47.8321 11.275 48.9745 10.1239 48.9745 8.72024C48.9745 7.30789 47.8234 6.16333 46.4197 6.16333C45.0074 6.16333 43.8628 7.31437 43.8628 8.72024C43.8628 10.1239 45.0074 11.275 46.4197 11.275ZM46.4197 7.25174C47.2231 7.25174 47.8796 7.90825 47.8796 8.7116C47.8796 9.51712 47.2231 10.1736 46.4197 10.1736C45.6142 10.1736 44.9577 9.51712 44.9577 8.7116C44.9577 7.90825 45.6142 7.25174 46.4197 7.25174Z" fill="white"/>
</g>
</g>
<mask id="mask34_160_198" style="mask-type:luminance" maskUnits="userSpaceOnUse" x="45" y="7" width="3" height="4">
<path d="M45.1802 7.84985H47.3916V10.0612H45.1802V7.84985Z" fill="white"/>
</mask>
<g mask="url(#mask34_160_198)">
<mask id="mask35_160_198" style="mask-type:luminance" maskUnits="userSpaceOnUse" x="0" y="0" width="74" height="69">
<path d="M0 0.829268V67.2766C0 67.7344 0.371443 68.1058 0.829268 68.1058H72.4703C72.9281 68.1058 73.2995 67.7344 73.2995 67.2766V0.829268C73.2995 0.371443 72.9281 0 72.4703 0H0.829268C0.371443 0 0 0.371443 0 0.829268Z" fill="white"/>
</mask>
<g mask="url(#mask35_160_198)">
<path d="M47.2382 8.71178C47.2382 8.82192 47.2166 8.92558 47.1756 9.02708C47.1346 9.12642 47.0741 9.21496 46.9985 9.2927C46.9208 9.36829 46.8322 9.42875 46.7329 9.46978C46.6314 9.51082 46.5277 9.53241 46.4198 9.53241C46.3096 9.53241 46.206 9.51082 46.1045 9.46978C46.0051 9.42875 45.9166 9.36829 45.8388 9.2927C45.7632 9.21496 45.7028 9.12642 45.6617 9.02708C45.6207 8.92558 45.5991 8.82192 45.5991 8.71178C45.5991 8.6038 45.6207 8.50014 45.6617 8.39865C45.7028 8.29931 45.7632 8.21076 45.8388 8.13302C45.9166 8.05744 46.0051 7.99697 46.1045 7.95594C46.206 7.91491 46.3096 7.89331 46.4198 7.89331C46.5277 7.89331 46.6314 7.91491 46.7329 7.95594C46.8322 7.99697 46.9208 8.05744 46.9985 8.13302C47.0741 8.21076 47.1346 8.29931 47.1756 8.39865C47.2166 8.50014 47.2382 8.6038 47.2382 8.71178Z" fill="white"/>
</g>
</g>
<mask id="mask36_160_198" style="mask-type:luminance" maskUnits="userSpaceOnUse" x="50" y="5" width="6" height="7">
<path d="M50.1558 5.63843H55.6842V11.7197H50.1558V5.63843Z" fill="white"/>
</mask>
<g mask="url(#mask36_160_198)">
<mask id="mask37_160_198" style="mask-type:luminance" maskUnits="userSpaceOnUse" x="0" y="0" width="74" height="69">
<path d="M0 0.829268V67.2766C0 67.7344 0.371443 68.1058 0.829268 68.1058H72.4703C72.9281 68.1058 73.2995 67.7344 73.2995 67.2766V0.829268C73.2995 0.371443 72.9281 0 72.4703 0H0.829268C0.371443 0 0 0.371443 0 0.829268Z" fill="white"/>
</mask>
<g mask="url(#mask37_160_198)">
<path d="M52.9998 11.275C54.4121 11.275 55.5567 10.1239 55.5567 8.72024C55.5567 7.30789 54.4057 6.16333 52.9998 6.16333C51.5939 6.16333 50.4429 7.31437 50.4429 8.72024C50.4429 10.1239 51.5874 11.275 52.9998 11.275ZM52.9998 7.25174C53.8053 7.25174 54.4618 7.90825 54.4618 8.7116C54.4618 9.51712 53.8053 10.1736 52.9998 10.1736C52.1943 10.1736 51.5378 9.51712 51.5378 8.7116C51.5378 7.90825 52.1943 7.25174 52.9998 7.25174Z" fill="white"/>
</g>
</g>
<mask id="mask38_160_198" style="mask-type:luminance" maskUnits="userSpaceOnUse" x="51" y="7" width="4" height="4">
<path d="M51.814 7.84985H54.0253V10.0612H51.814V7.84985Z" fill="white"/>
</mask>
<g mask="url(#mask38_160_198)">
<mask id="mask39_160_198" style="mask-type:luminance" maskUnits="userSpaceOnUse" x="0" y="0" width="74" height="69">
<path d="M0 0.829268V67.2766C0 67.7344 0.371443 68.1058 0.829268 68.1058H72.4703C72.9281 68.1058 73.2995 67.7344 73.2995 67.2766V0.829268C73.2995 0.371443 72.9281 0 72.4703 0H0.829268C0.371443 0 0 0.371443 0 0.829268Z" fill="white"/>
</mask>
<g mask="url(#mask39_160_198)">
<path d="M53.8181 8.71178C53.8181 8.82192 53.7987 8.92558 53.7555 9.02708C53.7144 9.12642 53.6561 9.21496 53.5784 9.2927C53.5028 9.36829 53.4143 9.42875 53.3128 9.46978C53.2134 9.51082 53.1076 9.53241 52.9996 9.53241C52.8916 9.53241 52.7858 9.51082 52.6865 9.46978C52.585 9.42875 52.4964 9.36829 52.4209 9.2927C52.3431 9.21496 52.2848 9.12642 52.2416 9.02708C52.2006 8.92558 52.1812 8.82192 52.1812 8.71178C52.1812 8.6038 52.2006 8.50014 52.2416 8.39865C52.2848 8.29931 52.3431 8.21076 52.4209 8.13302C52.4964 8.05744 52.585 7.99697 52.6865 7.95594C52.7858 7.91491 52.8916 7.89331 52.9996 7.89331C53.1076 7.89331 53.2134 7.91491 53.3128 7.95594C53.4143 7.99697 53.5028 8.05744 53.5784 8.13302C53.6561 8.21076 53.7144 8.29931 53.7555 8.39865C53.7987 8.50014 53.8181 8.6038 53.8181 8.71178Z" fill="white"/>
</g>
</g>
<mask id="mask40_160_198" style="mask-type:luminance" maskUnits="userSpaceOnUse" x="43" y="13" width="5" height="5">
<path d="M43.5215 13.9314H47.9442V17.8013H43.5215V13.9314Z" fill="white"/>
</mask>
<g mask="url(#mask40_160_198)">
<mask id="mask41_160_198" style="mask-type:luminance" maskUnits="userSpaceOnUse" x="0" y="0" width="74" height="69">
<path d="M0 0.829268V67.2766C0 67.7344 0.371443 68.1058 0.829268 68.1058H72.4703C72.9281 68.1058 73.2995 67.7344 73.2995 67.2766V0.829268C73.2995 0.371443 72.9281 0 72.4703 0H0.829268C0.371443 0 0 0.371443 0 0.829268Z" fill="white"/>
</mask>
<g mask="url(#mask41_160_198)">
<path d="M45.5992 17.7924C46.5947 17.7924 47.4154 16.9804 47.4154 15.9783C47.4154 14.9828 46.6034 14.1643 45.5992 14.1643C44.6036 14.1643 43.7852 14.9763 43.7852 15.9783C43.7852 16.9804 44.6036 17.7924 45.5992 17.7924ZM45.5992 15.2722C45.9944 15.2722 46.314 15.5896 46.314 15.9848C46.314 16.38 45.9944 16.6975 45.5992 16.6975C45.204 16.6975 44.8865 16.38 44.8865 15.9848C44.8865 15.5896 45.204 15.2722 45.5992 15.2722Z" fill="white"/>
</g>
</g>
<mask id="mask42_160_198" style="mask-type:luminance" maskUnits="userSpaceOnUse" x="47" y="13" width="5" height="5">
<path d="M47.9443 13.9314H51.8143V17.8013H47.9443V13.9314Z" fill="white"/>
</mask>
<g mask="url(#mask42_160_198)">
<mask id="mask43_160_198" style="mask-type:luminance" maskUnits="userSpaceOnUse" x="0" y="0" width="74" height="69">
<path d="M0 0.829268V67.2766C0 67.7344 0.371443 68.1058 0.829268 68.1058H72.4703C72.9281 68.1058 73.2995 67.7344 73.2995 67.2766V0.829268C73.2995 0.371443 72.9281 0 72.4703 0H0.829268C0.371443 0 0 0.371443 0 0.829268Z" fill="white"/>
</mask>
<g mask="url(#mask43_160_198)">
<path d="M48.1211 15.9849C48.1211 16.9805 48.9331 17.7989 49.9351 17.7989C50.9307 17.7989 51.7491 16.987 51.7491 15.9849C51.7491 14.9894 50.9372 14.1709 49.9351 14.1709C48.9331 14.1709 48.1211 14.9829 48.1211 15.9849ZM49.9286 15.2723C50.3238 15.2723 50.6413 15.5897 50.6413 15.9849C50.6413 16.3801 50.3238 16.6976 49.9286 16.6976C49.5334 16.6976 49.2138 16.3801 49.2138 15.9849C49.2138 15.5897 49.5399 15.2723 49.9286 15.2723Z" fill="white"/>
</g>
</g>
<mask id="mask44_160_198" style="mask-type:luminance" maskUnits="userSpaceOnUse" x="52" y="13" width="5" height="5">
<path d="M52.3672 13.9314H56.2371V17.8013H52.3672V13.9314Z" fill="white"/>
</mask>
<g mask="url(#mask44_160_198)">
<mask id="mask45_160_198" style="mask-type:luminance" maskUnits="userSpaceOnUse" x="0" y="0" width="74" height="69">
<path d="M0 0.829268V67.2766C0 67.7344 0.371443 68.1058 0.829268 68.1058H72.4703C72.9281 68.1058 73.2995 67.7344 73.2995 67.2766V0.829268C73.2995 0.371443 72.9281 0 72.4703 0H0.829268C0.371443 0 0 0.371443 0 0.829268Z" fill="white"/>
</mask>
<g mask="url(#mask45_160_198)">
<path d="M54.2632 14.1709C53.2677 14.1709 52.4492 14.9829 52.4492 15.9849C52.4492 16.9805 53.2612 17.7989 54.2632 17.7989C55.2653 17.7989 56.0773 16.987 56.0773 15.9849C56.0708 14.9829 55.2588 14.1709 54.2632 14.1709ZM54.2632 16.6976C53.868 16.6976 53.5506 16.3801 53.5506 15.9849C53.5506 15.5897 53.868 15.2723 54.2632 15.2723C54.6584 15.2723 54.9759 15.5897 54.9759 15.9849C54.9759 16.3801 54.6584 16.6976 54.2632 16.6976Z" fill="white"/>
</g>
</g>
<mask id="mask46_160_198" style="mask-type:luminance" maskUnits="userSpaceOnUse" x="59" y="6" width="4" height="5">
<path d="M59.001 6.19141H62.8709V10.6142H59.001V6.19141Z" fill="white"/>
</mask>
<g mask="url(#mask46_160_198)">
<mask id="mask47_160_198" style="mask-type:luminance" maskUnits="userSpaceOnUse" x="0" y="0" width="74" height="69">
<path d="M0 0.829268V67.2766C0 67.7344 0.371443 68.1058 0.829268 68.1058H72.4703C72.9281 68.1058 73.2995 67.7344 73.2995 67.2766V0.829268C73.2995 0.371443 72.9281 0 72.4703 0H0.829268C0.371443 0 0 0.371443 0 0.829268Z" fill="white"/>
</mask>
<g mask="url(#mask47_160_198)">
<path d="M61.0421 10.2513C62.0376 10.2513 62.8561 9.43935 62.8561 8.43732C62.8561 7.44176 62.0441 6.62329 61.0421 6.62329C60.04 6.62329 59.228 7.43528 59.228 8.43732C59.2345 9.43935 60.0465 10.2513 61.0421 10.2513ZM61.0421 7.72466C61.4373 7.72466 61.7547 8.04212 61.7547 8.43732C61.7547 8.83251 61.4373 9.14997 61.0421 9.14997C60.6469 9.14997 60.3294 8.83251 60.3294 8.43732C60.3294 8.0486 60.6469 7.72466 61.0421 7.72466Z" fill="white"/>
</g>
</g>
<mask id="mask48_160_198" style="mask-type:luminance" maskUnits="userSpaceOnUse" x="63" y="6" width="5" height="5">
<path d="M63.4238 6.19141H67.2937V10.6142H63.4238V6.19141Z" fill="white"/>
</mask>
<g mask="url(#mask48_160_198)">
<mask id="mask49_160_198" style="mask-type:luminance" maskUnits="userSpaceOnUse" x="0" y="0" width="74" height="69">
<path d="M0 0.829268V67.2766C0 67.7344 0.371443 68.1058 0.829268 68.1058H72.4703C72.9281 68.1058 73.2995 67.7344 73.2995 67.2766V0.829268C73.2995 0.371443 72.9281 0 72.4703 0H0.829268C0.371443 0 0 0.371443 0 0.829268Z" fill="white"/>
</mask>
<g mask="url(#mask49_160_198)">
<path d="M65.3565 10.2513C66.3521 10.2513 67.1705 9.43935 67.1705 8.43732C67.1705 7.44176 66.3585 6.62329 65.3565 6.62329C64.3545 6.62329 63.5425 7.43528 63.5425 8.43732C63.5425 9.43935 64.3545 10.2513 65.3565 10.2513ZM65.3565 7.72466C65.7517 7.72466 66.0692 8.04212 66.0692 8.43732C66.0692 8.83251 65.7517 9.14997 65.3565 9.14997C64.9613 9.14997 64.6439 8.83251 64.6439 8.43732C64.6352 8.0486 64.9613 7.72466 65.3565 7.72466Z" fill="white"/>
</g>
</g>
<mask id="mask50_160_198" style="mask-type:luminance" maskUnits="userSpaceOnUse" x="59" y="13" width="4" height="5">
<path d="M59.001 13.9314H62.8709V17.8013H59.001V13.9314Z" fill="white"/>
</mask>
<g mask="url(#mask50_160_198)">
<mask id="mask51_160_198" style="mask-type:luminance" maskUnits="userSpaceOnUse" x="0" y="0" width="74" height="69">
<path d="M0 0.829268V67.2766C0 67.7344 0.371443 68.1058 0.829268 68.1058H72.4703C72.9281 68.1058 73.2995 67.7344 73.2995 67.2766V0.829268C73.2995 0.371443 72.9281 0 72.4703 0H0.829268C0.371443 0 0 0.371443 0 0.829268Z" fill="white"/>
</mask>
<g mask="url(#mask51_160_198)">
<path d="M61.0421 14.1709C60.0465 14.1709 59.228 14.9829 59.228 15.9849C59.228 16.9805 60.04 17.7989 61.0421 17.7989C62.0441 17.7989 62.8561 16.987 62.8561 15.9849C62.8561 14.9829 62.0441 14.1709 61.0421 14.1709ZM61.0421 16.6976C60.6469 16.6976 60.3294 16.3801 60.3294 15.9849C60.3294 15.5897 60.6469 15.2723 61.0421 15.2723C61.4373 15.2723 61.7547 15.5897 61.7547 15.9849C61.7547 16.3801 61.4373 16.6976 61.0421 16.6976Z" fill="white"/>
</g>
</g>
<mask id="mask52_160_198" style="mask-type:luminance" maskUnits="userSpaceOnUse" x="63" y="13" width="5" height="5">
<path d="M63.4238 13.9314H67.2937V17.8013H63.4238V13.9314Z" fill="white"/>
</mask>
<g mask="url(#mask52_160_198)">
<mask id="mask53_160_198" style="mask-type:luminance" maskUnits="userSpaceOnUse" x="0" y="0" width="74" height="69">
<path d="M0 0.829268V67.2766C0 67.7344 0.371443 68.1058 0.829268 68.1058H72.4703C72.9281 68.1058 73.2995 67.7344 73.2995 67.2766V0.829268C73.2995 0.371443 72.9281 0 72.4703 0H0.829268C0.371443 0 0 0.371443 0 0.829268Z" fill="white"/>
</mask>
<g mask="url(#mask53_160_198)">
<path d="M65.3565 14.1709C64.361 14.1709 63.5425 14.9829 63.5425 15.9849C63.5425 16.9805 64.3545 17.7989 65.3565 17.7989C66.3585 17.7989 67.1705 16.987 67.1705 15.9849C67.1641 14.9829 66.3521 14.1709 65.3565 14.1709ZM65.3565 16.6976C64.9613 16.6976 64.6439 16.3801 64.6439 15.9849C64.6439 15.5897 64.9613 15.2723 65.3565 15.2723C65.7517 15.2723 66.0692 15.5897 66.0692 15.9849C66.0692 16.3801 65.7452 16.6976 65.3565 16.6976Z" fill="white"/>
</g>
</g>
<mask id="mask54_160_198" style="mask-type:luminance" maskUnits="userSpaceOnUse" x="8" y="47" width="6" height="14">
<path d="M8.69238 47.1018H13.1151V60.9229H8.69238V47.1018Z" fill="white"/>
</mask>
<g mask="url(#mask54_160_198)">
<mask id="mask55_160_198" style="mask-type:luminance" maskUnits="userSpaceOnUse" x="0" y="0" width="74" height="69">
<path d="M0 0.829268V67.2766C0 67.7344 0.371443 68.1058 0.829268 68.1058H72.4703C72.9281 68.1058 73.2995 67.7344 73.2995 67.2766V0.829268C73.2995 0.371443 72.9281 0 72.4703 0H0.829268C0.371443 0 0 0.371443 0 0.829268Z" fill="white"/>
</mask>
<g mask="url(#mask55_160_198)">
<path d="M11.3118 47.4128H10.217V48.6503H8.95361V54.6085H10.217V60.8517H11.3118V54.602H12.5752V48.6416H11.3118V47.4128ZM11.4803 49.743V53.5071H10.0463V49.743H11.4803Z" fill="white"/>
</g>
</g>
<mask id="mask56_160_198" style="mask-type:luminance" maskUnits="userSpaceOnUse" x="15" y="47" width="5" height="14">
<path d="M15.3262 47.1018H19.7489V60.9229H15.3262V47.1018Z" fill="white"/>
</mask>
<g mask="url(#mask56_160_198)">
<mask id="mask57_160_198" style="mask-type:luminance" maskUnits="userSpaceOnUse" x="0" y="0" width="74" height="69">
<path d="M0 0.829268V67.2766C0 67.7344 0.371443 68.1058 0.829268 68.1058H72.4703C72.9281 68.1058 73.2995 67.7344 73.2995 67.2766V0.829268C73.2995 0.371443 72.9281 0 72.4703 0H0.829268C0.371443 0 0 0.371443 0 0.829268Z" fill="white"/>
</mask>
<g mask="url(#mask57_160_198)">
<path d="M18.1966 47.4128H17.1017V51.5721H15.8384V57.5325H17.1017V60.8517H18.1966V57.5325H19.4599V51.5721H18.1966V47.4128ZM18.3586 52.667V56.4311H16.9246V52.667H18.3586Z" fill="white"/>
</g>
</g>
<mask id="mask58_160_198" style="mask-type:luminance" maskUnits="userSpaceOnUse" x="22" y="47" width="5" height="14">
<path d="M22.5132 47.1018H26.3831V60.9229H22.5132V47.1018Z" fill="white"/>
</mask>
<g mask="url(#mask58_160_198)">
<mask id="mask59_160_198" style="mask-type:luminance" maskUnits="userSpaceOnUse" x="0" y="0" width="74" height="69">
<path d="M0 0.829268V67.2766C0 67.7344 0.371443 68.1058 0.829268 68.1058H72.4703C72.9281 68.1058 73.2995 67.7344 73.2995 67.2766V0.829268C73.2995 0.371443 72.9281 0 72.4703 0H0.829268C0.371443 0 0 0.371443 0 0.829268Z" fill="white"/>
</mask>
<g mask="url(#mask59_160_198)">
<path d="M25.0726 47.4128H23.9799V51.5721H22.7144V57.5325H23.9799V60.8517H25.0726V57.5325H26.3381V51.5721H25.0726V47.4128ZM25.2432 52.667V56.4311H23.8092V52.667H25.2432Z" fill="white"/>
</g>
</g>
<mask id="mask60_160_198" style="mask-type:luminance" maskUnits="userSpaceOnUse" x="29" y="47" width="5" height="14">
<path d="M29.1475 47.1018H33.5702V60.9229H29.1475V47.1018Z" fill="white"/>
</mask>
<g mask="url(#mask60_160_198)">
<mask id="mask61_160_198" style="mask-type:luminance" maskUnits="userSpaceOnUse" x="0" y="0" width="74" height="69">
<path d="M0 0.829268V67.2766C0 67.7344 0.371443 68.1058 0.829268 68.1058H72.4703C72.9281 68.1058 73.2995 67.7344 73.2995 67.2766V0.829268C73.2995 0.371443 72.9281 0 72.4703 0H0.829268C0.371443 0 0 0.371443 0 0.829268Z" fill="white"/>
</mask>
<g mask="url(#mask61_160_198)">
<path d="M31.9505 47.4128H30.8556V48.2831H29.5923V54.2413H30.8556V60.8517H31.9505V54.2413H33.2139V48.2831H31.9505V47.4128ZM32.119 49.3759V53.14H30.6872V49.3759H32.119Z" fill="white"/>
</g>
</g>
<mask id="mask62_160_198" style="mask-type:luminance" maskUnits="userSpaceOnUse" x="36" y="47" width="5" height="14">
<path d="M36.3345 47.1018H40.2044V60.9229H36.3345V47.1018Z" fill="white"/>
</mask>
<g mask="url(#mask62_160_198)">
<mask id="mask63_160_198" style="mask-type:luminance" maskUnits="userSpaceOnUse" x="0" y="0" width="74" height="69">
<path d="M0 0.829268V67.2766C0 67.7344 0.371443 68.1058 0.829268 68.1058H72.4703C72.9281 68.1058 73.2995 67.7344 73.2995 67.2766V0.829268C73.2995 0.371443 72.9281 0 72.4703 0H0.829268C0.371443 0 0 0.371443 0 0.829268Z" fill="white"/>
</mask>
<g mask="url(#mask63_160_198)">
<path d="M38.8353 47.4128H37.7404V48.2831H36.4771V54.2413H37.7404V60.8517H38.8353V54.2413H40.0986V48.2831H38.8353V47.4128ZM38.9972 49.3759V53.14H37.5719V49.3759H38.9972Z" fill="white"/>
</g>
</g>
<mask id="mask64_160_198" style="mask-type:luminance" maskUnits="userSpaceOnUse" x="42" y="47" width="6" height="14">
<path d="M42.9688 47.1018H47.3915V60.9229H42.9688V47.1018Z" fill="white"/>
</mask>
<g mask="url(#mask64_160_198)">
<mask id="mask65_160_198" style="mask-type:luminance" maskUnits="userSpaceOnUse" x="0" y="0" width="74" height="69">
<path d="M0 0.829268V67.2766C0 67.7344 0.371443 68.1058 0.829268 68.1058H72.4703C72.9281 68.1058 73.2995 67.7344 73.2995 67.2766V0.829268C73.2995 0.371443 72.9281 0 72.4703 0H0.829268C0.371443 0 0 0.371443 0 0.829268Z" fill="white"/>
</mask>
<g mask="url(#mask65_160_198)">
<path d="M45.7132 47.4128H44.6183V51.5721H43.355V57.5325H44.6183V60.8517H45.7132V57.5325H46.9766V51.5721H45.7132V47.4128ZM45.8817 52.667V56.4311H44.4477V52.667H45.8817Z" fill="white"/>
</g>
</g>
<mask id="mask66_160_198" style="mask-type:luminance" maskUnits="userSpaceOnUse" x="50" y="47" width="5" height="14">
<path d="M50.1558 47.1018H54.0257V60.9229H50.1558V47.1018Z" fill="white"/>
</mask>
<g mask="url(#mask66_160_198)">
<mask id="mask67_160_198" style="mask-type:luminance" maskUnits="userSpaceOnUse" x="0" y="0" width="74" height="69">
<path d="M0 0.829268V67.2766C0 67.7344 0.371443 68.1058 0.829268 68.1058H72.4703C72.9281 68.1058 73.2995 67.7344 73.2995 67.2766V0.829268C73.2995 0.371443 72.9281 0 72.4703 0H0.829268C0.371443 0 0 0.371443 0 0.829268Z" fill="white"/>
</mask>
<g mask="url(#mask67_160_198)">
<path d="M52.5982 47.4128H51.5033V50.0194H50.2378V55.9798H51.5033V60.8517H52.5982V55.9798H53.8615V50.0194H52.5982V47.4128ZM52.7602 51.1143V54.8784H51.3327V51.1143H52.7602Z" fill="white"/>
</g>
</g>
<mask id="mask68_160_198" style="mask-type:luminance" maskUnits="userSpaceOnUse" x="56" y="47" width="6" height="14">
<path d="M56.7896 47.1018H61.2123V60.9229H56.7896V47.1018Z" fill="white"/>
</mask>
<g mask="url(#mask68_160_198)">
<mask id="mask69_160_198" style="mask-type:luminance" maskUnits="userSpaceOnUse" x="0" y="0" width="74" height="69">
<path d="M0 0.829268V67.2766C0 67.7344 0.371443 68.1058 0.829268 68.1058H72.4703C72.9281 68.1058 73.2995 67.7344 73.2995 67.2766V0.829268C73.2995 0.371443 72.9281 0 72.4703 0H0.829268C0.371443 0 0 0.371443 0 0.829268Z" fill="white"/>
</mask>
<g mask="url(#mask69_160_198)">
<path d="M59.474 47.4128H58.3791V53.5784H57.1157V59.5387H58.3791V60.8431H59.474V59.5387H60.7373V53.5784H59.474V47.4128ZM59.6359 54.6797V58.4438H58.2041V54.6797H59.6359Z" fill="white"/>
</g>
</g>
<mask id="mask70_160_198" style="mask-type:luminance" maskUnits="userSpaceOnUse" x="63" y="47" width="5" height="14">
<path d="M63.9766 47.1018H67.8465V60.9229H63.9766V47.1018Z" fill="white"/>
</mask>
<g mask="url(#mask70_160_198)">
<mask id="mask71_160_198" style="mask-type:luminance" maskUnits="userSpaceOnUse" x="0" y="0" width="74" height="69">
<path d="M0 0.829268V67.2766C0 67.7344 0.371443 68.1058 0.829268 68.1058H72.4703C72.9281 68.1058 73.2995 67.7344 73.2995 67.2766V0.829268C73.2995 0.371443 72.9281 0 72.4703 0H0.829268C0.371443 0 0 0.371443 0 0.829268Z" fill="white"/>
</mask>
<g mask="url(#mask71_160_198)">
<path d="M65.2575 60.8432H66.3524V54.235H67.6157V48.2746H66.3524V47.4065H65.2575V48.2746H63.9941V54.235H65.2575V60.8432ZM65.089 53.1401V49.376H66.5208V53.1401H65.089Z" fill="white"/>
</g>
</g>
<mask id="mask72_160_198" style="mask-type:luminance" maskUnits="userSpaceOnUse" x="8" y="21" width="6" height="5">
<path d="M8.69238 21.6711H13.1151V25.5411H8.69238V21.6711Z" fill="white"/>
</mask>
<g mask="url(#mask72_160_198)">
<mask id="mask73_160_198" style="mask-type:luminance" maskUnits="userSpaceOnUse" x="0" y="0" width="74" height="69">
<path d="M0 0.829268V67.2766C0 67.7344 0.371443 68.1058 0.829268 68.1058H72.4703C72.9281 68.1058 73.2995 67.7344 73.2995 67.2766V0.829268C73.2995 0.371443 72.9281 0 72.4703 0H0.829268C0.371443 0 0 0.371443 0 0.829268Z" fill="white"/>
</mask>
<g mask="url(#mask73_160_198)">
<path d="M10.7676 21.7402C9.77208 21.7402 8.95361 22.5522 8.95361 23.5543C8.95361 24.5498 9.76561 25.3704 10.7676 25.3704C11.7697 25.3704 12.5817 24.5585 12.5817 23.5543C12.5752 22.5522 11.7632 21.7402 10.7676 21.7402ZM10.7676 24.2604C10.3724 24.2604 10.055 23.943 10.055 23.5478C10.055 23.1526 10.3724 22.8351 10.7676 22.8351C11.1628 22.8351 11.4803 23.1526 11.4803 23.5478C11.4803 23.943 11.1564 24.2604 10.7676 24.2604Z" fill="white"/>
</g>
</g>
<mask id="mask74_160_198" style="mask-type:luminance" maskUnits="userSpaceOnUse" x="8" y="27" width="6" height="5">
<path d="M8.69238 27.1995H13.1151V31.6222H8.69238V27.1995Z" fill="white"/>
</mask>
<g mask="url(#mask74_160_198)">
<mask id="mask75_160_198" style="mask-type:luminance" maskUnits="userSpaceOnUse" x="0" y="0" width="74" height="69">
<path d="M0 0.829268V67.2766C0 67.7344 0.371443 68.1058 0.829268 68.1058H72.4703C72.9281 68.1058 73.2995 67.7344 73.2995 67.2766V0.829268C73.2995 0.371443 72.9281 0 72.4703 0H0.829268C0.371443 0 0 0.371443 0 0.829268Z" fill="white"/>
</mask>
<g mask="url(#mask75_160_198)">
<path d="M10.7676 27.573C9.77208 27.573 8.95361 28.385 8.95361 29.387C8.95361 30.3891 9.76561 31.201 10.7676 31.201C11.7697 31.201 12.5817 30.3891 12.5817 29.387C12.5817 28.385 11.7632 27.573 10.7676 27.573ZM10.7676 30.0997C10.3724 30.0997 10.055 29.7822 10.055 29.387C10.055 28.9918 10.3724 28.6744 10.7676 28.6744C11.1628 28.6744 11.4803 28.9918 11.4803 29.387C11.4803 29.7757 11.1564 30.0997 10.7676 30.0997Z" fill="white"/>
</g>
</g>
<mask id="mask76_160_198" style="mask-type:luminance" maskUnits="userSpaceOnUse" x="8" y="33" width="6" height="5">
<path d="M8.69238 33.2808H13.1151V37.1507H8.69238V33.2808Z" fill="white"/>
</mask>
<g mask="url(#mask76_160_198)">
<mask id="mask77_160_198" style="mask-type:luminance" maskUnits="userSpaceOnUse" x="0" y="0" width="74" height="69">
<path d="M0 0.829268V67.2766C0 67.7344 0.371443 68.1058 0.829268 68.1058H72.4703C72.9281 68.1058 73.2995 67.7344 73.2995 67.2766V0.829268C73.2995 0.371443 72.9281 0 72.4703 0H0.829268C0.371443 0 0 0.371443 0 0.829268Z" fill="white"/>
</mask>
<g mask="url(#mask77_160_198)">
<path d="M10.7676 33.4041C9.77208 33.4041 8.95361 34.216 8.95361 35.2202C8.95361 36.2158 9.76561 37.0343 10.7676 37.0343C11.7697 37.0343 12.5817 36.2223 12.5817 35.2202C12.5752 34.216 11.7632 33.4041 10.7676 33.4041ZM10.7676 35.9329C10.3724 35.9329 10.055 35.6154 10.055 35.2202C10.055 34.825 10.3724 34.5076 10.7676 34.5076C11.1628 34.5076 11.4803 34.825 11.4803 35.2202C11.4803 35.6154 11.1564 35.9329 10.7676 35.9329Z" fill="white"/>
</g>
</g>
<mask id="mask78_160_198" style="mask-type:luminance" maskUnits="userSpaceOnUse" x="8" y="38" width="6" height="6">
<path d="M8.69238 38.8093H13.1151V43.2321H8.69238V38.8093Z" fill="white"/>
</mask>
<g mask="url(#mask78_160_198)">
<mask id="mask79_160_198" style="mask-type:luminance" maskUnits="userSpaceOnUse" x="0" y="0" width="74" height="69">
<path d="M0 0.829268V67.2766C0 67.7344 0.371443 68.1058 0.829268 68.1058H72.4703C72.9281 68.1058 73.2995 67.7344 73.2995 67.2766V0.829268C73.2995 0.371443 72.9281 0 72.4703 0H0.829268C0.371443 0 0 0.371443 0 0.829268Z" fill="white"/>
</mask>
<g mask="url(#mask79_160_198)">
<path d="M10.7676 39.2432C9.77208 39.2432 8.95361 40.0552 8.95361 41.0593C8.95361 42.0614 9.76561 42.8734 10.7676 42.8734C11.7697 42.8734 12.5817 42.0614 12.5817 41.0593C12.5817 40.0552 11.7632 39.2432 10.7676 39.2432ZM10.7676 41.7655C10.3724 41.7655 10.055 41.4481 10.055 41.0529C10.055 40.6555 10.3724 40.3381 10.7676 40.3381C11.1628 40.3381 11.4803 40.6555 11.4803 41.0529C11.4803 41.4481 11.1564 41.7655 10.7676 41.7655Z" fill="white"/>
</g>
</g>
<mask id="mask80_160_198" style="mask-type:luminance" maskUnits="userSpaceOnUse" x="15" y="21" width="5" height="5">
<path d="M15.3262 21.6711H19.7489V25.5411H15.3262V21.6711Z" fill="white"/>
</mask>
<g mask="url(#mask80_160_198)">
<mask id="mask81_160_198" style="mask-type:luminance" maskUnits="userSpaceOnUse" x="0" y="0" width="74" height="69">
<path d="M0 0.829268V67.2766C0 67.7344 0.371443 68.1058 0.829268 68.1058H72.4703C72.9281 68.1058 73.2995 67.7344 73.2995 67.2766V0.829268C73.2995 0.371443 72.9281 0 72.4703 0H0.829268C0.371443 0 0 0.371443 0 0.829268Z" fill="white"/>
</mask>
<g mask="url(#mask81_160_198)">
<path d="M17.6458 21.7402C16.6502 21.7402 15.8296 22.5522 15.8296 23.5543C15.8296 24.5498 16.6416 25.3704 17.6458 25.3704C18.6413 25.3704 19.4598 24.5585 19.4598 23.5543C19.4598 22.5522 18.6413 21.7402 17.6458 21.7402ZM17.6458 24.2604C17.2506 24.2604 16.931 23.943 16.931 23.5478C16.931 23.1526 17.2506 22.8351 17.6458 22.8351C18.041 22.8351 18.3584 23.1526 18.3584 23.5478C18.3584 23.943 18.041 24.2604 17.6458 24.2604Z" fill="white"/>
</g>
</g>
<mask id="mask82_160_198" style="mask-type:luminance" maskUnits="userSpaceOnUse" x="15" y="27" width="5" height="5">
<path d="M15.3262 27.1995H19.7489V31.6222H15.3262V27.1995Z" fill="white"/>
</mask>
<g mask="url(#mask82_160_198)">
<mask id="mask83_160_198" style="mask-type:luminance" maskUnits="userSpaceOnUse" x="0" y="0" width="74" height="69">
<path d="M0 0.829268V67.2766C0 67.7344 0.371443 68.1058 0.829268 68.1058H72.4703C72.9281 68.1058 73.2995 67.7344 73.2995 67.2766V0.829268C73.2995 0.371443 72.9281 0 72.4703 0H0.829268C0.371443 0 0 0.371443 0 0.829268Z" fill="white"/>
</mask>
<g mask="url(#mask83_160_198)">
<path d="M17.6458 27.573C16.6502 27.573 15.8296 28.385 15.8296 29.387C15.8296 30.3891 16.6416 31.201 17.6458 31.201C18.6413 31.201 19.4598 30.3891 19.4598 29.387C19.4598 28.385 18.6413 27.573 17.6458 27.573ZM17.6458 30.0997C17.2506 30.0997 16.931 29.7822 16.931 29.387C16.931 28.9918 17.2506 28.6744 17.6458 28.6744C18.041 28.6744 18.3584 28.9918 18.3584 29.387C18.3584 29.7757 18.041 30.0997 17.6458 30.0997Z" fill="white"/>
</g>
</g>
<mask id="mask84_160_198" style="mask-type:luminance" maskUnits="userSpaceOnUse" x="15" y="33" width="5" height="5">
<path d="M15.3262 33.2808H19.7489V37.1507H15.3262V33.2808Z" fill="white"/>
</mask>
<g mask="url(#mask84_160_198)">
<mask id="mask85_160_198" style="mask-type:luminance" maskUnits="userSpaceOnUse" x="0" y="0" width="74" height="69">
<path d="M0 0.829268V67.2766C0 67.7344 0.371443 68.1058 0.829268 68.1058H72.4703C72.9281 68.1058 73.2995 67.7344 73.2995 67.2766V0.829268C73.2995 0.371443 72.9281 0 72.4703 0H0.829268C0.371443 0 0 0.371443 0 0.829268Z" fill="white"/>
</mask>
<g mask="url(#mask85_160_198)">
<path d="M17.6458 33.4041C16.6502 33.4041 15.8296 34.216 15.8296 35.2202C15.8296 36.2158 16.6416 37.0343 17.6458 37.0343C18.6413 37.0343 19.4598 36.2223 19.4598 35.2202C19.4598 34.216 18.6413 33.4041 17.6458 33.4041ZM17.6458 35.9329C17.2506 35.9329 16.931 35.6154 16.931 35.2202C16.931 34.825 17.2506 34.5076 17.6458 34.5076C18.041 34.5076 18.3584 34.825 18.3584 35.2202C18.3584 35.6154 18.041 35.9329 17.6458 35.9329Z" fill="white"/>
</g>
</g>
<mask id="mask86_160_198" style="mask-type:luminance" maskUnits="userSpaceOnUse" x="15" y="38" width="5" height="6">
<path d="M15.3262 38.8093H19.7489V43.2321H15.3262V38.8093Z" fill="white"/>
</mask>
<g mask="url(#mask86_160_198)">
<mask id="mask87_160_198" style="mask-type:luminance" maskUnits="userSpaceOnUse" x="0" y="0" width="74" height="69">
<path d="M0 0.829268V67.2766C0 67.7344 0.371443 68.1058 0.829268 68.1058H72.4703C72.9281 68.1058 73.2995 67.7344 73.2995 67.2766V0.829268C73.2995 0.371443 72.9281 0 72.4703 0H0.829268C0.371443 0 0 0.371443 0 0.829268Z" fill="white"/>
</mask>
<g mask="url(#mask87_160_198)">
<path d="M17.6458 39.2432C16.6502 39.2432 15.8296 40.0552 15.8296 41.0593C15.8296 42.0614 16.6416 42.8734 17.6458 42.8734C18.6413 42.8734 19.4598 42.0614 19.4598 41.0593C19.4598 40.0552 18.6413 39.2432 17.6458 39.2432ZM17.6458 41.7655C17.2506 41.7655 16.931 41.4481 16.931 41.0529C16.931 40.6555 17.2506 40.3381 17.6458 40.3381C18.041 40.3381 18.3584 40.6555 18.3584 41.0529C18.3584 41.4481 18.041 41.7655 17.6458 41.7655Z" fill="white"/>
</g>
</g>
<mask id="mask88_160_198" style="mask-type:luminance" maskUnits="userSpaceOnUse" x="22" y="21" width="5" height="5">
<path d="M22.5132 21.6711H26.9359V25.5411H22.5132V21.6711Z" fill="white"/>
</mask>
<g mask="url(#mask88_160_198)">
<mask id="mask89_160_198" style="mask-type:luminance" maskUnits="userSpaceOnUse" x="0" y="0" width="74" height="69">
<path d="M0 0.829268V67.2766C0 67.7344 0.371443 68.1058 0.829268 68.1058H72.4703C72.9281 68.1058 73.2995 67.7344 73.2995 67.2766V0.829268C73.2995 0.371443 72.9281 0 72.4703 0H0.829268C0.371443 0 0 0.371443 0 0.829268Z" fill="white"/>
</mask>
<g mask="url(#mask89_160_198)">
<path d="M24.5997 21.7402C23.6041 21.7402 22.7856 22.5522 22.7856 23.5543C22.7856 24.5498 23.5976 25.3704 24.5997 25.3704C25.5952 25.3704 26.4159 24.5585 26.4159 23.5543C26.4072 22.5522 25.5952 21.7402 24.5997 21.7402ZM24.5997 24.2604C24.2045 24.2604 23.887 23.943 23.887 23.5478C23.887 23.1526 24.2045 22.8351 24.5997 22.8351C24.9949 22.8351 25.3145 23.1526 25.3145 23.5478C25.3145 23.943 24.9949 24.2604 24.5997 24.2604Z" fill="white"/>
</g>
</g>
<mask id="mask90_160_198" style="mask-type:luminance" maskUnits="userSpaceOnUse" x="22" y="27" width="5" height="5">
<path d="M22.5132 27.1995H26.9359V31.6222H22.5132V27.1995Z" fill="white"/>
</mask>
<g mask="url(#mask90_160_198)">
<mask id="mask91_160_198" style="mask-type:luminance" maskUnits="userSpaceOnUse" x="0" y="0" width="74" height="69">
<path d="M0 0.829268V67.2766C0 67.7344 0.371443 68.1058 0.829268 68.1058H72.4703C72.9281 68.1058 73.2995 67.7344 73.2995 67.2766V0.829268C73.2995 0.371443 72.9281 0 72.4703 0H0.829268C0.371443 0 0 0.371443 0 0.829268Z" fill="white"/>
</mask>
<g mask="url(#mask91_160_198)">
<path d="M24.5997 27.573C23.6041 27.573 22.7856 28.385 22.7856 29.387C22.7856 30.3891 23.5976 31.201 24.5997 31.201C25.5952 31.201 26.4159 30.3891 26.4159 29.387C26.4159 28.385 25.5952 27.573 24.5997 27.573ZM24.5997 30.0997C24.2045 30.0997 23.887 29.7822 23.887 29.387C23.887 28.9918 24.2045 28.6744 24.5997 28.6744C24.9949 28.6744 25.3145 28.9918 25.3145 29.387C25.3145 29.7757 24.9949 30.0997 24.5997 30.0997Z" fill="white"/>
</g>
</g>
<mask id="mask92_160_198" style="mask-type:luminance" maskUnits="userSpaceOnUse" x="22" y="33" width="5" height="5">
<path d="M22.5132 33.2808H26.9359V37.1507H22.5132V33.2808Z" fill="white"/>
</mask>
<g mask="url(#mask92_160_198)">
<mask id="mask93_160_198" style="mask-type:luminance" maskUnits="userSpaceOnUse" x="0" y="0" width="74" height="69">
<path d="M0 0.829268V67.2766C0 67.7344 0.371443 68.1058 0.829268 68.1058H72.4703C72.9281 68.1058 73.2995 67.7344 73.2995 67.2766V0.829268C73.2995 0.371443 72.9281 0 72.4703 0H0.829268C0.371443 0 0 0.371443 0 0.829268Z" fill="white"/>
</mask>
<g mask="url(#mask93_160_198)">
<path d="M24.5997 33.4041C23.6041 33.4041 22.7856 34.216 22.7856 35.2202C22.7856 36.2158 23.5976 37.0343 24.5997 37.0343C25.5952 37.0343 26.4159 36.2223 26.4159 35.2202C26.4072 34.216 25.5952 33.4041 24.5997 33.4041ZM24.5997 35.9329C24.2045 35.9329 23.887 35.6154 23.887 35.2202C23.887 34.825 24.2045 34.5076 24.5997 34.5076C24.9949 34.5076 25.3145 34.825 25.3145 35.2202C25.3145 35.6154 24.9949 35.9329 24.5997 35.9329Z" fill="white"/>
</g>
</g>
<mask id="mask94_160_198" style="mask-type:luminance" maskUnits="userSpaceOnUse" x="22" y="38" width="5" height="6">
<path d="M22.5132 38.8093H26.9359V43.2321H22.5132V38.8093Z" fill="white"/>
</mask>
<g mask="url(#mask94_160_198)">
<mask id="mask95_160_198" style="mask-type:luminance" maskUnits="userSpaceOnUse" x="0" y="0" width="74" height="69">
<path d="M0 0.829268V67.2766C0 67.7344 0.371443 68.1058 0.829268 68.1058H72.4703C72.9281 68.1058 73.2995 67.7344 73.2995 67.2766V0.829268C73.2995 0.371443 72.9281 0 72.4703 0H0.829268C0.371443 0 0 0.371443 0 0.829268Z" fill="white"/>
</mask>
<g mask="url(#mask95_160_198)">
<path d="M24.5997 39.2432C23.6041 39.2432 22.7856 40.0552 22.7856 41.0593C22.7856 42.0614 23.5976 42.8734 24.5997 42.8734C25.5952 42.8734 26.4159 42.0614 26.4159 41.0593C26.4159 40.0552 25.5952 39.2432 24.5997 39.2432ZM24.5997 41.7655C24.2045 41.7655 23.887 41.4481 23.887 41.0529C23.887 40.6555 24.2045 40.3381 24.5997 40.3381C24.9949 40.3381 25.3145 40.6555 25.3145 41.0529C25.3145 41.4481 24.9949 41.7655 24.5997 41.7655Z" fill="white"/>
</g>
</g>
<mask id="mask96_160_198" style="mask-type:luminance" maskUnits="userSpaceOnUse" x="29" y="21" width="5" height="5">
<path d="M29.1475 21.6711H33.5702V25.5411H29.1475V21.6711Z" fill="white"/>
</mask>
<g mask="url(#mask96_160_198)">
<mask id="mask97_160_198" style="mask-type:luminance" maskUnits="userSpaceOnUse" x="0" y="0" width="74" height="69">
<path d="M0 0.829268V67.2766C0 67.7344 0.371443 68.1058 0.829268 68.1058H72.4703C72.9281 68.1058 73.2995 67.7344 73.2995 67.2766V0.829268C73.2995 0.371443 72.9281 0 72.4703 0H0.829268C0.371443 0 0 0.371443 0 0.829268Z" fill="white"/>
</mask>
<g mask="url(#mask97_160_198)">
<path d="M31.4776 21.7402C30.482 21.7402 29.6636 22.5522 29.6636 23.5543C29.6636 24.5498 30.4756 25.3704 31.4776 25.3704C32.4796 25.3704 33.2916 24.5585 33.2916 23.5543C33.2916 22.5522 32.4796 21.7402 31.4776 21.7402ZM31.4776 24.2604C31.0824 24.2604 30.7649 23.943 30.7649 23.5478C30.7649 23.1526 31.0824 22.8351 31.4776 22.8351C31.8728 22.8351 32.1903 23.1526 32.1903 23.5478C32.1903 23.943 31.8728 24.2604 31.4776 24.2604Z" fill="white"/>
</g>
</g>
<mask id="mask98_160_198" style="mask-type:luminance" maskUnits="userSpaceOnUse" x="29" y="27" width="5" height="5">
<path d="M29.1475 27.1995H33.5702V31.6222H29.1475V27.1995Z" fill="white"/>
</mask>
<g mask="url(#mask98_160_198)">
<mask id="mask99_160_198" style="mask-type:luminance" maskUnits="userSpaceOnUse" x="0" y="0" width="74" height="69">
<path d="M0 0.829268V67.2766C0 67.7344 0.371443 68.1058 0.829268 68.1058H72.4703C72.9281 68.1058 73.2995 67.7344 73.2995 67.2766V0.829268C73.2995 0.371443 72.9281 0 72.4703 0H0.829268C0.371443 0 0 0.371443 0 0.829268Z" fill="white"/>
</mask>
<g mask="url(#mask99_160_198)">
<path d="M31.4776 27.573C30.482 27.573 29.6636 28.385 29.6636 29.387C29.6636 30.3891 30.4756 31.201 31.4776 31.201C32.4796 31.201 33.2916 30.3891 33.2916 29.387C33.2916 28.385 32.4796 27.573 31.4776 27.573ZM31.4776 30.0997C31.0824 30.0997 30.7649 29.7822 30.7649 29.387C30.7649 28.9918 31.0824 28.6744 31.4776 28.6744C31.8728 28.6744 32.1903 28.9918 32.1903 29.387C32.1903 29.7757 31.8728 30.0997 31.4776 30.0997Z" fill="white"/>
</g>
</g>
<mask id="mask100_160_198" style="mask-type:luminance" maskUnits="userSpaceOnUse" x="29" y="33" width="5" height="5">
<path d="M29.1475 33.2808H33.5702V37.1507H29.1475V33.2808Z" fill="white"/>
</mask>
<g mask="url(#mask100_160_198)">
<mask id="mask101_160_198" style="mask-type:luminance" maskUnits="userSpaceOnUse" x="0" y="0" width="74" height="69">
<path d="M0 0.829268V67.2766C0 67.7344 0.371443 68.1058 0.829268 68.1058H72.4703C72.9281 68.1058 73.2995 67.7344 73.2995 67.2766V0.829268C73.2995 0.371443 72.9281 0 72.4703 0H0.829268C0.371443 0 0 0.371443 0 0.829268Z" fill="white"/>
</mask>
<g mask="url(#mask101_160_198)">
<path d="M31.4776 33.4041C30.482 33.4041 29.6636 34.216 29.6636 35.2202C29.6636 36.2158 30.4756 37.0343 31.4776 37.0343C32.4796 37.0343 33.2916 36.2223 33.2916 35.2202C33.2916 34.216 32.4796 33.4041 31.4776 33.4041ZM31.4776 35.9329C31.0824 35.9329 30.7649 35.6154 30.7649 35.2202C30.7649 34.825 31.0824 34.5076 31.4776 34.5076C31.8728 34.5076 32.1903 34.825 32.1903 35.2202C32.1903 35.6154 31.8728 35.9329 31.4776 35.9329Z" fill="white"/>
</g>
</g>
<mask id="mask102_160_198" style="mask-type:luminance" maskUnits="userSpaceOnUse" x="29" y="38" width="5" height="6">
<path d="M29.1475 38.8093H33.5702V43.2321H29.1475V38.8093Z" fill="white"/>
</mask>
<g mask="url(#mask102_160_198)">
<mask id="mask103_160_198" style="mask-type:luminance" maskUnits="userSpaceOnUse" x="0" y="0" width="74" height="69">
<path d="M0 0.829268V67.2766C0 67.7344 0.371443 68.1058 0.829268 68.1058H72.4703C72.9281 68.1058 73.2995 67.7344 73.2995 67.2766V0.829268C73.2995 0.371443 72.9281 0 72.4703 0H0.829268C0.371443 0 0 0.371443 0 0.829268Z" fill="white"/>
</mask>
<g mask="url(#mask103_160_198)">
<path d="M31.4776 39.2432C30.482 39.2432 29.6636 40.0552 29.6636 41.0593C29.6636 42.0614 30.4756 42.8734 31.4776 42.8734C32.4796 42.8734 33.2916 42.0614 33.2916 41.0593C33.2916 40.0552 32.4796 39.2432 31.4776 39.2432ZM31.4776 41.7655C31.0824 41.7655 30.7649 41.4481 30.7649 41.0529C30.7649 40.6555 31.0824 40.3381 31.4776 40.3381C31.8728 40.3381 32.1903 40.6555 32.1903 41.0529C32.1903 41.4481 31.8728 41.7655 31.4776 41.7655Z" fill="white"/>
</g>
</g>
<mask id="mask104_160_198" style="mask-type:luminance" maskUnits="userSpaceOnUse" x="36" y="21" width="5" height="5">
<path d="M36.3345 21.6711H40.2044V25.5411H36.3345V21.6711Z" fill="white"/>
</mask>
<g mask="url(#mask104_160_198)">
<mask id="mask105_160_198" style="mask-type:luminance" maskUnits="userSpaceOnUse" x="0" y="0" width="74" height="69">
<path d="M0 0.829268V67.2766C0 67.7344 0.371443 68.1058 0.829268 68.1058H72.4703C72.9281 68.1058 73.2995 67.7344 73.2995 67.2766V0.829268C73.2995 0.371443 72.9281 0 72.4703 0H0.829268C0.371443 0 0 0.371443 0 0.829268Z" fill="white"/>
</mask>
<g mask="url(#mask105_160_198)">
<path d="M38.2847 21.7402C37.2892 21.7402 36.4707 22.5522 36.4707 23.5543C36.4707 24.5498 37.2827 25.3704 38.2847 25.3704C39.2803 25.3704 40.0988 24.5585 40.0988 23.5543C40.0988 22.5522 39.2868 21.7402 38.2847 21.7402ZM38.2847 24.2604C37.8895 24.2604 37.5721 23.943 37.5721 23.5478C37.5721 23.1526 37.8895 22.8351 38.2847 22.8351C38.6799 22.8351 38.9974 23.1526 38.9974 23.5478C38.9974 23.943 38.6799 24.2604 38.2847 24.2604Z" fill="white"/>
</g>
</g>
<mask id="mask106_160_198" style="mask-type:luminance" maskUnits="userSpaceOnUse" x="36" y="27" width="5" height="5">
<path d="M36.3345 27.1995H40.2044V31.6222H36.3345V27.1995Z" fill="white"/>
</mask>
<g mask="url(#mask106_160_198)">
<mask id="mask107_160_198" style="mask-type:luminance" maskUnits="userSpaceOnUse" x="0" y="0" width="74" height="69">
<path d="M0 0.829268V67.2766C0 67.7344 0.371443 68.1058 0.829268 68.1058H72.4703C72.9281 68.1058 73.2995 67.7344 73.2995 67.2766V0.829268C73.2995 0.371443 72.9281 0 72.4703 0H0.829268C0.371443 0 0 0.371443 0 0.829268Z" fill="white"/>
</mask>
<g mask="url(#mask107_160_198)">
<path d="M38.2847 27.573C37.2892 27.573 36.4707 28.385 36.4707 29.387C36.4707 30.3891 37.2827 31.201 38.2847 31.201C39.2803 31.201 40.0988 30.3891 40.0988 29.387C40.0988 28.385 39.2868 27.573 38.2847 27.573ZM38.2847 30.0997C37.8895 30.0997 37.5721 29.7822 37.5721 29.387C37.5721 28.9918 37.8895 28.6744 38.2847 28.6744C38.6799 28.6744 38.9974 28.9918 38.9974 29.387C38.9974 29.7757 38.6799 30.0997 38.2847 30.0997Z" fill="white"/>
</g>
</g>
<mask id="mask108_160_198" style="mask-type:luminance" maskUnits="userSpaceOnUse" x="36" y="33" width="5" height="5">
<path d="M36.3345 33.2808H40.2044V37.1507H36.3345V33.2808Z" fill="white"/>
</mask>
<g mask="url(#mask108_160_198)">
<mask id="mask109_160_198" style="mask-type:luminance" maskUnits="userSpaceOnUse" x="0" y="0" width="74" height="69">
<path d="M0 0.829268V67.2766C0 67.7344 0.371443 68.1058 0.829268 68.1058H72.4703C72.9281 68.1058 73.2995 67.7344 73.2995 67.2766V0.829268C73.2995 0.371443 72.9281 0 72.4703 0H0.829268C0.371443 0 0 0.371443 0 0.829268Z" fill="white"/>
</mask>
<g mask="url(#mask109_160_198)">
<path d="M38.2847 33.4041C37.2892 33.4041 36.4707 34.216 36.4707 35.2202C36.4707 36.2158 37.2827 37.0343 38.2847 37.0343C39.2803 37.0343 40.0988 36.2223 40.0988 35.2202C40.0988 34.216 39.2868 33.4041 38.2847 33.4041ZM38.2847 35.9329C37.8895 35.9329 37.5721 35.6154 37.5721 35.2202C37.5721 34.825 37.8895 34.5076 38.2847 34.5076C38.6799 34.5076 38.9974 34.825 38.9974 35.2202C38.9974 35.6154 38.6799 35.9329 38.2847 35.9329Z" fill="white"/>
</g>
</g>
<mask id="mask110_160_198" style="mask-type:luminance" maskUnits="userSpaceOnUse" x="36" y="38" width="5" height="6">
<path d="M36.3345 38.8093H40.2044V43.2321H36.3345V38.8093Z" fill="white"/>
</mask>
<g mask="url(#mask110_160_198)">
<mask id="mask111_160_198" style="mask-type:luminance" maskUnits="userSpaceOnUse" x="0" y="0" width="74" height="69">
<path d="M0 0.829268V67.2766C0 67.7344 0.371443 68.1058 0.829268 68.1058H72.4703C72.9281 68.1058 73.2995 67.7344 73.2995 67.2766V0.829268C73.2995 0.371443 72.9281 0 72.4703 0H0.829268C0.371443 0 0 0.371443 0 0.829268Z" fill="white"/>
</mask>
<g mask="url(#mask111_160_198)">
<path d="M38.2847 39.2432C37.2892 39.2432 36.4707 40.0552 36.4707 41.0593C36.4707 42.0614 37.2827 42.8734 38.2847 42.8734C39.2803 42.8734 40.0988 42.0614 40.0988 41.0593C40.0988 40.0552 39.2868 39.2432 38.2847 39.2432ZM38.2847 41.7655C37.8895 41.7655 37.5721 41.4481 37.5721 41.0529C37.5721 40.6555 37.8895 40.3381 38.2847 40.3381C38.6799 40.3381 38.9974 40.6555 38.9974 41.0529C38.9974 41.4481 38.6799 41.7655 38.2847 41.7655Z" fill="white"/>
</g>
</g>
<mask id="mask112_160_198" style="mask-type:luminance" maskUnits="userSpaceOnUse" x="0" y="0" width="74" height="68">
<path d="M0 0H73.3751V68H0V0Z" fill="white"/>
</mask>
<g mask="url(#mask112_160_198)">
<mask id="mask113_160_198" style="mask-type:luminance" maskUnits="userSpaceOnUse" x="0" y="0" width="74" height="69">
<path d="M0 0.829268V67.2766C0 67.7344 0.371443 68.1058 0.829268 68.1058H72.4703C72.9281 68.1058 73.2995 67.7344 73.2995 67.2766V0.829268C73.2995 0.371443 72.9281 0 72.4703 0H0.829268C0.371443 0 0 0.371443 0 0.829268Z" fill="white"/>
</mask>
<g mask="url(#mask113_160_198)">
<path d="M72.1916 0H1.10124C0.494407 0 0.00634766 0.494537 0.00634766 1.09273V67.0088C0.00634766 67.6156 0.500886 68.1037 1.10124 68.1037H72.1916C72.7984 68.1037 73.2865 67.6091 73.2865 67.0088V1.10137C73.2865 0.494537 72.7984 0 72.1916 0ZM1.10124 67.0088V1.10137H72.1916V67.0152H1.10124V67.0088Z" fill="white"/>
</g>
</g>
<mask id="mask114_160_198" style="mask-type:luminance" maskUnits="userSpaceOnUse" x="43" y="22" width="5" height="8">
<path d="M43.5215 22.2239H47.9442V29.4109H43.5215V22.2239Z" fill="white"/>
</mask>
<g mask="url(#mask114_160_198)">
<mask id="mask115_160_198" style="mask-type:luminance" maskUnits="userSpaceOnUse" x="0" y="0" width="74" height="69">
<path d="M0 0.829268V67.2766C0 67.7344 0.371443 68.1058 0.829268 68.1058H72.4703C72.9281 68.1058 73.2995 67.7344 73.2995 67.2766V0.829268C73.2995 0.371443 72.9281 0 72.4703 0H0.829268C0.371443 0 0 0.371443 0 0.829268Z" fill="white"/>
</mask>
<g mask="url(#mask115_160_198)">
<path d="M47.4152 22.4248H43.7915V28.9769H47.4152V22.4248ZM46.3139 27.8842H44.8799V23.5197H46.3139V27.8842Z" fill="white"/>
</g>
</g>
<mask id="mask116_160_198" style="mask-type:luminance" maskUnits="userSpaceOnUse" x="58" y="33" width="9" height="3">
<path d="M58.4482 33.8337H66.1881V35.4923H58.4482V33.8337Z" fill="white"/>
</mask>
<g mask="url(#mask116_160_198)">
<mask id="mask117_160_198" style="mask-type:luminance" maskUnits="userSpaceOnUse" x="0" y="0" width="74" height="69">
<path d="M0 0.829268V67.2766C0 67.7344 0.371443 68.1058 0.829268 68.1058H72.4703C72.9281 68.1058 73.2995 67.7344 73.2995 67.2766V0.829268C73.2995 0.371443 72.9281 0 72.4703 0H0.829268C0.371443 0 0 0.371443 0 0.829268Z" fill="white"/>
</mask>
<g mask="url(#mask117_160_198)">
<path d="M58.9233 33.9353H65.8015V35.028H58.9233V33.9353Z" fill="white"/>
</g>
</g>
<mask id="mask118_160_198" style="mask-type:luminance" maskUnits="userSpaceOnUse" x="58" y="36" width="9" height="2">
<path d="M58.4482 36.0449H66.1881V37.7035H58.4482V36.0449Z" fill="white"/>
</mask>
<g mask="url(#mask118_160_198)">
<mask id="mask119_160_198" style="mask-type:luminance" maskUnits="userSpaceOnUse" x="0" y="0" width="74" height="69">
<path d="M0 0.829268V67.2766C0 67.7344 0.371443 68.1058 0.829268 68.1058H72.4703C72.9281 68.1058 73.2995 67.7344 73.2995 67.2766V0.829268C73.2995 0.371443 72.9281 0 72.4703 0H0.829268C0.371443 0 0 0.371443 0 0.829268Z" fill="white"/>
</mask>
<g mask="url(#mask119_160_198)">
<path d="M58.9233 36.3152H65.8015V37.4079H58.9233V36.3152Z" fill="white"/>
</g>
</g>
<mask id="mask120_160_198" style="mask-type:luminance" maskUnits="userSpaceOnUse" x="58" y="38" width="9" height="2">
<path d="M58.4482 38.2566H66.1881V39.9151H58.4482V38.2566Z" fill="white"/>
</mask>
<g mask="url(#mask120_160_198)">
<mask id="mask121_160_198" style="mask-type:luminance" maskUnits="userSpaceOnUse" x="0" y="0" width="74" height="69">
<path d="M0 0.829268V67.2766C0 67.7344 0.371443 68.1058 0.829268 68.1058H72.4703C72.9281 68.1058 73.2995 67.7344 73.2995 67.2766V0.829268C73.2995 0.371443 72.9281 0 72.4703 0H0.829268C0.371443 0 0 0.371443 0 0.829268Z" fill="white"/>
</mask>
<g mask="url(#mask121_160_198)">
<path d="M58.9233 38.6926H65.8015V39.7875H58.9233V38.6926Z" fill="white"/>
</g>
</g>
<mask id="mask122_160_198" style="mask-type:luminance" maskUnits="userSpaceOnUse" x="58" y="41" width="9" height="2">
<path d="M58.4482 41.0208H66.1881V42.6793H58.4482V41.0208Z" fill="white"/>
</mask>
<g mask="url(#mask122_160_198)">
<mask id="mask123_160_198" style="mask-type:luminance" maskUnits="userSpaceOnUse" x="0" y="0" width="74" height="69">
<path d="M0 0.829268V67.2766C0 67.7344 0.371443 68.1058 0.829268 68.1058H72.4703C72.9281 68.1058 73.2995 67.7344 73.2995 67.2766V0.829268C73.2995 0.371443 72.9281 0 72.4703 0H0.829268C0.371443 0 0 0.371443 0 0.829268Z" fill="white"/>
</mask>
<g mask="url(#mask123_160_198)">
<path d="M58.9233 41.0725H65.8015V42.1674H58.9233V41.0725Z" fill="white"/>
</g>
</g>
<mask id="mask124_160_198" style="mask-type:luminance" maskUnits="userSpaceOnUse" x="50" y="39" width="5" height="5">
<path d="M50.1558 39.3623H54.0257V43.2322H50.1558V39.3623Z" fill="white"/>
</mask>
<g mask="url(#mask124_160_198)">
<mask id="mask125_160_198" style="mask-type:luminance" maskUnits="userSpaceOnUse" x="0" y="0" width="74" height="69">
<path d="M0 0.829268V67.2766C0 67.7344 0.371443 68.1058 0.829268 68.1058H72.4703C72.9281 68.1058 73.2995 67.7344 73.2995 67.2766V0.829268C73.2995 0.371443 72.9281 0 72.4703 0H0.829268C0.371443 0 0 0.371443 0 0.829268Z" fill="white"/>
</mask>
<g mask="url(#mask125_160_198)">
<path d="M52.0471 39.5134C51.0494 39.5134 50.231 40.3254 50.231 41.3275C50.231 42.323 51.0429 43.1415 52.0471 43.1415C53.0427 43.1415 53.8612 42.3295 53.8612 41.3275C53.8547 40.3319 53.0427 39.5134 52.0471 39.5134ZM52.0471 42.0401C51.6498 42.0401 51.3323 41.7226 51.3323 41.3275C51.3323 40.9323 51.6498 40.6148 52.0471 40.6148C52.4423 40.6148 52.7598 40.9323 52.7598 41.3275C52.7598 41.7226 52.4423 42.0401 52.0471 42.0401Z" fill="white"/>
</g>
</g>
<mask id="mask126_160_198" style="mask-type:luminance" maskUnits="userSpaceOnUse" x="50" y="32" width="5" height="6">
<path d="M50.1558 32.728H54.5785V37.1508H50.1558V32.728Z" fill="white"/>
</mask>
<g mask="url(#mask126_160_198)">
<mask id="mask127_160_198" style="mask-type:luminance" maskUnits="userSpaceOnUse" x="0" y="0" width="74" height="69">
<path d="M0 0.829268V67.2766C0 67.7344 0.371443 68.1058 0.829268 68.1058H72.4703C72.9281 68.1058 73.2995 67.7344 73.2995 67.2766V0.829268C73.2995 0.371443 72.9281 0 72.4703 0H0.829268C0.371443 0 0 0.371443 0 0.829268Z" fill="white"/>
</mask>
<g mask="url(#mask127_160_198)">
<path d="M52.2159 36.6605C53.2114 36.6605 54.0299 35.8485 54.0299 34.8443C54.0299 33.8423 53.2179 33.0303 52.2159 33.0303C51.2203 33.0303 50.4019 33.8423 50.4019 34.8443C50.4019 35.8485 51.2203 36.6605 52.2159 36.6605ZM52.2159 34.1316C52.6111 34.1316 52.9285 34.4491 52.9285 34.8443C52.9285 35.2417 52.6111 35.5591 52.2159 35.5591C51.8207 35.5591 51.5032 35.2417 51.5032 34.8443C51.5032 34.4491 51.8207 34.1316 52.2159 34.1316Z" fill="white"/>
</g>
</g>
<mask id="mask128_160_198" style="mask-type:luminance" maskUnits="userSpaceOnUse" x="42" y="33" width="6" height="5">
<path d="M42.9688 33.2808H47.3915V37.1507H42.9688V33.2808Z" fill="white"/>
</mask>
<g mask="url(#mask128_160_198)">
<mask id="mask129_160_198" style="mask-type:luminance" maskUnits="userSpaceOnUse" x="0" y="0" width="74" height="69">
<path d="M0 0.829268V67.2766C0 67.7344 0.371443 68.1058 0.829268 68.1058H72.4703C72.9281 68.1058 73.2995 67.7344 73.2995 67.2766V0.829268C73.2995 0.371443 72.9281 0 72.4703 0H0.829268C0.371443 0 0 0.371443 0 0.829268Z" fill="white"/>
</mask>
<g mask="url(#mask129_160_198)">
<path d="M45.169 33.4041C44.1735 33.4041 43.355 34.216 43.355 35.2202C43.355 36.2158 44.167 37.0343 45.169 37.0343C46.171 37.0343 46.983 36.2223 46.983 35.2202C46.9766 34.216 46.1646 33.4041 45.169 33.4041ZM45.169 35.9329C44.7738 35.9329 44.4564 35.6154 44.4564 35.2202C44.4564 34.825 44.7738 34.5076 45.169 34.5076C45.5642 34.5076 45.8817 34.825 45.8817 35.2202C45.8817 35.6154 45.5577 35.9329 45.169 35.9329Z" fill="white"/>
</g>
</g>
<mask id="mask130_160_198" style="mask-type:luminance" maskUnits="userSpaceOnUse" x="42" y="38" width="6" height="6">
<path d="M42.9688 38.8093H47.3915V43.2321H42.9688V38.8093Z" fill="white"/>
</mask>
<g mask="url(#mask130_160_198)">
<mask id="mask131_160_198" style="mask-type:luminance" maskUnits="userSpaceOnUse" x="0" y="0" width="74" height="69">
<path d="M0 0.829268V67.2766C0 67.7344 0.371443 68.1058 0.829268 68.1058H72.4703C72.9281 68.1058 73.2995 67.7344 73.2995 67.2766V0.829268C73.2995 0.371443 72.9281 0 72.4703 0H0.829268C0.371443 0 0 0.371443 0 0.829268Z" fill="white"/>
</mask>
<g mask="url(#mask131_160_198)">
<path d="M45.169 39.2432C44.1735 39.2432 43.355 40.0552 43.355 41.0593C43.355 42.0614 44.167 42.8734 45.169 42.8734C46.171 42.8734 46.983 42.0614 46.983 41.0593C46.983 40.0552 46.1646 39.2432 45.169 39.2432ZM45.169 41.7655C44.7738 41.7655 44.4564 41.4481 44.4564 41.0529C44.4564 40.6555 44.7738 40.3381 45.169 40.3381C45.5642 40.3381 45.8817 40.6555 45.8817 41.0529C45.8817 41.4481 45.5577 41.7655 45.169 41.7655Z" fill="white"/>
</g>
</g>
</svg>
