<svg width="73" height="69" viewBox="0 0 73 69" fill="none" xmlns="http://www.w3.org/2000/svg">
<mask id="mask0_160_797" style="mask-type:luminance" maskUnits="userSpaceOnUse" x="0" y="0" width="73" height="69">
<path d="M0 0H73V68.4375H0V0Z" fill="white"/>
</mask>
<g mask="url(#mask0_160_797)">
<path d="M68.3014 0.017334H4.7094C2.11059 0.017334 0 2.12792 0 4.72673V63.7238C0 66.3226 2.11059 68.4332 4.7094 68.4332H68.3014C70.9002 68.4332 73.013 66.3226 73.013 63.7238V4.72673C73.0043 2.12792 70.9002 0.017334 68.3014 0.017334ZM71.7514 63.7174C71.7514 65.6227 70.2024 67.1652 68.3014 67.1652H4.7094C2.80188 67.1652 1.25944 65.6162 1.25944 63.7174V4.72673C1.25944 2.81921 2.81052 1.27677 4.7094 1.27677H68.3014C70.2089 1.27677 71.7514 2.82785 71.7514 4.72673V63.7174Z" fill="white"/>
</g>
<path d="M10.1013 5.53027H6.61463V11.0692H3.71338V26.4806H6.61463V62.4405H10.1013V26.4806H13.0026V11.0692H10.1013V5.53027ZM7.87623 6.78539H8.85483V11.0692H7.87623V6.78539ZM8.84835 61.1876H7.86759V26.4806H8.84835V61.1876ZM11.7496 12.3222V25.219H4.96634V12.3222H11.7496Z" fill="white"/>
<path d="M27.7766 5.53027H24.2899V41.4902H21.3887V56.9038H24.2899V62.4405H27.7766V56.9038H30.68V41.4902H27.7766V5.53027ZM25.545 6.78539H26.5236V41.4902H25.545V6.78539ZM26.5236 61.1876H25.545V56.9038H26.5236V61.1876ZM29.4249 42.7432V55.6422H22.6416V42.7432H29.4249Z" fill="white"/>
<path d="M47.0183 4.64233H43.5316V23.1991H40.6304V38.6127H43.5316V61.5526H47.0183V38.6127H49.9196V23.1991H47.0183V4.64233ZM44.7846 5.89529H45.7653V23.1991H44.7846V5.89529ZM45.7567 60.291H44.7781V38.6127H45.7567V60.291ZM48.6666 24.4521V37.3511H41.8833V24.4521H48.6666Z" fill="white"/>
<path d="M14.7656 5.53027H19.4901V6.78539H14.7656V5.53027Z" fill="white"/>
<path d="M15.7075 7.6731H18.5332V8.92606H15.7075V7.6731Z" fill="white"/>
<path d="M15.7075 9.92236H18.5332V11.1753H15.7075V9.92236Z" fill="white"/>
<path d="M15.7075 12.1709H18.5332V13.4239H15.7075V12.1709Z" fill="white"/>
<path d="M15.7075 14.4177H18.5332V15.6728H15.7075V14.4177Z" fill="white"/>
<path d="M14.7656 16.5757H19.4901V17.8286H14.7656V16.5757Z" fill="white"/>
<path d="M15.7075 18.6194H18.5332V19.8723H15.7075V18.6194Z" fill="white"/>
<path d="M15.7075 20.8682H18.5332V22.1211H15.7075V20.8682Z" fill="white"/>
<path d="M15.7075 23.115H18.5332V24.3701H15.7075V23.115Z" fill="white"/>
<path d="M15.7075 25.3638H18.5332V26.6167H15.7075V25.3638Z" fill="white"/>
<path d="M14.7656 27.522H19.4901V28.7749H14.7656V27.522Z" fill="white"/>
<path d="M15.7075 29.6411H18.5332V30.8941H15.7075V29.6411Z" fill="white"/>
<path d="M15.7075 31.8901H18.5332V33.1431H15.7075V31.8901Z" fill="white"/>
<path d="M15.7075 34.1389H18.5332V35.3919H15.7075V34.1389Z" fill="white"/>
<path d="M15.7075 36.3857H18.5332V37.6387H15.7075V36.3857Z" fill="white"/>
<path d="M14.7656 38.5437H19.4901V39.7967H14.7656V38.5437Z" fill="white"/>
<path d="M15.7075 40.6543H18.5332V41.9094H15.7075V40.6543Z" fill="white"/>
<path d="M15.7075 42.9116H18.5332V44.1646H15.7075V42.9116Z" fill="white"/>
<path d="M15.7075 45.1606H18.5332V46.4136H15.7075V45.1606Z" fill="white"/>
<path d="M15.7075 47.4072H18.5332V48.6623H15.7075V47.4072Z" fill="white"/>
<path d="M14.7656 49.5654H19.4901V50.8184H14.7656V49.5654Z" fill="white"/>
<path d="M15.7075 51.9114H18.5332V53.1665H15.7075V51.9114Z" fill="white"/>
<path d="M15.7075 54.1602H18.5332V55.4131H15.7075V54.1602Z" fill="white"/>
<path d="M15.7075 56.4092H18.5332V57.6621H15.7075V56.4092Z" fill="white"/>
<path d="M15.7075 58.6646H18.5332V59.9197H15.7075V58.6646Z" fill="white"/>
<path d="M14.7656 60.8162H19.4901V62.0691H14.7656V60.8162Z" fill="white"/>
<path d="M33.5361 5.53027H38.2607V6.78539H33.5361V5.53027Z" fill="white"/>
<path d="M34.478 7.6731H37.3037V8.92606H34.478V7.6731Z" fill="white"/>
<path d="M34.478 9.92236H37.3037V11.1753H34.478V9.92236Z" fill="white"/>
<path d="M34.478 12.1709H37.3037V13.4239H34.478V12.1709Z" fill="white"/>
<path d="M34.478 14.4177H37.3037V15.6728H34.478V14.4177Z" fill="white"/>
<path d="M33.5361 16.5757H38.2607V17.8286H33.5361V16.5757Z" fill="white"/>
<path d="M34.478 18.6194H37.3037V19.8723H34.478V18.6194Z" fill="white"/>
<path d="M34.478 20.8682H37.3037V22.1211H34.478V20.8682Z" fill="white"/>
<path d="M34.478 23.115H37.3037V24.3701H34.478V23.115Z" fill="white"/>
<path d="M34.478 25.3638H37.3037V26.6167H34.478V25.3638Z" fill="white"/>
<path d="M33.5361 27.522H38.2607V28.7749H33.5361V27.522Z" fill="white"/>
<path d="M34.478 29.6411H37.3037V30.8941H34.478V29.6411Z" fill="white"/>
<path d="M34.478 31.8901H37.3037V33.1431H34.478V31.8901Z" fill="white"/>
<path d="M34.478 34.1389H37.3037V35.3919H34.478V34.1389Z" fill="white"/>
<path d="M34.478 36.3857H37.3037V37.6387H34.478V36.3857Z" fill="white"/>
<path d="M33.5361 38.5437H38.2607V39.7967H33.5361V38.5437Z" fill="white"/>
<path d="M34.478 40.6543H37.3037V41.9094H34.478V40.6543Z" fill="white"/>
<path d="M34.478 42.9116H37.3037V44.1646H34.478V42.9116Z" fill="white"/>
<path d="M34.478 45.1606H37.3037V46.4136H34.478V45.1606Z" fill="white"/>
<path d="M34.478 47.4072H37.3037V48.6623H34.478V47.4072Z" fill="white"/>
<path d="M33.5361 49.5654H38.2607V50.8184H33.5361V49.5654Z" fill="white"/>
<path d="M34.478 51.9114H37.3037V53.1665H34.478V51.9114Z" fill="white"/>
<path d="M34.478 54.1602H37.3037V55.4131H34.478V54.1602Z" fill="white"/>
<path d="M34.478 56.4092H37.3037V57.6621H34.478V56.4092Z" fill="white"/>
<path d="M34.478 58.6646H37.3037V59.9197H34.478V58.6646Z" fill="white"/>
<path d="M33.5361 60.8162H38.2607V62.0691H33.5361V60.8162Z" fill="white"/>
<path d="M61.6173 5.53043V4.43085C61.6173 4.08088 61.3365 3.80005 60.9865 3.80005C60.6387 3.80005 60.3557 4.08088 60.3557 4.43085V5.53043C57.1823 5.85015 54.7045 8.57642 54.7887 11.8579C54.873 15.0486 57.4545 17.7144 60.6452 17.8829C64.2161 18.073 67.1865 15.2236 67.1865 11.6915C67.1865 8.49433 64.7389 5.85015 61.6173 5.53043ZM60.9865 16.6364C58.2603 16.6364 56.0417 14.4178 56.0417 11.6915C56.0417 9.17697 57.9254 7.10311 60.3579 6.79203V8.29558H61.6109V6.80067C64.0412 7.11175 65.9249 9.18561 65.9249 11.7002C65.9314 14.4264 63.715 16.6364 60.9865 16.6364Z" fill="white"/>
<path d="M60.6452 48.5996C57.4545 48.7746 54.873 51.4339 54.7887 54.6246C54.7045 57.8974 57.1823 60.6323 60.3579 60.9521V62.4707C60.3579 62.8207 60.6387 63.1015 60.9865 63.1015C61.3365 63.1015 61.6173 62.8207 61.6173 62.4707V60.9521C64.7389 60.6323 67.1865 57.9882 67.1865 54.7845C67.1865 51.2589 64.2161 48.4117 60.6452 48.5996ZM61.6173 59.6905V57.0398H60.3557V59.6905C57.9254 59.3794 56.0417 57.3055 56.0417 54.791C56.0417 52.0647 58.2603 49.8461 60.9865 49.8461C63.715 49.8461 65.9314 52.0647 65.9314 54.791C65.9314 57.3055 64.0412 59.3794 61.6173 59.6905Z" fill="white"/>
<path d="M54.9186 34.4952C55.4349 37.0465 57.5542 39.0361 60.1292 39.3796C64.156 39.9175 67.5649 36.5756 67.1479 32.5726C66.852 29.762 64.6269 27.4614 61.8229 27.0963C59.1722 26.7463 56.7937 28.0922 55.6013 30.1876L53.9379 29.4272C53.6268 29.2846 53.2466 29.4207 53.1018 29.7404C52.9592 30.0515 53.0953 30.4317 53.4151 30.5743L55.0936 31.3434C54.7825 32.3155 54.6896 33.3783 54.9186 34.4952ZM56.2472 31.8662L57.8739 32.6115L58.3967 31.4708L56.757 30.719C57.6233 29.276 59.196 28.3039 60.9955 28.3039C63.7217 28.3039 65.9403 30.5225 65.9403 33.2487C65.9403 35.975 63.7217 38.1936 60.9955 38.1936C58.2692 38.1936 56.0506 35.975 56.0506 33.2487C56.042 32.7713 56.1176 32.3069 56.2472 31.8662Z" fill="white"/>
<path d="M6.43994 13.6052H10.2852V14.8582H6.43994V13.6052Z" fill="white"/>
<path d="M6.43994 15.9084H10.2852V17.1614H6.43994V15.9084Z" fill="white"/>
<path d="M6.43994 18.2004H10.2852V19.4556H6.43994V18.2004Z" fill="white"/>
<path d="M6.43994 20.5029H10.2852V21.7559H6.43994V20.5029Z" fill="white"/>
<path d="M6.43994 22.7974H10.2852V24.0503H6.43994V22.7974Z" fill="white"/>
<path d="M24.1172 43.9744H27.9603V45.2273H24.1172V43.9744Z" fill="white"/>
<path d="M24.1172 46.2686H27.9603V47.5215H24.1172V46.2686Z" fill="white"/>
<path d="M24.1172 48.5696H27.9603V49.8247H24.1172V48.5696Z" fill="white"/>
<path d="M24.1172 50.8638H27.9603V52.1167H24.1172V50.8638Z" fill="white"/>
<path d="M24.1172 53.1665H27.9603V54.4195H24.1172V53.1665Z" fill="white"/>
<path d="M43.3501 25.6685H47.1932V26.9214H43.3501V25.6685Z" fill="white"/>
<path d="M43.3501 27.9692H47.1932V29.2244H43.3501V27.9692Z" fill="white"/>
<path d="M43.3501 30.2632H47.1932V31.5161H43.3501V30.2632Z" fill="white"/>
<path d="M43.3501 32.5662H47.1932V33.8191H43.3501V32.5662Z" fill="white"/>
<path d="M43.3501 34.8604H47.1932V36.1133H43.3501V34.8604Z" fill="white"/>
</svg>
