<svg width="78" height="78" viewBox="0 0 78 78" fill="none" xmlns="http://www.w3.org/2000/svg">
<path d="M52.09 34.2326C40.8372 30.0357 27.2018 34.3266 26.9155 34.4228C13.8528 38.5235 13.09 45.8657 12.9938 46.6286C12.137 53.7807 18.1437 57.8791 18.3338 57.9753C18.524 58.1655 23.864 63.029 34.8305 63.2192C35.4032 63.2192 35.8797 63.2192 36.4524 63.2192C46.2734 63.2192 50.5643 61.6935 57.1437 57.7852C63.8193 53.8747 64.3897 47.4854 62.6739 42.9082C62.1974 41.6688 60.0989 37.1879 52.09 34.2326ZM56.6672 57.0223C49.8976 61.0268 45.6068 62.4563 34.8305 62.2662C24.2466 62.076 19.0005 57.3087 18.9065 57.2125C18.8103 57.2125 13.1839 53.3019 13.8528 46.6286C13.8528 45.8657 14.6157 39.0962 27.1056 35.2819C27.2018 35.2819 33.4009 33.2773 40.7432 33.2773C44.2712 33.2773 48.0855 33.7561 51.6135 35.0894C59.1459 37.9507 61.2444 42.0514 61.6246 43.2908C63.3428 47.5816 62.8663 53.3982 56.6672 57.0223Z" fill="white"/>
<path d="M51.1373 35.4721C40.6473 31.6577 27.965 35.566 27.5847 35.6622C15.2827 39.3803 14.5198 46.1522 14.5198 46.915C13.7569 53.5884 19.3833 57.3088 19.5735 57.4027C19.7636 57.5951 24.7234 62.0761 35.0209 62.1723C35.4974 62.1723 35.9762 62.1723 36.4527 62.1723C45.701 62.1723 49.7055 60.8367 55.9046 57.2125C62.1037 53.5884 62.6742 47.6779 61.1484 43.481C60.578 42.2416 58.5735 38.1409 51.1373 35.4721ZM55.3319 56.3535C49.0388 60.0739 45.0344 61.3132 34.927 61.217C25.1037 61.1231 20.2424 56.736 20.05 56.6398C19.9561 56.6398 14.7099 53.0179 15.3789 46.915C15.3789 46.2461 16.1417 40.0493 27.7748 36.5213C27.8688 36.5213 33.6876 34.7092 40.5511 34.7092C43.795 34.7092 47.323 35.0895 50.6608 36.3289C57.7167 38.9038 59.6227 42.7181 60.0053 43.8636C61.531 47.6779 61.0545 53.0179 55.3319 56.3535Z" fill="white"/>
<path d="M42.2691 41.7648C39.8843 40.7156 35.8798 41.2883 35.6897 41.2883C31.7791 41.955 30.2534 44.7201 30.1572 44.8163C30.0633 45.1027 30.0633 45.5792 30.0633 45.7693C29.9671 48.1541 31.7791 49.3935 31.7791 49.3935C31.8754 49.4897 33.495 51.0154 36.929 51.0154C37.1192 51.0154 37.3093 51.0154 37.4056 51.0154C40.457 51.0154 41.7926 50.5366 43.7948 49.2973C45.9872 47.964 46.0834 45.8655 45.6069 44.4337C45.5107 44.3398 44.938 42.908 42.2691 41.7648ZM43.3183 48.6306C41.3138 49.7738 40.1706 50.2526 36.929 50.1563C33.8776 50.1563 32.4458 48.7268 32.3519 48.7268C32.3519 48.7268 30.9201 47.6776 31.0163 45.8655C31.0163 45.5792 31.0163 45.2928 31.0163 45.2928C31.1125 45.1966 32.3519 42.8141 35.7836 42.2413C35.976 42.2413 39.7881 41.6686 41.8865 42.6239C44.2713 43.6709 44.7478 44.8163 44.7478 44.9125C44.8441 45.2928 45.5107 47.3912 43.3183 48.6306Z" fill="white"/>
<path d="M40.0746 43.8636C38.8352 43.3871 36.9292 43.5772 36.833 43.6712C34.8308 43.9575 34.0679 45.3893 34.0679 45.4833C34.0679 45.5795 33.9717 45.8658 33.9717 45.9598C33.9717 47.2014 34.8308 47.8681 34.8308 47.8681C34.8308 47.8681 35.6898 48.7271 37.4057 48.7271C37.5019 48.7271 37.5959 48.7271 37.5959 48.7271C39.1216 48.7271 39.7882 48.4408 40.7435 47.8681C41.8867 47.2014 41.9829 46.056 41.6965 45.2931C41.7928 45.103 41.4102 44.434 40.0746 43.8636ZM40.361 47.1052C39.5042 47.6779 38.9314 47.8681 37.5019 47.7718C36.1663 47.7718 35.4974 47.2014 35.4974 47.1052C35.4974 47.1052 34.927 46.7226 34.927 45.9598C34.927 45.9598 34.927 45.8658 34.927 45.7696C35.0209 45.5795 35.6898 44.7204 37.0231 44.5302C37.5019 44.434 39.0254 44.3401 39.7882 44.7204C40.7435 45.1969 41.0299 45.6757 41.0299 45.6757C41.0299 45.8658 41.22 46.6287 40.361 47.1052Z" fill="white"/>
<path d="M55.0454 39.096C54.8553 38.9036 54.5689 38.9998 54.3788 39.1899C54.1886 39.3801 54.2826 39.6664 54.475 39.8566C54.7591 40.049 61.5309 44.6262 58.5734 50.0602C58.4795 50.2526 58.5734 50.5367 58.7658 50.7291C58.8598 50.7291 58.956 50.823 58.956 50.823C59.1461 50.823 59.2423 50.7291 59.3363 50.5367C62.8665 44.4337 55.0454 39.1899 55.0454 39.096Z" fill="white"/>
<path d="M57.0474 52.1587C57.0474 52.1587 55.3315 54.2572 52.949 54.3511C52.6626 54.3511 52.4702 54.5435 52.4702 54.8276C52.4702 55.114 52.6626 55.3064 52.949 55.3064C55.808 55.2102 57.6201 52.9216 57.7163 52.8254C57.9065 52.6352 57.8103 52.3489 57.6201 52.1587C57.5262 51.9686 57.2398 51.9686 57.0474 52.1587Z" fill="white"/>
<path d="M18.3338 44.4338C18.524 44.2436 18.524 43.9573 18.3338 43.7671C18.1437 43.577 17.8573 43.577 17.6672 43.7671C16.618 44.9126 15.3786 50.2526 18.7164 53.9707C18.8103 54.0646 18.9066 54.1609 19.0967 54.1609C19.1929 54.1609 19.2868 54.1609 19.3831 54.0646C19.5732 53.8745 19.5732 53.5881 19.3831 53.398C16.3316 49.87 17.6672 45.1027 18.3338 44.4338Z" fill="white"/>
<path d="M25.4861 56.7359C23.1975 56.2594 21.3854 54.8276 21.3854 54.8276C21.1953 54.6375 20.9089 54.7337 20.7188 54.9239C20.5264 55.114 20.6226 55.4004 20.8127 55.5905C20.9089 55.6867 22.8149 57.2124 25.3899 57.689H25.4861C25.6763 57.689 25.8664 57.4988 25.9626 57.3087C25.8664 57.0223 25.7725 56.7359 25.4861 56.7359Z" fill="white"/>
<mask id="mask0_160_1089" style="mask-type:luminance" maskUnits="userSpaceOnUse" x="0" y="0" width="78" height="78">
<path d="M0 0H78V77.4135H0V0Z" fill="white"/>
</mask>
<g mask="url(#mask0_160_1089)">
<path d="M76.3117 48.7271L75.5488 48.1544C75.3564 47.9643 74.9761 47.6779 74.4996 47.3916C73.6405 46.7226 72.4974 45.8658 71.8285 45.1969C71.0656 44.434 61.8173 37.3781 53.3296 30.7987C51.5175 29.4631 50.2781 28.4162 49.7054 28.0336C48.6585 27.1745 47.7032 26.7942 46.9403 26.698C48.466 25.4586 49.3251 23.5526 49.5152 23.1701C50.3743 22.0269 62.1036 6.10297 63.8195 3.05152C64.0097 2.66894 64.5824 1.61971 64.0097 0.856851C63.2468 5.99325e-05 61.2446 0.666707 60.6718 0.856851C60.1953 0.953067 16.428 13.9218 12.994 14.5884C9.27587 15.3513 8.41679 18.0224 8.41679 18.1164C8.41679 18.2126 3.74568 31.0851 1.74116 36.1387C-0.0686419 40.6197 0.407862 41.4788 0.598006 41.6689C0.788149 41.9553 0.978292 41.9553 1.07451 42.0515C1.07451 42.0515 1.07451 42.0515 1.17073 42.0515H1.26465L1.83737 41.9553C1.64723 42.3379 1.45709 42.9083 1.45709 43.5772C1.36087 45.3893 1.45709 47.8681 1.45709 47.9643C1.45709 48.0582 1.45709 48.1544 1.55101 48.2484C2.60024 49.7741 23.7703 74.6622 25.1036 75.9978C25.296 76.188 25.3899 76.2842 25.4862 76.4743C26.0589 77.1433 26.5354 77.6198 27.6785 77.6198C28.5376 77.6198 29.777 77.3334 31.5891 76.5705L36.5466 74.5683C37.5018 74.0918 60.6718 63.8882 62.1036 63.2193C62.5802 63.0291 64.1998 62.3625 66.0119 61.6936C74.9761 58.358 76.5019 57.5952 76.692 56.9262L76.9784 55.9732C77.3586 53.6846 77.5511 52.0627 77.645 51.1097C77.645 51.0157 77.645 51.0157 77.645 50.9195C77.645 49.7741 76.4056 48.8211 76.3117 48.7271ZM2.60024 36.5213C4.60247 31.4676 9.27587 18.5929 9.3698 18.4027C9.3698 18.4027 10.0387 16.1141 13.1841 15.5414C16.6182 14.8748 59.1461 2.28865 60.9582 1.71593C61.6249 1.42957 62.3877 1.33335 62.8665 1.33335C63.0567 1.33335 63.2468 1.33335 63.343 1.42957C63.4369 1.52579 63.4369 1.80986 63.0567 2.4788C61.4347 5.53025 48.9425 22.3133 48.8486 22.5034C48.8486 22.5034 48.8486 22.5996 48.7524 22.5996C48.7524 22.5996 47.3229 25.8412 44.9381 26.6041C44.7479 26.698 26.8217 32.707 23.9604 33.5638C22.7211 33.9464 19.4795 35.0895 15.7591 36.4251C10.6115 38.2372 4.79261 40.3356 3.3631 40.6197L1.26465 41.0023C1.26465 40.7159 1.36087 39.5728 2.60024 36.5213ZM75.9291 55.6869L75.739 56.5459C75.0701 57.2126 68.9671 59.5012 65.6316 60.7405C63.6294 61.5034 62.1036 62.0761 61.6249 62.2663C60.1953 62.9352 36.3564 73.5191 36.07 73.613L31.1126 75.6175C28.9179 76.4743 27.8687 76.6645 27.202 76.5705V75.235C27.202 74.9486 27.0119 74.7585 26.7255 74.7585C26.4392 74.7585 26.249 74.9486 26.249 75.235V75.9016L26.1528 75.8077C25.9627 75.6175 25.8664 75.4251 25.6763 75.235C25.4862 75.0448 24.0567 73.4229 21.9582 70.9441C22.2446 71.1343 22.4347 71.2305 22.6248 71.2305C22.7211 71.2305 22.815 71.2305 22.815 71.2305C23.1014 71.1343 23.5779 70.8479 23.5779 69.7987C23.5779 68.273 22.2446 67.7025 22.1483 67.6063C22.0521 67.5101 21.862 67.5101 21.7681 67.6063C21.6718 67.7025 21.5756 67.7965 21.4817 67.8927C21.0991 68.9419 20.909 69.5146 21.4817 70.4676C15.0924 63.1254 3.64946 49.6802 2.21995 47.8681C2.21995 47.2953 2.12373 45.2931 2.21995 43.7674C2.21995 43.6712 2.21995 43.481 2.21995 43.3871C2.79038 44.6265 4.02975 45.8658 4.02975 45.8658C4.60247 46.4386 11.4682 54.7338 13.7568 57.4027L14.8061 58.7383C20.1461 65.2238 23.6741 69.2283 25.1998 70.5616C25.5824 70.8479 25.8664 71.0404 26.1528 71.2305V73.4229C26.1528 73.7092 26.343 73.8994 26.6293 73.8994C26.9157 73.8994 27.1058 73.7092 27.1058 73.4229V71.6108C28.5376 72.0873 29.5868 71.6108 30.3497 71.3244C30.5399 71.2305 30.73 71.1343 30.8262 71.1343C31.5891 70.8479 36.07 69.0358 40.4571 67.32C43.4123 66.0806 46.2736 65.0314 47.6092 64.4609C50.8508 63.2193 62.6741 58.0717 63.8195 57.4989C66.1081 56.2596 70.1126 54.7338 72.9739 53.4945C74.117 53.018 75.07 52.6354 75.8329 52.349C75.9291 52.2551 76.1193 52.2551 76.2155 52.1589C76.3117 53.2081 76.1193 54.5437 75.9291 55.6869ZM22.1483 68.8457C22.3385 69.0358 22.5309 69.3222 22.5309 69.7987C22.5309 69.9911 22.5309 70.1813 22.4347 70.2775C22.4347 70.2775 22.3385 70.1813 22.2446 70.0851C22.0521 69.6086 21.9582 69.4184 22.1483 68.8457ZM75.739 51.4922C75.0701 51.7786 74.0231 52.1589 72.8777 52.6354C70.0164 53.7808 66.0119 55.4005 63.7233 56.6399C62.5802 57.2126 50.8508 62.2663 47.6092 63.6019C46.2736 64.1746 43.4123 65.3177 40.4571 66.4632C36.2602 68.179 31.4929 70.0851 30.8262 70.2775C30.5399 70.3714 30.3497 70.4676 30.1573 70.4676C29.0141 70.9441 27.8687 71.4206 25.9627 69.7987C24.9134 68.9419 22.3385 66.1768 15.6651 58.1656L14.6159 56.8323C10.7054 52.0627 5.36533 45.7696 4.79261 45.1969C4.12597 44.5303 2.79038 42.8144 2.8866 41.9553C2.8866 41.8614 2.8866 41.7652 2.98282 41.6689L3.45932 41.575C4.88883 41.2887 10.8016 39.1902 15.9492 37.3781C19.5734 36.1387 22.9112 34.8994 24.1506 34.5191C27.0119 33.66 44.3653 27.8435 45.1282 27.5571C45.3206 27.5571 45.4146 27.4609 45.607 27.367C45.7971 27.367 47.3229 27.1745 49.135 28.6063C49.6115 28.9866 50.947 30.0358 52.7568 31.3714C58.4795 35.7585 70.3989 44.9128 71.1618 45.6757C71.9247 46.4386 73.0678 47.2953 73.9269 47.9643C74.3072 48.2484 74.6898 48.5347 74.8799 48.7271L75.6428 49.2976C75.8329 49.3938 76.2155 49.7741 76.4056 50.2529C76.4056 50.3468 76.4056 50.443 76.4056 50.5369C76.4056 50.5369 76.4056 50.6332 76.4056 50.7294C76.4056 51.1097 76.0253 51.396 75.739 51.4922Z" fill="white"/>
</g>
<path d="M8.60684 24.5055C8.70306 24.5055 8.70306 24.5055 8.79928 24.5055C8.98942 24.5055 9.17957 24.4092 9.27578 24.2191C9.27578 24.2191 10.325 21.454 10.7053 20.501C11.3742 18.8791 11.8507 18.5927 12.3272 18.3063C12.5174 18.2124 12.7075 18.0223 12.8037 17.926C13.0901 17.6397 15.1863 17.067 16.9044 16.5905C17.1908 16.4965 17.2847 16.3041 17.2847 16.0177C17.1908 15.7337 16.9984 15.6375 16.712 15.6375C15.759 15.8276 12.8037 16.5905 12.1371 17.1632C12.0409 17.2594 11.8507 17.3533 11.7545 17.4495C11.1818 17.8298 10.5152 18.3063 9.75229 20.1184C9.36971 21.0737 8.32277 23.7426 8.32277 23.9327C8.22656 24.1252 8.32277 24.4092 8.60684 24.5055Z" fill="white"/>
<path d="M18.1438 16.2103C18.2377 16.2103 18.2377 16.2103 18.3339 16.2103L20.9089 15.255C21.1953 15.161 21.2892 14.8747 21.1953 14.6845C21.099 14.3982 20.8127 14.302 20.6225 14.3982L18.0476 15.3512C17.7612 15.4474 17.6673 15.7338 17.7612 15.9239C17.7612 16.114 17.9537 16.2103 18.1438 16.2103Z" fill="white"/>
<path d="M7.17753 28.0336C7.27375 28.0336 7.27375 28.0336 7.36767 28.0336C7.56011 28.0336 7.75025 27.9374 7.84418 27.7472L8.60704 25.9352C8.70326 25.6511 8.60704 25.4587 8.32297 25.3647C8.03661 25.2685 7.84418 25.3647 7.75025 25.6511L6.98739 27.4609C6.79724 27.6533 6.89117 27.9374 7.17753 28.0336Z" fill="white"/>
<path d="M56.7636 4.76766L60.2916 3.62222C60.2916 3.81465 60.1954 4.19494 59.7189 4.9578C58.4795 7.15018 56.5712 9.24863 56.5712 9.24863C56.381 9.43877 56.381 9.72513 56.5712 9.91757C56.6674 10.0115 56.7636 10.0115 56.8575 10.0115C56.9538 10.0115 57.1439 9.91757 57.2401 9.82135C57.3341 9.72513 59.2424 7.62897 60.4817 5.34038C61.1484 4.09872 61.3408 3.33586 61.0544 2.85935C60.862 2.57299 60.4817 2.47907 60.1954 2.57299L56.4773 3.81465C56.1909 3.90858 56.0947 4.19494 56.1909 4.38508C56.2848 4.76766 56.5712 4.86159 56.7636 4.76766Z" fill="white"/>
<path d="M54.5688 13.159C54.665 13.2529 54.7589 13.2529 54.8551 13.2529C55.0453 13.2529 55.1415 13.159 55.2377 13.0628L56.4771 11.0606C56.571 10.8704 56.571 10.5841 56.2846 10.3939C56.0945 10.2015 55.8081 10.2977 55.618 10.5841L54.3786 12.5863C54.2824 12.6825 54.3786 12.9689 54.5688 13.159Z" fill="white"/>
<path d="M53.0429 5.81673H53.1391L55.2376 5.14779C55.5216 5.05386 55.6178 4.7675 55.5216 4.57736C55.4277 4.291 55.1413 4.19478 54.9512 4.291L52.8528 4.95765C52.5664 5.05386 52.4702 5.34022 52.5664 5.53037C52.6626 5.62429 52.8528 5.81673 53.0429 5.81673Z" fill="white"/>
<path d="M8.13047 45.7695C6.89111 44.7202 5.65174 43.1945 5.65174 42.8142C5.74795 42.4316 7.27368 41.8612 8.79941 41.4786C9.08577 41.3824 9.1797 41.1923 9.1797 40.9059C9.08577 40.6196 8.89334 40.5256 8.60698 40.5256C7.17747 40.812 4.69873 41.5749 4.69873 42.718C4.69873 43.7672 6.79718 45.8657 7.46383 46.4384C7.56004 46.5323 7.65397 46.5323 7.75019 46.5323C7.84411 46.5323 8.03655 46.4384 8.13047 46.3422C8.32291 46.246 8.32291 45.9596 8.13047 45.7695Z" fill="white"/>
<path d="M12.1369 39.1899L9.84836 39.9528C9.562 40.049 9.46578 40.3354 9.562 40.5255C9.65592 40.7157 9.84836 40.9058 10.0385 40.9058H10.1324L12.421 40.1429C12.7074 40.049 12.8036 39.7627 12.7074 39.5725C12.6135 39.3801 12.421 39.1899 12.1369 39.1899Z" fill="white"/>
<path d="M9.08566 47.1053C8.89322 46.9151 8.60686 46.8189 8.41672 47.009C8.22658 47.2015 8.13036 47.4855 8.32279 47.678L9.46595 49.1075C9.56216 49.2037 9.65609 49.2976 9.84852 49.2976C9.94245 49.2976 10.0387 49.2976 10.1326 49.2037C10.325 49.0113 10.419 48.7272 10.2288 48.5348L9.08566 47.1053Z" fill="white"/>
<path d="M39.8842 30.7049H39.9804L42.0766 30.036C42.3629 29.9421 42.4592 29.6557 42.3629 29.4633C42.269 29.1792 41.9827 29.083 41.7925 29.1792L39.6941 29.8459C39.4077 29.9421 39.3115 30.2262 39.4077 30.4186C39.5039 30.5125 39.6941 30.7049 39.8842 30.7049Z" fill="white"/>
<path d="M43.6022 29.463C43.6022 29.463 45.034 28.8926 46.0832 28.8926C46.7499 28.8926 48.2756 29.9418 49.1347 30.7046C49.2286 30.7986 49.3248 30.7986 49.421 30.7986C49.5149 30.7986 49.7051 30.7046 49.8013 30.6084C49.9915 30.4183 49.9915 30.1319 49.7051 29.9418C49.3248 29.5592 47.2264 27.9373 46.0832 27.9373C44.8438 27.9373 43.3181 28.6062 43.2219 28.6062C42.9355 28.7001 42.8393 28.9865 42.9355 29.2728C43.1257 29.463 43.412 29.5592 43.6022 29.463Z" fill="white"/>
<path d="M51.7076 32.7069C51.8038 32.8008 51.9 32.8008 51.9939 32.8008C52.0901 32.8008 52.2803 32.7069 52.3765 32.6106C52.5666 32.4205 52.4704 32.1341 52.2803 31.944L50.8508 30.7046C50.6606 30.5122 50.3743 30.6084 50.1841 30.7986C49.9917 30.9887 50.0879 31.2751 50.278 31.4675L51.7076 32.7069Z" fill="white"/>
<path d="M72.4975 47.3913C72.305 47.2951 72.0187 47.3913 71.8285 47.5814C71.7346 47.7716 71.8285 48.058 72.0187 48.2481C72.8777 48.7269 73.8307 49.3935 73.927 49.7738C74.0232 49.9663 73.4505 50.7291 71.7346 51.3958C71.4482 51.492 71.352 51.7783 71.4482 52.0624C71.5422 52.2549 71.7346 52.3488 71.9247 52.3488C72.0187 52.3488 72.0187 52.3488 72.1149 52.3488C73.0679 51.9685 75.2625 50.8231 74.88 49.4898C74.5936 48.6307 72.974 47.6777 72.4975 47.3913Z" fill="white"/>
<path d="M70.2089 51.9687L68.7771 52.5414C68.4907 52.6353 68.3968 52.9217 68.4907 53.1118C68.5869 53.302 68.7771 53.3982 68.9672 53.3982C69.0634 53.3982 69.0634 53.3982 69.1597 53.3982L70.5892 52.8255C70.8755 52.7315 70.9717 52.4452 70.8755 52.255C70.7793 52.0626 70.4929 51.8725 70.2089 51.9687Z" fill="white"/>
<path d="M70.0163 45.1968C69.8261 45.0067 69.5398 45.0067 69.3496 45.1968C69.1595 45.3892 69.1595 45.6756 69.3496 45.8657L70.4928 47.1051C70.589 47.2013 70.6852 47.2953 70.8754 47.2953C70.9716 47.2953 71.0655 47.2953 71.1617 47.2013C71.3519 47.0089 71.3519 46.7225 71.1617 46.5324L70.0163 45.1968Z" fill="white"/>
<path d="M31.9692 67.8927C30.2534 68.9419 28.5375 69.5146 28.3474 69.2283C27.5845 68.4654 25.486 66.4632 25.3898 66.4632C25.1997 66.2707 24.9133 66.2707 24.7232 66.4632C24.533 66.6533 24.533 66.9397 24.7232 67.1298C24.7232 67.1298 26.9155 69.1321 27.6784 69.8949C27.8686 70.0851 28.2511 70.1813 28.6314 70.1813C29.8731 70.1813 31.6829 69.2283 32.542 68.6555C32.7321 68.5593 32.8283 68.179 32.7321 67.9889C32.4457 67.7965 32.1617 67.7025 31.9692 67.8927Z" fill="white"/>
<path d="M22.6247 63.6018C22.4345 63.4117 22.1482 63.4117 21.958 63.5056C21.7679 63.6018 21.7679 63.9821 21.8618 64.1746L23.3876 65.8904C23.4838 65.9844 23.5777 66.0806 23.7701 66.0806C23.8641 66.0806 23.9603 66.0806 24.0565 65.9844C24.2466 65.7942 24.2466 65.5079 24.1504 65.3177L22.6247 63.6018Z" fill="white"/>
<path d="M35.7834 66.3669L33.591 67.1298C33.3047 67.226 33.2085 67.5101 33.3047 67.7025C33.4009 67.8926 33.591 67.9889 33.7812 67.9889C33.8774 67.9889 33.8774 67.9889 33.9713 67.9889L36.166 67.226C36.4523 67.1298 36.5463 66.8434 36.4523 66.6533C36.3561 66.4631 36.0698 66.2707 35.7834 66.3669Z" fill="white"/>
<path d="M4.50847 47.0088C4.41225 46.9149 4.12589 46.8187 4.02968 46.9149C3.83953 47.0088 3.74561 47.2013 3.74561 47.3914V49.2035C3.74561 49.2974 3.74561 49.3936 3.83953 49.4899L6.60463 52.4451C6.70085 52.5413 6.79706 52.6352 6.98721 52.6352C7.08113 52.6352 7.08113 52.6352 7.17735 52.6352C7.36749 52.5413 7.46371 52.4451 7.46371 52.255L7.55993 50.2527C7.55993 50.1565 7.55993 49.9664 7.36749 49.8702L4.50847 47.0088ZM6.41448 51.0156L4.6024 48.9171V48.4406L6.5107 50.2527L6.41448 51.0156Z" fill="white"/>
<path d="M58.7659 60.2639L44.4617 66.1767C44.2715 66.2706 44.1753 66.463 44.1753 66.6532L44.2715 68.9418C44.2715 69.1319 44.3654 69.2281 44.4617 69.3221C44.5579 69.3221 44.6518 69.4183 44.748 69.4183C44.8442 69.4183 44.8442 69.4183 44.9382 69.4183L59.0523 63.029C59.2424 62.9351 59.3364 62.8389 59.3364 62.6487L59.4326 60.8366C59.4326 60.6465 59.3364 60.5503 59.2424 60.4541C59.1462 60.2639 58.9561 60.2639 58.7659 60.2639ZM58.4796 62.2661L45.2245 68.2728L45.1283 67.0335L58.4796 61.5033V62.2661Z" fill="white"/>
<path d="M19.2872 64.2687C19.1932 64.1748 19.0008 64.1748 18.9069 64.2687C18.8107 64.3649 18.7167 64.4611 18.6205 64.555C18.2379 65.7005 18.0478 66.2709 18.6205 67.2262C19.0008 67.7966 19.3834 67.9891 19.6697 67.9891C19.7637 67.9891 19.8599 67.9891 19.8599 67.9891C20.1462 67.8929 20.6227 67.6065 20.6227 66.5573C20.719 64.9376 19.3834 64.3649 19.2872 64.2687ZM19.6697 66.9399C19.6697 66.9399 19.5735 66.8436 19.4796 66.7474C19.1932 66.2709 19.1932 66.0808 19.2872 65.5081C19.4796 65.7005 19.6697 65.9846 19.6697 66.4634C19.7637 66.6535 19.6697 66.8436 19.6697 66.9399Z" fill="white"/>
<path d="M36.7391 71.3241C35.2133 72.087 29.8733 74.1854 29.7771 74.1854C29.4907 74.2816 29.3945 74.568 29.4907 74.7581C29.5869 74.9483 29.7771 75.0445 29.9672 75.0445C30.0634 75.0445 30.0634 75.0445 30.1574 75.0445C30.3498 74.9483 35.5936 72.9461 37.1193 72.1832C37.3095 72.087 37.4057 71.8029 37.3095 71.5165C37.3095 71.3241 37.0231 71.2302 36.7391 71.3241Z" fill="white"/>
<path d="M40.7432 69.322L38.8349 70.4675C38.6447 70.5614 38.5485 70.8478 38.6447 71.1341C38.7409 71.3243 38.9311 71.3243 39.025 71.3243C39.1212 71.3243 39.2174 71.3243 39.3114 71.2303L41.2197 70.0849C41.4098 69.991 41.506 69.7046 41.4098 69.4182C41.3136 69.2281 40.9333 69.1319 40.7432 69.322Z" fill="white"/>
<path d="M64.7724 58.8345L62.3876 59.8837C62.1035 59.9776 62.0073 60.264 62.1035 60.5503C62.1975 60.7405 62.3876 60.8367 62.58 60.8367C62.674 60.8367 62.674 60.8367 62.7702 60.8367L65.1527 59.7875C65.4391 59.6912 65.5353 59.4049 65.4391 59.1208C65.3451 58.8345 65.0588 58.7382 64.7724 58.8345Z" fill="white"/>
<path d="M73.7368 55.4967C73.2603 55.6869 66.871 58.1656 66.5847 58.2618C66.2983 58.3581 66.2021 58.6421 66.2983 58.8346C66.3945 59.0247 66.5847 59.1209 66.7748 59.1209C66.871 59.1209 66.871 59.1209 66.965 59.1209C68.7771 58.3581 73.6406 56.4498 74.0232 56.3535C74.3073 56.2596 74.4035 55.9732 74.3073 55.7831C74.3073 55.5907 74.0232 55.4005 73.7368 55.4967Z" fill="white"/>
</svg>
